<svg width="160" height="160" viewBox="0 0 160 160" fill="none" xmlns="http://www.w3.org/2000/svg">
<g clip-path="url(#clip0_148_6976)">
<path d="M80 160C124.183 160 160 124.183 160 80C160 35.8172 124.183 0 80 0C35.8172 0 0 35.8172 0 80C0 124.183 35.8172 160 80 160Z" fill="#F8F9FA"/>
<path d="M126 42H34C31.7909 42 30 43.7909 30 46V54.6667C30 56.8758 31.7909 58.6667 34 58.6667H126C128.209 58.6667 130 56.8758 130 54.6667V46C130 43.7909 128.209 42 126 42Z" fill="#E8EAED"/>
<path d="M53.5 67.8335H34C31.7909 67.8335 30 69.6244 30 71.8335V113.833C30 116.043 31.7909 117.833 34 117.833H53.5C55.7091 117.833 57.5 116.043 57.5 113.833V71.8335C57.5 69.6244 55.7091 67.8335 53.5 67.8335Z" fill="url(#paint0_linear_148_6976)"/>
<path d="M69 67.8335H126C128.209 67.8335 130 69.6244 130 71.8335V113.833C130 116.043 128.209 117.833 126 117.833H69C66.7909 117.833 65 116.043 65 113.833V71.8335C65 69.6244 66.7909 67.8335 69 67.8335Z" fill="url(#paint1_linear_148_6976)"/>
</g>
<defs>
<linearGradient id="paint0_linear_148_6976" x1="1405" y1="2159.84" x2="1405" y2="5067.83" gradientUnits="userSpaceOnUse">
<stop stop-color="#E8EAED"/>
<stop offset="1" stop-color="#E8EAED" stop-opacity="0"/>
</linearGradient>
<linearGradient id="paint1_linear_148_6976" x1="3315" y1="2159.84" x2="3315" y2="5067.83" gradientUnits="userSpaceOnUse">
<stop stop-color="#E8EAED"/>
<stop offset="1" stop-color="#E8EAED" stop-opacity="0"/>
</linearGradient>
<clipPath id="clip0_148_6976">
<rect width="160" height="160" fill="white"/>
</clipPath>
</defs>
</svg>
