<svg width="2467" height="620" viewBox="0 0 2467 620" fill="none" xmlns="http://www.w3.org/2000/svg">
<g clip-path="url(#clip0_729_11)">
<g filter="url(#filter0_d_729_11)">
<path d="M310.14 368.168L273.093 332.181L204.449 263.478H203.36L87.8638 380.162V381.253C98.2553 391.567 109.096 401.413 119.462 411.787C122.516 414.844 127.771 422.466 132.537 422.466C137.857 422.466 144.344 413.056 147.791 409.606L187.016 370.348C190.614 366.747 199.835 353.807 205.539 355.307C214.363 357.624 225.291 373.759 231.688 380.162L283.988 432.507C291.805 440.331 300.049 451.789 310.14 456.498C325.408 434.803 349.126 416.389 367.886 397.611L482.293 283.107C490.596 274.797 501.684 258.424 512.802 254.321C518.414 252.251 526.497 253.664 532.414 253.664C537 253.664 546.663 251.805 549.657 256.191C555.383 264.579 554.889 284.096 555.338 294.012C556.83 326.881 553.453 358.549 542.948 389.977C498.847 521.904 348.504 591.696 219.704 541.764C192.243 531.119 166.389 515.339 144.522 495.571C30.8687 392.829 36.1345 206.499 159.776 113.506C212.822 73.6084 284.441 52.521 350.453 66.2261C376.633 71.6611 399.356 83.9143 424.545 91.1774L402.753 127.164L520.428 117.35L507.411 79.1817L481.204 6.11749H479.025L459.412 38.8328C432.405 27.5198 407.64 14.7466 378.783 7.92164C302.179 -10.1957 217.399 3.19301 149.97 43.6845C121.842 60.5748 96.6466 81.7242 75.0997 106.444C-19.7062 215.214 -24.0651 376.786 58.1406 493.575C77.535 521.13 102.849 545.434 130.357 564.763C280.254 670.086 498.475 619.977 583.343 455.408C601.613 419.981 612.669 381.582 616.497 341.995C620.997 295.45 618.954 237.173 595.827 194.936C592.695 189.214 581.52 191.505 575.998 191.505H517.16C508.125 191.505 492.642 188.537 484.472 192.626C470.049 199.843 456.64 219.361 445.248 230.762L359.17 316.912L326.482 349.628C320.817 355.299 313.559 360.83 310.14 368.168Z" fill="#F57C00"/>
</g>
<g filter="url(#filter1_d_729_11)">
<path d="M951.992 337.419C951.992 378.493 942.664 411.303 924.005 435.85C905.347 460.231 880.307 472.423 848.883 472.423C819.75 472.423 796.427 462.85 778.915 443.703V569.625H719.258V201.925H774.251L776.704 228.925C794.218 207.653 818.032 197.016 848.145 197.016C880.551 197.016 905.92 209.126 924.252 233.344C942.746 257.399 951.992 290.863 951.992 333.737V337.419ZM892.581 332.264C892.581 305.755 887.262 284.727 876.625 269.182C866.15 253.635 851.091 245.863 831.451 245.863C807.066 245.863 789.552 255.926 778.915 276.054V393.876C789.716 414.493 807.393 424.804 831.942 424.804C850.929 424.804 865.739 417.194 876.378 401.976C887.18 386.593 892.581 363.357 892.581 332.264ZM1121.76 472.423C1083.96 472.423 1053.27 460.559 1029.7 436.83C1006.3 412.94 994.595 381.192 994.595 341.593V334.228C994.595 307.719 999.67 284.072 1009.82 263.29C1020.13 242.344 1034.53 226.062 1053.02 214.444C1071.52 202.825 1092.14 197.016 1114.89 197.016C1151.06 197.016 1178.97 208.553 1198.61 231.627C1218.41 254.699 1228.31 287.344 1228.31 329.565V353.619H1054.74C1056.54 375.547 1063.83 392.894 1076.59 405.657C1089.52 418.421 1105.73 424.804 1125.2 424.804C1152.53 424.804 1174.79 413.757 1191.98 391.665L1224.14 422.349C1213.5 438.222 1199.26 450.577 1181.42 459.413C1163.75 468.086 1143.86 472.423 1121.76 472.423ZM1114.64 244.881C1098.28 244.881 1085.02 250.609 1074.87 262.064C1064.89 273.519 1058.51 289.473 1055.73 309.928H1169.39V305.509C1168.08 285.545 1162.76 270.491 1153.43 260.344C1144.1 250.036 1131.17 244.881 1114.64 244.881ZM1332.29 201.925L1334.01 232.607C1353.65 208.879 1379.42 197.016 1411.34 197.016C1466.66 197.016 1494.81 228.681 1495.79 292.01V467.513H1436.14V295.445C1436.14 278.591 1432.45 266.154 1425.09 258.136C1417.89 249.953 1406.02 245.863 1389.49 245.863C1365.43 245.863 1347.51 256.745 1335.73 278.509V467.513H1276.07V201.925H1332.29ZM1626.78 417.93H1789.04V467.513H1564.66V110.123H1626.78V417.93ZM2043.77 384.302H1905.3L1876.33 467.513H1811.77L1946.8 110.123H2002.53L2137.79 467.513H2072.98L2043.77 384.302ZM1922.73 334.228H2026.34L1974.54 185.969L1922.73 334.228ZM2242.76 334.719V467.513H2180.65V110.123H2317.39C2357.33 110.123 2388.98 120.514 2412.4 141.296C2435.96 162.079 2447.74 189.571 2447.74 223.771C2447.74 258.789 2436.21 286.036 2413.13 305.509C2390.22 324.982 2358.06 334.719 2316.65 334.719H2242.76ZM2242.76 284.891H2317.39C2339.48 284.891 2356.34 279.735 2367.95 269.427C2379.58 258.954 2385.38 243.899 2385.38 224.262C2385.38 204.953 2379.5 189.571 2367.72 178.116C2355.93 166.497 2339.73 160.524 2319.1 160.197H2242.76V284.891Z" fill="#1976D2"/>
</g>
</g>
<defs>
<filter id="filter0_d_729_11" x="-10" y="-6" width="638.426" height="640" filterUnits="userSpaceOnUse" color-interpolation-filters="sRGB">
<feFlood flood-opacity="0" result="BackgroundImageFix"/>
<feColorMatrix in="SourceAlpha" type="matrix" values="0 0 0 0 0 0 0 0 0 0 0 0 0 0 0 0 0 0 127 0" result="hardAlpha"/>
<feOffset dy="4"/>
<feGaussianBlur stdDeviation="5"/>
<feComposite in2="hardAlpha" operator="out"/>
<feColorMatrix type="matrix" values="0 0 0 0 0 0 0 0 0 0 0 0 0 0 0 0 0 0 0.25 0"/>
<feBlend mode="normal" in2="BackgroundImageFix" result="effect1_dropShadow_729_11"/>
<feBlend mode="normal" in="SourceGraphic" in2="effect1_dropShadow_729_11" result="shape"/>
</filter>
<filter id="filter1_d_729_11" x="709.258" y="104.123" width="1748.48" height="479.502" filterUnits="userSpaceOnUse" color-interpolation-filters="sRGB">
<feFlood flood-opacity="0" result="BackgroundImageFix"/>
<feColorMatrix in="SourceAlpha" type="matrix" values="0 0 0 0 0 0 0 0 0 0 0 0 0 0 0 0 0 0 127 0" result="hardAlpha"/>
<feOffset dy="4"/>
<feGaussianBlur stdDeviation="5"/>
<feComposite in2="hardAlpha" operator="out"/>
<feColorMatrix type="matrix" values="0 0 0 0 0 0 0 0 0 0 0 0 0 0 0 0 0 0 0.25 0"/>
<feBlend mode="normal" in2="BackgroundImageFix" result="effect1_dropShadow_729_11"/>
<feBlend mode="normal" in="SourceGraphic" in2="effect1_dropShadow_729_11" result="shape"/>
</filter>
<clipPath id="clip0_729_11">
<rect width="2467" height="620" fill="white"/>
</clipPath>
</defs>
</svg>
