<svg width="2468" height="880" viewBox="0 0 2468 880" fill="none" xmlns="http://www.w3.org/2000/svg">
<g filter="url(#filter0_d_1186_432)">
<path d="M320.14 374.168L283.093 338.181L214.449 269.478H213.36L97.8638 386.162V387.253C108.255 397.567 119.096 407.413 129.462 417.787C132.516 420.844 137.771 428.466 142.537 428.466C147.857 428.466 154.344 419.056 157.791 415.606L197.016 376.348C200.614 372.747 209.835 359.807 215.539 361.307C224.363 363.624 235.291 379.759 241.688 386.162L293.988 438.507C301.805 446.331 310.049 457.789 320.14 462.498C335.408 440.803 359.126 422.389 377.886 403.611L492.293 289.107C500.596 280.797 511.684 264.424 522.802 260.321C528.414 258.251 536.497 259.664 542.414 259.664C547 259.664 556.663 257.805 559.657 262.191C565.383 270.579 564.889 290.096 565.338 300.012C566.83 332.881 563.453 364.549 552.948 395.977C508.847 527.904 358.504 597.696 229.704 547.764C202.243 537.119 176.389 521.339 154.522 501.571C40.8687 398.829 46.1345 212.499 169.776 119.506C222.822 79.6084 294.441 58.521 360.453 72.2261C386.633 77.6611 409.356 89.9143 434.545 97.1774L412.753 133.164L530.428 123.35L517.411 85.1817L491.204 12.1175H489.025L469.412 44.8328C442.405 33.5198 417.64 20.7466 388.783 13.9216C312.179 -4.1957 227.399 9.19301 159.97 49.6845C131.842 66.5748 106.647 87.7242 85.0997 112.444C-9.70616 221.214 -14.0651 382.786 68.1406 499.575C87.535 527.13 112.849 551.434 140.357 570.763C290.254 676.086 508.475 625.977 593.343 461.408C611.613 425.981 622.669 387.582 626.497 347.995C630.997 301.45 628.954 243.173 605.827 200.936C602.695 195.214 591.52 197.505 585.998 197.505H527.16C518.125 197.505 502.642 194.537 494.472 198.626C480.049 205.843 466.64 225.361 455.248 236.762L369.17 322.912L336.482 355.628C330.817 361.299 323.559 366.83 320.14 374.168Z" fill="#F57C00"/>
</g>
<g filter="url(#filter1_d_1186_432)">
<path d="M961.992 343.419C961.992 384.493 952.664 417.303 934.005 441.85C915.347 466.231 890.307 478.423 858.883 478.423C829.75 478.423 806.427 468.85 788.915 449.703V575.625H729.258V207.925H784.251L786.704 234.925C804.218 213.653 828.032 203.016 858.145 203.016C890.551 203.016 915.92 215.126 934.252 239.344C952.746 263.399 961.992 296.863 961.992 339.737V343.419ZM902.581 338.264C902.581 311.755 897.262 290.727 886.625 275.182C876.15 259.635 861.091 251.863 841.451 251.863C817.066 251.863 799.552 261.926 788.915 282.054V399.876C799.716 420.493 817.393 430.804 841.942 430.804C860.929 430.804 875.739 423.194 886.378 407.976C897.18 392.593 902.581 369.357 902.581 338.264ZM1131.76 478.423C1093.96 478.423 1063.27 466.559 1039.7 442.83C1016.3 418.94 1004.59 387.192 1004.59 347.593V340.228C1004.59 313.719 1009.67 290.072 1019.82 269.29C1030.13 248.344 1044.53 232.062 1063.02 220.444C1081.52 208.825 1102.14 203.016 1124.89 203.016C1161.06 203.016 1188.97 214.553 1208.61 237.627C1228.41 260.699 1238.31 293.344 1238.31 335.565V359.619H1064.74C1066.54 381.547 1073.83 398.894 1086.59 411.657C1099.52 424.421 1115.73 430.804 1135.2 430.804C1162.53 430.804 1184.79 419.757 1201.98 397.665L1234.14 428.349C1223.5 444.222 1209.26 456.577 1191.42 465.413C1173.75 474.086 1153.86 478.423 1131.76 478.423ZM1124.64 250.881C1108.28 250.881 1095.02 256.609 1084.87 268.064C1074.89 279.519 1068.51 295.473 1065.73 315.928H1179.39V311.509C1178.08 291.545 1172.76 276.491 1163.43 266.344C1154.1 256.036 1141.17 250.881 1124.64 250.881ZM1342.29 207.925L1344.01 238.607C1363.65 214.879 1389.42 203.016 1421.34 203.016C1476.66 203.016 1504.81 234.681 1505.79 298.01V473.513H1446.14V301.445C1446.14 284.591 1442.45 272.154 1435.09 264.136C1427.89 255.953 1416.02 251.863 1399.49 251.863C1375.43 251.863 1357.51 262.745 1345.73 284.509V473.513H1286.07V207.925H1342.29ZM1636.78 423.93H1799.04V473.513H1574.66V116.123H1636.78V423.93ZM2053.77 390.302H1915.3L1886.33 473.513H1821.77L1956.8 116.123H2012.53L2147.79 473.513H2082.98L2053.77 390.302ZM1932.73 340.228H2036.34L1984.54 191.969L1932.73 340.228ZM2252.76 340.719V473.513H2190.65V116.123H2327.39C2367.33 116.123 2398.98 126.514 2422.4 147.296C2445.96 168.079 2457.74 195.571 2457.74 229.771C2457.74 264.789 2446.21 292.036 2423.13 311.509C2400.22 330.982 2368.06 340.719 2326.65 340.719H2252.76ZM2252.76 290.891H2327.39C2349.48 290.891 2366.34 285.735 2377.95 275.427C2389.58 264.954 2395.38 249.899 2395.38 230.262C2395.38 210.953 2389.5 195.571 2377.72 184.116C2365.93 172.497 2349.73 166.524 2329.1 166.197H2252.76V290.891Z" fill="#0277BD"/>
</g>
<path d="M155.938 792.188C155.938 787.104 155.312 782.667 154.062 778.875C152.812 775.042 151.083 771.854 148.875 769.312C146.667 766.771 144.042 764.875 141 763.625C137.958 762.375 134.625 761.75 131 761.75C127.375 761.75 124.042 762.375 121 763.625C117.958 764.875 115.333 766.771 113.125 769.312C110.917 771.854 109.188 775.042 107.938 778.875C106.688 782.667 106.062 787.104 106.062 792.188C106.062 797.271 106.688 801.729 107.938 805.562C109.188 809.354 110.917 812.521 113.125 815.062C115.333 817.562 117.958 819.458 121 820.75C124.042 822 127.375 822.625 131 822.625C134.625 822.625 137.958 822 141 820.75C144.042 819.458 146.667 817.562 148.875 815.062C151.083 812.521 152.812 809.354 154.062 805.562C155.312 801.729 155.938 797.271 155.938 792.188ZM171.75 792.188C171.75 798.562 170.833 804.417 169 809.75C167.208 815.042 164.562 819.604 161.062 823.438C157.604 827.271 153.333 830.25 148.25 832.375C143.208 834.5 137.458 835.562 131 835.562C124.542 835.562 118.771 834.5 113.688 832.375C108.646 830.25 104.375 827.271 100.875 823.438C97.4167 819.604 94.7708 815.042 92.9375 809.75C91.1458 804.417 90.25 798.562 90.25 792.188C90.25 785.812 91.1458 779.979 92.9375 774.688C94.7708 769.354 97.4167 764.771 100.875 760.938C104.375 757.104 108.646 754.125 113.688 752C118.771 749.875 124.542 748.812 131 748.812C137.458 748.812 143.208 749.875 148.25 752C153.333 754.125 157.604 757.104 161.062 760.938C164.562 764.771 167.208 769.354 169 774.688C170.833 779.979 171.75 785.812 171.75 792.188ZM211.125 801.625C209.75 801.625 208.396 801.604 207.062 801.562C205.729 801.521 204.479 801.438 203.312 801.312V834H188V750.375H212.125C216.167 750.375 219.688 750.562 222.688 750.938C225.729 751.271 228.438 751.792 230.812 752.5C236.521 754.25 240.917 757.042 244 760.875C247.083 764.708 248.625 769.583 248.625 775.5C248.625 779.542 247.792 783.188 246.125 786.438C244.458 789.646 242.021 792.375 238.812 794.625C235.604 796.875 231.688 798.604 227.062 799.812C222.438 801.021 217.125 801.625 211.125 801.625ZM203.312 788.438C204.188 788.562 205.292 788.667 206.625 788.75C208 788.792 209.417 788.812 210.875 788.812C215 788.812 218.458 788.479 221.25 787.812C224.042 787.146 226.292 786.229 228 785.062C229.708 783.854 230.938 782.417 231.688 780.75C232.438 779.042 232.812 777.188 232.812 775.188C232.812 772.729 232.25 770.604 231.125 768.812C230 767.021 228.042 765.625 225.25 764.625C223.792 764.125 221.979 763.771 219.812 763.562C217.688 763.312 215.062 763.188 211.938 763.188H203.312V788.438ZM280.188 821.188H321.312V834H264.875V750.375H319.062V763.188H280.188V784.812H313.562V797.625H280.188V821.188ZM381.188 789.25C387.188 797.792 392.062 805.375 395.812 812H396.188C395.688 801.125 395.438 793.208 395.438 788.25V750.375H410.75V834H394.688L367.438 795.5C362.646 788.833 357.688 781.104 352.562 772.312H352.188C352.688 782.562 352.938 790.5 352.938 796.125V834H337.625V750.375H353.688L381.188 789.25ZM472.438 750.375V821.188H511.562V834H457.125V750.375H472.438ZM541.312 821.188H582.438V834H526V750.375H580.188V763.188H541.312V784.812H574.688V797.625H541.312V821.188ZM646.625 812.688H615.125L606.938 834H590.625L623.812 750.375H637.812L671 834H654.812L646.625 812.688ZM630.75 770.5C627.833 779.25 625.229 786.562 622.938 792.438L620.062 799.875H641.688L638.812 792.438C636.521 786.521 633.917 779.208 631 770.5H630.75ZM744.75 775.5C744.75 781.333 743.125 786.292 739.875 790.375C736.667 794.417 731.688 797.417 724.938 799.375V799.625L749.812 834H731.438L708.688 801.625H698.188V834H682.875V750.375H708.312C712.521 750.375 716.438 750.625 720.062 751.125C723.688 751.583 726.792 752.292 729.375 753.25C734.292 755.125 738.083 757.917 740.75 761.625C743.417 765.292 744.75 769.917 744.75 775.5ZM705.75 788.812C709.25 788.812 712.208 788.667 714.625 788.375C717.083 788.042 719.146 787.562 720.812 786.938C723.896 785.771 726.021 784.188 727.188 782.188C728.396 780.146 729 777.812 729 775.188C729 772.938 728.521 770.958 727.562 769.25C726.646 767.5 725.062 766.125 722.812 765.125C721.354 764.458 719.521 763.979 717.312 763.688C715.104 763.354 712.375 763.188 709.125 763.188H698.188V788.812H705.75ZM806.812 789.25C812.812 797.792 817.688 805.375 821.438 812H821.812C821.312 801.125 821.062 793.208 821.062 788.25V750.375H836.375V834H820.312L793.062 795.5C788.271 788.833 783.312 781.104 778.188 772.312H777.812C778.312 782.562 778.562 790.5 778.562 796.125V834H763.25V750.375H779.312L806.812 789.25ZM856.375 834V750.375H871.688V834H856.375ZM935.312 789.25C941.312 797.792 946.188 805.375 949.938 812H950.312C949.812 801.125 949.562 793.208 949.562 788.25V750.375H964.875V834H948.812L921.562 795.5C916.771 788.833 911.812 781.104 906.688 772.312H906.312C906.812 782.562 907.062 790.5 907.062 796.125V834H891.75V750.375H907.812L935.312 789.25ZM1036.88 802.062H1018.12V789.25H1052.19V831.438C1050.94 831.896 1049.33 832.375 1047.38 832.875C1045.46 833.375 1043.29 833.812 1040.88 834.188C1038.5 834.604 1036.04 834.938 1033.5 835.188C1030.96 835.438 1028.44 835.562 1025.94 835.562C1018.44 835.562 1011.88 834.562 1006.25 832.562C1000.67 830.521 996 827.667 992.25 824C988.542 820.333 985.75 815.979 983.875 810.938C982.042 805.854 981.125 800.25 981.125 794.125C981.125 789.792 981.604 785.667 982.562 781.75C983.562 777.792 985 774.146 986.875 770.812C988.792 767.438 991.104 764.396 993.812 761.688C996.521 758.979 999.604 756.667 1003.06 754.75C1006.56 752.833 1010.38 751.375 1014.5 750.375C1018.67 749.333 1023.12 748.812 1027.88 748.812C1032.08 748.812 1036.08 749.125 1039.88 749.75C1043.67 750.333 1046.77 751.062 1049.19 751.938V764.938C1045.94 763.896 1042.65 763.104 1039.31 762.562C1036.02 762.021 1032.69 761.75 1029.31 761.75C1024.77 761.75 1020.52 762.438 1016.56 763.812C1012.6 765.146 1009.17 767.146 1006.25 769.812C1003.38 772.438 1001.1 775.688 999.438 779.562C997.771 783.438 996.938 787.917 996.938 793C996.979 802.875 999.562 810.292 1004.69 815.25C1009.81 820.167 1017.08 822.625 1026.5 822.625C1028.25 822.625 1030.06 822.542 1031.94 822.375C1033.81 822.167 1035.46 821.917 1036.88 821.625V802.062ZM1139.62 812.688H1108.12L1099.94 834H1083.62L1116.81 750.375H1130.81L1164 834H1147.81L1139.62 812.688ZM1123.75 770.5C1120.83 779.25 1118.23 786.562 1115.94 792.438L1113.06 799.875H1134.69L1131.81 792.438C1129.52 786.521 1126.92 779.208 1124 770.5H1123.75ZM1219.44 789.25C1225.44 797.792 1230.31 805.375 1234.06 812H1234.44C1233.94 801.125 1233.69 793.208 1233.69 788.25V750.375H1249V834H1232.94L1205.69 795.5C1200.9 788.833 1195.94 781.104 1190.81 772.312H1190.44C1190.94 782.562 1191.19 790.5 1191.19 796.125V834H1175.88V750.375H1191.94L1219.44 789.25ZM1316.88 812.688H1285.38L1277.19 834H1260.88L1294.06 750.375H1308.06L1341.25 834H1325.06L1316.88 812.688ZM1301 770.5C1298.08 779.25 1295.48 786.562 1293.19 792.438L1290.31 799.875H1311.94L1309.06 792.438C1306.77 786.521 1304.17 779.208 1301.25 770.5H1301ZM1368.44 750.375V821.188H1407.56V834H1353.12V750.375H1368.44ZM1435.81 786.375L1458.06 750.375H1475.06L1443.38 800.312V834H1428.06V800.312L1396.38 750.375H1413.38L1435.62 786.375H1435.81ZM1520.56 834H1505.25V763.188H1478.25V750.375H1547.5V763.188H1520.56V834ZM1559.38 834V750.375H1574.69V834H1559.38ZM1635.44 761.75C1631.27 761.75 1627.42 762.438 1623.88 763.812C1620.38 765.188 1617.35 767.188 1614.81 769.812C1612.31 772.438 1610.35 775.688 1608.94 779.562C1607.52 783.396 1606.81 787.792 1606.81 792.75C1606.81 797.667 1607.46 802 1608.75 805.75C1610.04 809.458 1611.9 812.562 1614.31 815.062C1616.73 817.562 1619.67 819.458 1623.12 820.75C1626.62 822 1630.58 822.625 1635 822.625C1638.17 822.625 1641.4 822.375 1644.69 821.875C1647.98 821.375 1651.06 820.646 1653.94 819.688V832.875C1651.02 833.708 1647.88 834.354 1644.5 834.812C1641.12 835.312 1637.62 835.562 1634 835.562C1626.92 835.562 1620.69 834.562 1615.31 832.562C1609.94 830.521 1605.44 827.667 1601.81 824C1598.23 820.292 1595.52 815.875 1593.69 810.75C1591.9 805.583 1591 799.896 1591 793.688C1591 787.312 1591.96 781.396 1593.88 775.938C1595.83 770.479 1598.62 765.75 1602.25 761.75C1605.92 757.75 1610.48 754.604 1615.94 752.312C1621.44 750.021 1627.65 748.854 1634.56 748.812C1638.1 748.812 1641.46 749.062 1644.62 749.562C1647.79 750.021 1650.65 750.688 1653.19 751.562V764.562C1649.85 763.521 1646.75 762.792 1643.88 762.375C1641 761.958 1638.19 761.75 1635.44 761.75ZM1710.75 810C1710.75 807.875 1710.23 806.167 1709.19 804.875C1708.15 803.542 1706.73 802.458 1704.94 801.625C1703.15 800.792 1701.12 800.125 1698.88 799.625C1696.67 799.083 1694.33 798.562 1691.88 798.062C1688.62 797.354 1685.52 796.521 1682.56 795.562C1679.6 794.562 1677 793.208 1674.75 791.5C1672.5 789.75 1670.71 787.542 1669.38 784.875C1668.04 782.208 1667.38 778.875 1667.38 774.875C1667.38 770.458 1668.15 766.625 1669.69 763.375C1671.23 760.083 1673.31 757.375 1675.94 755.25C1678.6 753.083 1681.71 751.479 1685.25 750.438C1688.83 749.354 1692.85 748.812 1697.31 748.812C1701.77 748.812 1706.25 749.25 1710.75 750.125C1715.25 751 1719.12 752.125 1722.38 753.5V766.625C1718.04 764.917 1713.88 763.688 1709.88 762.938C1705.92 762.146 1702.19 761.75 1698.69 761.75C1693.65 761.75 1689.75 762.667 1687 764.5C1684.29 766.333 1682.94 769.083 1682.94 772.75C1682.94 774.875 1683.38 776.625 1684.25 778C1685.17 779.375 1686.4 780.521 1687.94 781.438C1689.48 782.312 1691.25 783.021 1693.25 783.562C1695.25 784.104 1697.38 784.604 1699.62 785.062C1703.17 785.812 1706.54 786.688 1709.75 787.688C1713 788.646 1715.88 790 1718.38 791.75C1720.88 793.5 1722.85 795.792 1724.31 798.625C1725.77 801.417 1726.5 805 1726.5 809.375C1726.5 813.875 1725.67 817.771 1724 821.062C1722.33 824.354 1719.96 827.083 1716.88 829.25C1713.83 831.375 1710.12 832.958 1705.75 834C1701.38 835.042 1696.58 835.562 1691.38 835.562C1686.83 835.562 1682.35 835.104 1677.94 834.188C1673.56 833.312 1669.92 832.062 1667 830.438V817.5C1671.12 819.292 1675.15 820.604 1679.06 821.438C1682.98 822.229 1687.02 822.625 1691.19 822.625C1693.6 822.625 1695.98 822.438 1698.31 822.062C1700.65 821.646 1702.73 820.958 1704.56 820C1706.44 819.042 1707.94 817.75 1709.06 816.125C1710.19 814.458 1710.75 812.417 1710.75 810ZM1793 801.625C1791.62 801.625 1790.27 801.604 1788.94 801.562C1787.6 801.521 1786.35 801.438 1785.19 801.312V834H1769.88V750.375H1794C1798.04 750.375 1801.56 750.562 1804.56 750.938C1807.6 751.271 1810.31 751.792 1812.69 752.5C1818.4 754.25 1822.79 757.042 1825.88 760.875C1828.96 764.708 1830.5 769.583 1830.5 775.5C1830.5 779.542 1829.67 783.188 1828 786.438C1826.33 789.646 1823.9 792.375 1820.69 794.625C1817.48 796.875 1813.56 798.604 1808.94 799.812C1804.31 801.021 1799 801.625 1793 801.625ZM1785.19 788.438C1786.06 788.562 1787.17 788.667 1788.5 788.75C1789.88 788.792 1791.29 788.812 1792.75 788.812C1796.88 788.812 1800.33 788.479 1803.12 787.812C1805.92 787.146 1808.17 786.229 1809.88 785.062C1811.58 783.854 1812.81 782.417 1813.56 780.75C1814.31 779.042 1814.69 777.188 1814.69 775.188C1814.69 772.729 1814.12 770.604 1813 768.812C1811.88 767.021 1809.92 765.625 1807.12 764.625C1805.67 764.125 1803.85 763.771 1801.69 763.562C1799.56 763.312 1796.94 763.188 1793.81 763.188H1785.19V788.438ZM1862.06 750.375V821.188H1901.19V834H1846.75V750.375H1862.06ZM1963.5 812.688H1932L1923.81 834H1907.5L1940.69 750.375H1954.69L1987.88 834H1971.69L1963.5 812.688ZM1947.62 770.5C1944.71 779.25 1942.1 786.562 1939.81 792.438L1936.94 799.875H1958.56L1955.69 792.438C1953.4 786.521 1950.79 779.208 1947.88 770.5H1947.62ZM2027.06 834H2011.75V763.188H1984.75V750.375H2054V763.188H2027.06V834ZM2081.19 834H2065.88V750.375H2119.12V763.188H2081.19V784.812H2113.62V797.625H2081.19V834ZM2194.56 792.188C2194.56 787.104 2193.94 782.667 2192.69 778.875C2191.44 775.042 2189.71 771.854 2187.5 769.312C2185.29 766.771 2182.67 764.875 2179.62 763.625C2176.58 762.375 2173.25 761.75 2169.62 761.75C2166 761.75 2162.67 762.375 2159.62 763.625C2156.58 764.875 2153.96 766.771 2151.75 769.312C2149.54 771.854 2147.81 775.042 2146.56 778.875C2145.31 782.667 2144.69 787.104 2144.69 792.188C2144.69 797.271 2145.31 801.729 2146.56 805.562C2147.81 809.354 2149.54 812.521 2151.75 815.062C2153.96 817.562 2156.58 819.458 2159.62 820.75C2162.67 822 2166 822.625 2169.62 822.625C2173.25 822.625 2176.58 822 2179.62 820.75C2182.67 819.458 2185.29 817.562 2187.5 815.062C2189.71 812.521 2191.44 809.354 2192.69 805.562C2193.94 801.729 2194.56 797.271 2194.56 792.188ZM2210.38 792.188C2210.38 798.562 2209.46 804.417 2207.62 809.75C2205.83 815.042 2203.19 819.604 2199.69 823.438C2196.23 827.271 2191.96 830.25 2186.88 832.375C2181.83 834.5 2176.08 835.562 2169.62 835.562C2163.17 835.562 2157.4 834.5 2152.31 832.375C2147.27 830.25 2143 827.271 2139.5 823.438C2136.04 819.604 2133.4 815.042 2131.56 809.75C2129.77 804.417 2128.88 798.562 2128.88 792.188C2128.88 785.812 2129.77 779.979 2131.56 774.688C2133.4 769.354 2136.04 764.771 2139.5 760.938C2143 757.104 2147.27 754.125 2152.31 752C2157.4 749.875 2163.17 748.812 2169.62 748.812C2176.08 748.812 2181.83 749.875 2186.88 752C2191.96 754.125 2196.23 757.104 2199.69 760.938C2203.19 764.771 2205.83 769.354 2207.62 774.688C2209.46 779.979 2210.38 785.812 2210.38 792.188ZM2288.5 775.5C2288.5 781.333 2286.88 786.292 2283.62 790.375C2280.42 794.417 2275.44 797.417 2268.69 799.375V799.625L2293.56 834H2275.19L2252.44 801.625H2241.94V834H2226.62V750.375H2252.06C2256.27 750.375 2260.19 750.625 2263.81 751.125C2267.44 751.583 2270.54 752.292 2273.12 753.25C2278.04 755.125 2281.83 757.917 2284.5 761.625C2287.17 765.292 2288.5 769.917 2288.5 775.5ZM2249.5 788.812C2253 788.812 2255.96 788.667 2258.38 788.375C2260.83 788.042 2262.9 787.562 2264.56 786.938C2267.65 785.771 2269.77 784.188 2270.94 782.188C2272.15 780.146 2272.75 777.812 2272.75 775.188C2272.75 772.938 2272.27 770.958 2271.31 769.25C2270.4 767.5 2268.81 766.125 2266.56 765.125C2265.1 764.458 2263.27 763.979 2261.06 763.688C2258.85 763.354 2256.12 763.188 2252.88 763.188H2241.94V788.812H2249.5ZM2350 811.562C2351.83 804.979 2354.1 797.917 2356.81 790.375L2371.25 750.375H2392.75V834H2377.44V791.625C2377.44 785.417 2377.69 778.208 2378.19 770H2377.62C2376.92 772.375 2376.08 775.042 2375.12 778C2374.17 780.958 2373.17 783.875 2372.12 786.75L2354.81 834H2344.94L2327.62 786.75C2326.58 783.875 2325.58 780.958 2324.62 778C2323.67 775.042 2322.83 772.375 2322.12 770H2321.56C2322.06 777.708 2322.31 784.896 2322.31 791.562V834H2307V750.375H2328.38L2342.81 790.188C2345.23 796.812 2347.5 803.938 2349.62 811.562H2350Z" fill="#797979"/>
<defs>
<filter id="filter0_d_1186_432" x="0" y="0" width="638.426" height="640" filterUnits="userSpaceOnUse" color-interpolation-filters="sRGB">
<feFlood flood-opacity="0" result="BackgroundImageFix"/>
<feColorMatrix in="SourceAlpha" type="matrix" values="0 0 0 0 0 0 0 0 0 0 0 0 0 0 0 0 0 0 127 0" result="hardAlpha"/>
<feOffset dy="4"/>
<feGaussianBlur stdDeviation="5"/>
<feComposite in2="hardAlpha" operator="out"/>
<feColorMatrix type="matrix" values="0 0 0 0 0 0 0 0 0 0 0 0 0 0 0 0 0 0 0.25 0"/>
<feBlend mode="normal" in2="BackgroundImageFix" result="effect1_dropShadow_1186_432"/>
<feBlend mode="normal" in="SourceGraphic" in2="effect1_dropShadow_1186_432" result="shape"/>
</filter>
<filter id="filter1_d_1186_432" x="719.258" y="110.123" width="1748.48" height="479.502" filterUnits="userSpaceOnUse" color-interpolation-filters="sRGB">
<feFlood flood-opacity="0" result="BackgroundImageFix"/>
<feColorMatrix in="SourceAlpha" type="matrix" values="0 0 0 0 0 0 0 0 0 0 0 0 0 0 0 0 0 0 127 0" result="hardAlpha"/>
<feOffset dy="4"/>
<feGaussianBlur stdDeviation="5"/>
<feComposite in2="hardAlpha" operator="out"/>
<feColorMatrix type="matrix" values="0 0 0 0 0 0 0 0 0 0 0 0 0 0 0 0 0 0 0.25 0"/>
<feBlend mode="normal" in2="BackgroundImageFix" result="effect1_dropShadow_1186_432"/>
<feBlend mode="normal" in="SourceGraphic" in2="effect1_dropShadow_1186_432" result="shape"/>
</filter>
</defs>
</svg>
