<svg width="906" height="906" viewBox="0 0 906 906" fill="none" xmlns="http://www.w3.org/2000/svg">
<circle cx="453" cy="453" r="453" fill="#30B349"/>
<path d="M154 664H213.7C230.118 664 243.55 650.575 243.55 634.167V365.667C243.55 349.258 230.118 335.833 213.7 335.833H154V664ZM745.925 451.587C749.209 444.128 751 436.073 751 427.72V395.5C751 362.683 724.135 335.833 691.3 335.833H527.125L554.587 197.108C556.08 190.545 555.184 183.385 552.199 177.418C545.334 163.993 536.677 151.762 525.931 141.022L512.2 127L320.862 318.232C309.519 329.568 303.25 344.783 303.25 360.595V594.488C303.25 632.675 334.593 664 373.099 664H615.183C636.078 664 655.779 652.962 666.525 635.062L745.925 451.587V451.587Z" fill="white"/>
</svg>
