<svg width="130" height="130" viewBox="0 0 130 130" fill="none" xmlns="http://www.w3.org/2000/svg">
<path d="M65 128.998C100.346 128.998 129 100.344 129 64.998C129 29.6518 100.346 0.998047 65 0.998047C29.6538 0.998047 1 29.6518 1 64.998C1 100.344 29.6538 128.998 65 128.998Z" fill="#FF9800"/>
<g opacity="0.3">
<path d="M85 47H63V83H85V47Z" fill="white"/>
</g>
<path d="M86.146 84.672H46.501C45.672 84.672 45.001 84 45.001 83.172V46.832C45.001 46.003 45.672 45.332 46.501 45.332H86.147C86.975 45.332 87.647 46.003 87.647 46.832V83.172C87.646 84 86.975 84.672 86.146 84.672ZM48.001 81.672H84.647V48.332H48.001V81.672Z" fill="white"/>
<path d="M63.0205 83.0258C62.1915 83.0258 61.5205 82.3538 61.5205 81.5258V47.5918C61.5205 46.7628 62.1915 46.0918 63.0205 46.0918C63.8495 46.0918 64.5205 46.7628 64.5205 47.5918V81.5268C64.5205 82.3548 63.8495 83.0258 63.0205 83.0258Z" fill="white"/>
<path d="M45.1783 66.8281H24.6973C23.8683 66.8281 23.1973 66.1561 23.1973 65.3281C23.1973 64.4991 23.8683 63.8281 24.6973 63.8281H45.1783C46.0073 63.8281 46.6783 64.4991 46.6783 65.3281C46.6783 66.1561 46.0073 66.8281 45.1783 66.8281Z" fill="white"/>
<path d="M24.0361 79.1613C23.2071 79.1613 22.5361 78.4893 22.5361 77.6613V53.6562C22.5361 52.8273 23.2071 52.1562 24.0361 52.1562C24.8651 52.1562 25.5361 52.8273 25.5361 53.6562V77.6613C25.5361 78.4893 24.8651 79.1613 24.0361 79.1613Z" fill="white"/>
<path d="M105.747 66.8281H86.1455C85.3175 66.8281 84.6455 66.1561 84.6455 65.3281C84.6455 64.4991 85.3175 63.8281 86.1455 63.8281H105.748C106.576 63.8281 107.248 64.4991 107.248 65.3281C107.247 66.1561 106.575 66.8281 105.747 66.8281Z" fill="white"/>
<path d="M105.964 79.1613C105.136 79.1613 104.464 78.4893 104.464 77.6613V53.6562C104.464 52.8273 105.136 52.1562 105.964 52.1562C106.792 52.1562 107.464 52.8273 107.464 53.6562V77.6613C107.464 78.4893 106.792 79.1613 105.964 79.1613Z" fill="white"/>
</svg>
