<svg width="130" height="130" viewBox="0 0 130 130" fill="none" xmlns="http://www.w3.org/2000/svg">
<path d="M65 129C100.346 129 129 100.346 129 65C129 29.6538 100.346 1 65 1C29.6538 1 1 29.6538 1 65C1 100.346 29.6538 129 65 129Z" fill="#FF9800"/>
<path d="M32.7587 51.5056C36.5987 51.5056 39.7117 48.3926 39.7117 44.5526C39.7117 40.7126 36.5987 37.5996 32.7587 37.5996C28.9186 37.5996 25.8057 40.7126 25.8057 44.5526C25.8057 48.3926 28.9186 51.5056 32.7587 51.5056Z" fill="white"/>
<path d="M32.7587 71.9568C36.5987 71.9568 39.7117 68.8438 39.7117 65.0038C39.7117 61.1637 36.5987 58.0508 32.7587 58.0508C28.9186 58.0508 25.8057 61.1637 25.8057 65.0038C25.8057 68.8438 28.9186 71.9568 32.7587 71.9568Z" fill="white"/>
<path d="M32.7587 92.408C36.5987 92.408 39.7117 89.295 39.7117 85.455C39.7117 81.6149 36.5987 78.502 32.7587 78.502C28.9186 78.502 25.8057 81.6149 25.8057 85.455C25.8057 89.295 28.9186 92.408 32.7587 92.408Z" fill="white"/>
<path d="M54.3007 51.5056C58.1407 51.5056 61.2537 48.3926 61.2537 44.5526C61.2537 40.7126 58.1407 37.5996 54.3007 37.5996C50.4606 37.5996 47.3477 40.7126 47.3477 44.5526C47.3477 48.3926 50.4606 51.5056 54.3007 51.5056Z" fill="white"/>
<path d="M54.3007 71.9568C58.1407 71.9568 61.2537 68.8438 61.2537 65.0038C61.2537 61.1637 58.1407 58.0508 54.3007 58.0508C50.4606 58.0508 47.3477 61.1637 47.3477 65.0038C47.3477 68.8438 50.4606 71.9568 54.3007 71.9568Z" fill="white"/>
<path d="M54.3007 92.408C58.1407 92.408 61.2537 89.295 61.2537 85.455C61.2537 81.6149 58.1407 78.502 54.3007 78.502C50.4606 78.502 47.3477 81.6149 47.3477 85.455C47.3477 89.295 50.4606 92.408 54.3007 92.408Z" fill="white"/>
<path d="M75.8436 51.5056C79.6837 51.5056 82.7966 48.3926 82.7966 44.5526C82.7966 40.7126 79.6837 37.5996 75.8436 37.5996C72.0036 37.5996 68.8906 40.7126 68.8906 44.5526C68.8906 48.3926 72.0036 51.5056 75.8436 51.5056Z" fill="white"/>
<path opacity="0.5" d="M75.8436 71.9568C79.6837 71.9568 82.7966 68.8438 82.7966 65.0038C82.7966 61.1637 79.6837 58.0508 75.8436 58.0508C72.0036 58.0508 68.8906 61.1637 68.8906 65.0038C68.8906 68.8438 72.0036 71.9568 75.8436 71.9568Z" fill="white"/>
<path opacity="0.5" d="M75.8436 92.408C79.6837 92.408 82.7966 89.295 82.7966 85.455C82.7966 81.6149 79.6837 78.502 75.8436 78.502C72.0036 78.502 68.8906 81.6149 68.8906 85.455C68.8906 89.295 72.0036 92.408 75.8436 92.408Z" fill="white"/>
<path d="M104.133 44.5517C104.133 48.2797 101.114 51.3007 97.3837 51.3007C93.6567 51.3007 90.6357 48.2797 90.6357 44.5517C90.6357 40.8237 93.6567 37.8027 97.3837 37.8027C101.114 37.8037 104.133 40.8237 104.133 44.5517Z" stroke="white"/>
<path d="M104.133 65.0029C104.133 68.7309 101.114 71.7519 97.3837 71.7519C93.6567 71.7519 90.6357 68.7309 90.6357 65.0029C90.6357 61.2739 93.6567 58.2539 97.3837 58.2539C101.114 58.2539 104.133 61.2749 104.133 65.0029Z" stroke="white"/>
<path d="M104.133 85.4551C104.133 89.1831 101.114 92.2041 97.3837 92.2041C93.6567 92.2041 90.6357 89.1831 90.6357 85.4551C90.6357 81.7261 93.6567 78.7051 97.3837 78.7051C101.114 78.7051 104.133 81.7261 104.133 85.4551Z" stroke="white"/>
</svg>
