<svg width="130" height="130" viewBox="0 0 130 130" fill="none" xmlns="http://www.w3.org/2000/svg">
<path d="M65 128.998C100.346 128.998 129 100.344 129 64.998C129 29.6518 100.346 0.998047 65 0.998047C29.6538 0.998047 1 29.6518 1 64.998C1 100.344 29.6538 128.998 65 128.998Z" fill="#FF9800"/>
<path d="M32.4316 60.5723H26.1816V82.2773H32.4316V60.5723Z" fill="white"/>
<path d="M41.3535 64.9121H35.1045V82.2751H41.3535V64.9121Z" fill="white"/>
<path d="M94.8955 60.5996H88.6455V82.2756H94.8955V60.5996Z" fill="white"/>
<path d="M103.816 66.0254H97.5684V82.2754H103.816V66.0254Z" fill="white"/>
<path d="M50.2773 54.0605H44.0273V82.2755H50.2773V54.0605Z" fill="white"/>
<path d="M85.9716 45.9902H79.7236V82.2752H85.9716V45.9902Z" fill="white"/>
<path d="M59.2012 34.3027H52.9512V82.2757H59.2012V34.3027Z" fill="white"/>
<path d="M77.0498 30.6855H70.7998V82.2755H77.0498V30.6855Z" fill="white"/>
<path d="M68.125 20.1113H61.875V82.2753H68.125V20.1113Z" fill="white"/>
<path d="M26.1816 94.5234H102.438" stroke="white" stroke-width="2" stroke-miterlimit="10"/>
<path d="M97.7988 100.249L96.8438 99.2238L101.9 94.5238L96.8438 89.8238L97.7988 88.7988L103.956 94.5238L97.7988 100.249Z" fill="white"/>
</svg>
