<svg width="130" height="130" viewBox="0 0 130 130" fill="none" xmlns="http://www.w3.org/2000/svg">
<path d="M65 129C100.346 129 129 100.346 129 65C129 29.6538 100.346 1 65 1C29.6538 1 1 29.6538 1 65C1 100.346 29.6538 129 65 129Z" fill="#FF9800"/>
<path d="M65 101.575C85.8609 101.575 102.772 84.6642 102.772 63.8033C102.772 42.9424 85.8609 26.0312 65 26.0312C44.1391 26.0312 27.228 42.9424 27.228 63.8033C27.228 84.6642 44.1391 101.575 65 101.575Z" fill="white"/>
<path d="M64.2319 66.0995V21.3105" stroke="#FF9800" stroke-width="4" stroke-linecap="round"/>
<path d="M64.2319 66.0996L94.6649 96.5346" stroke="#FF9800" stroke-width="4" stroke-linecap="round"/>
<path d="M64.2319 66.0993L89.8819 32.0293" stroke="#FF9800" stroke-width="4" stroke-linecap="round"/>
</svg>
