<svg width="130" height="130" viewBox="0 0 130 130" fill="none" xmlns="http://www.w3.org/2000/svg">
<path d="M65 128.998C100.346 128.998 129 100.344 129 64.998C129 29.6518 100.346 0.998047 65 0.998047C29.6538 0.998047 1 29.6518 1 64.998C1 100.344 29.6538 128.998 65 128.998Z" fill="#FF9800"/>
<path opacity="0.5" fill-rule="evenodd" clip-rule="evenodd" d="M80.1581 54.7824C80.0361 54.7824 80.0121 54.8684 79.9101 54.8904C79.9861 54.4594 79.2271 54.7644 78.9121 54.6724C78.6131 53.3384 78.6611 51.6934 77.5381 51.0774C77.9211 50.8284 78.5681 50.8124 78.6611 50.3164C79.6221 51.4004 80.0751 52.9294 80.1581 54.7824Z" fill="white"/>
<path opacity="0.3" fill-rule="evenodd" clip-rule="evenodd" d="M63.0631 54.8902C62.8591 56.1682 63.7651 57.0212 63.6861 57.8312C63.5381 57.8852 63.4041 57.9472 63.3111 58.0482C63.2361 58.0562 63.1631 58.0652 63.1881 58.1582C60.7931 59.2302 58.4431 60.3362 56.3221 61.6442C58.5341 60.9232 60.8701 59.3672 63.1881 58.3752C63.9541 59.2682 64.8301 60.0652 65.9321 60.6642C63.7761 63.9752 61.5261 67.2042 59.4431 70.5772C61.4911 68.2642 63.0341 65.5072 64.6831 62.8432C66.0341 63.5912 67.6101 64.1402 69.8021 64.1502C69.9591 67.1012 69.4811 70.6042 70.0521 73.1932C65.6141 73.1452 62.2181 72.1882 59.4431 70.6892C59.0681 71.0162 58.7021 71.3482 58.6951 71.9972C55.0281 70.3282 52.4221 67.7372 50.2061 64.8072C52.0141 64.0662 54.2171 62.8042 56.1991 61.8642C54.8941 59.9912 54.1141 57.6552 53.9501 54.7832C56.7491 55.0262 60.0591 54.8252 63.0631 54.8902Z" fill="white"/>
<path fill-rule="evenodd" clip-rule="evenodd" d="M66.8081 54.8912C67.3091 54.7082 68.6751 54.7082 69.1751 54.8912C68.3871 54.8912 67.5971 54.8912 66.8081 54.8912Z" fill="white"/>
<path opacity="0.5" fill-rule="evenodd" clip-rule="evenodd" d="M83.281 54.7832C83.404 54.7832 83.5311 54.7832 83.6541 54.7832C83.5711 57.2542 82.834 59.1512 81.782 60.7732C81.696 60.7692 81.646 60.7582 81.656 60.6652C81.811 59.2702 83.8 57.3202 83.281 54.7832Z" fill="white"/>
<path fill-rule="evenodd" clip-rule="evenodd" d="M63.812 54.891C63.453 55.044 63.178 54.594 63.063 54.891C60.059 54.826 56.749 55.027 53.95 54.783C54.114 57.655 54.894 59.991 56.199 61.864C54.217 62.804 52.014 64.066 50.206 64.807C52.422 67.738 55.028 70.328 58.695 71.997C58.702 71.349 59.068 71.017 59.443 70.689C62.217 72.188 65.614 73.145 70.052 73.193C69.481 70.604 69.959 67.101 69.802 64.15C70.333 64.195 69.92 65.064 70.052 65.458C69.864 65.746 70.352 66.071 69.925 66.44C72.809 66.483 74.796 65.751 76.666 64.913C76.706 64.913 76.75 64.913 76.79 64.913C78.057 66.642 79.081 68.579 80.41 70.252C83.701 68.914 85.853 66.582 87.775 64.042C86.032 62.728 83.565 62.048 81.782 60.772C82.834 59.149 83.571 57.252 83.654 54.782C83.531 54.782 83.404 54.782 83.281 54.782C81.855 54.966 81.42 55.063 80.158 54.782C80.075 52.929 79.622 51.4 78.661 50.317C78.568 50.813 77.921 50.829 77.538 51.078C76.987 51.394 76.423 51.702 75.792 51.949C75.296 50.93 74.286 50.361 73.421 49.661C72.927 49.712 73.573 50.131 73.045 50.206C72.236 49.992 70.857 49.156 69.925 49.772C70.006 45.083 69.762 39.169 70.052 34.301C74.702 34.415 78.337 35.42 81.411 36.915C82.676 35.733 83.454 34.211 84.402 32.777C85.338 31.359 86.369 29.929 87.151 28.418C92.566 31.132 96.849 34.839 100.002 39.53C100.413 39.919 99.448 39.769 99.506 40.185C101.902 44.158 103.998 48.97 103.749 54.891C101.501 54.891 99.256 54.891 97.008 54.891C96.773 59.515 95.445 63.187 93.516 66.329C95.649 67.846 98.321 68.891 100.753 70.143C97.566 74.914 93.119 78.587 87.898 81.582C89.754 84.974 92.219 87.833 94.012 91.279C87.522 94.397 80.078 96.689 70.176 96.834C69.885 100.428 70.132 104.495 70.052 108.272C57.244 108.16 47.678 105.215 39.349 101.192C40.058 99.415 41.431 98.215 42.22 96.506C40.429 95.049 38.248 94.112 36.354 92.802C30.808 88.96 25.951 84.25 22.25 78.641C26.017 76.809 29.837 75.022 33.357 72.979C31.022 69.345 29.272 64.869 28.365 59.686C28.087 58.088 27.555 56.169 28.49 54.674C39.942 54.817 52.934 54.386 63.812 54.891Z" fill="white"/>
<path fill-rule="evenodd" clip-rule="evenodd" d="M69.925 51.0788C70.21 51.1958 69.975 51.7638 70.052 52.0578C69.339 52.0538 68.749 52.1578 68.429 52.4938C68.1 52.3438 67.887 52.0958 67.927 51.6248C67.157 51.8938 66.617 52.3648 66.308 53.0388C66.01 52.9708 65.725 52.8928 65.684 52.6018C65.258 52.5228 65.48 53.0048 65.184 53.0388C65.162 52.7568 65.536 52.2668 65.809 52.6018C66.31 51.9888 66.802 51.3648 67.681 51.0778C67.66 51.3508 67.872 51.4178 68.055 51.5128C68.606 51.3078 69.088 51.0358 69.925 51.0788Z" fill="white"/>
<path fill-rule="evenodd" clip-rule="evenodd" d="M65.0591 54.7838C66.2241 54.5298 67.9271 54.7468 69.3021 54.6738C68.4901 54.0418 67.3811 53.6658 66.4331 53.1498C67.5081 53.1158 68.4901 54.1098 69.5511 54.4558C69.2241 53.7968 68.6991 53.3098 68.4291 52.6028C69.1381 52.8558 69.2241 53.6508 69.6761 54.1278C69.9661 53.7288 69.7211 52.8588 69.8021 52.2758C70.3561 52.4838 69.9061 53.5648 70.0521 54.1278C71.1191 53.4248 71.7081 51.3628 72.9211 50.4238C72.1551 51.7868 71.2531 53.0358 70.4261 54.3458C72.2971 53.6558 73.7001 52.5558 75.6661 51.9488C74.3141 53.0208 71.8301 53.6838 70.8001 54.6728C70.8431 54.8168 71.0191 54.8438 71.0491 55.0018C70.9651 55.0018 70.8831 55.0018 70.8001 55.0018C71.1291 55.4018 71.8711 55.4468 72.1741 55.8728C72.1991 55.9588 72.2971 55.9788 72.2971 56.0908C71.6431 55.9718 71.4751 55.4268 70.6751 55.4348C71.1801 56.5218 72.2881 58.0218 73.0451 59.2498C72.9241 59.2508 72.9491 59.3818 72.9211 59.4658C71.9731 58.1818 70.9751 56.5048 70.1761 55.4348C69.8851 58.0498 70.1321 61.1398 70.0521 63.9338C68.9491 62.3358 70.6381 57.6948 69.8021 55.7628C69.7191 55.5688 69.5711 55.7488 69.4291 55.7628C69.5891 55.5898 69.5931 55.3258 69.3021 55.5468C68.6851 55.2268 68.2681 56.0198 67.6811 56.0918C67.6241 55.8168 68.5111 55.8138 68.1811 55.6548C68.4011 55.3018 69.0361 55.3148 69.1751 54.8918C68.6751 54.7088 67.3091 54.7088 66.8081 54.8918C66.3811 55.0998 65.5171 54.8998 65.0591 54.7838Z" fill="white"/>
<path opacity="0.5" fill-rule="evenodd" clip-rule="evenodd" d="M69.9252 49.7713C70.8582 49.1553 72.2372 49.9913 73.0452 50.2053C73.5732 50.1303 72.9272 49.7113 73.4212 49.6603C74.2862 50.3603 75.2962 50.9303 75.7922 51.9483C75.7502 51.9483 75.7092 51.9483 75.6662 51.9483C73.7002 52.5553 72.2972 53.6553 70.4262 54.3453C71.2532 53.0353 72.1552 51.7863 72.9212 50.4233C71.7082 51.3623 71.1192 53.4243 70.0522 54.1273C69.9062 53.5653 70.3562 52.4833 69.8022 52.2753C69.7212 52.8583 69.9662 53.7273 69.6762 54.1273C69.2242 53.6503 69.1382 52.8553 68.4292 52.6023C68.7002 53.3093 69.2242 53.7953 69.5512 54.4553C68.4892 54.1093 67.5082 53.1153 66.4332 53.1493C67.3812 53.6653 68.4902 54.0413 69.3022 54.6733C67.9272 54.7463 66.2242 54.5293 65.0592 54.7833C64.9762 54.7833 64.8932 54.7833 64.8092 54.7833C64.7352 54.0263 65.0422 53.6043 65.1842 53.0393C65.4802 53.0053 65.2582 52.5233 65.6842 52.6023C65.7252 52.8923 66.0102 52.9713 66.3082 53.0393C66.6182 52.3653 67.1582 51.8943 67.9272 51.6253C67.8872 52.0963 68.1002 52.3443 68.4292 52.4943C68.7492 52.1583 69.3392 52.0543 70.0522 52.0583C69.9752 51.7643 70.2102 51.1963 69.9252 51.0793C69.9252 50.6413 69.9252 50.2053 69.9252 49.7713Z" fill="white"/>
<path fill-rule="evenodd" clip-rule="evenodd" d="M65.9319 60.666C66.0969 61.464 65.1429 62.227 64.6829 62.844C63.0349 65.508 61.4919 68.265 59.4429 70.578C61.5259 67.205 63.7749 63.976 65.9319 60.666Z" fill="white"/>
<path fill-rule="evenodd" clip-rule="evenodd" d="M65.5591 56.9623C66.3241 56.4293 67.2511 56.0403 68.1811 55.6543C68.5111 55.8133 67.6241 55.8163 67.6811 56.0913C67.0211 56.4213 66.3641 56.7563 65.6841 57.0703C65.5791 57.0903 65.5651 57.0273 65.5591 56.9623Z" fill="white"/>
<path fill-rule="evenodd" clip-rule="evenodd" d="M65.559 56.9629C65.566 57.0279 65.58 57.0909 65.684 57.0699C65.144 57.3269 64.692 57.6569 64.061 57.8329C64.337 57.3469 64.9 57.1119 65.559 56.9629Z" fill="white"/>
<path fill-rule="evenodd" clip-rule="evenodd" d="M67.4311 58.4863C67.4701 58.4863 67.5141 58.4863 67.5541 58.4863C67.6041 58.8563 67.3391 58.9513 67.1811 59.1383C67.0181 59.1773 66.9841 59.3313 66.8081 59.3573C67.0041 59.0563 67.1021 58.6683 67.4311 58.4863Z" fill="white"/>
<path opacity="0.25" fill-rule="evenodd" clip-rule="evenodd" d="M75.7922 51.9491C76.4232 51.7021 76.9872 51.3951 77.5382 51.0781C78.6612 51.6941 78.6132 53.3381 78.9122 54.6731C78.9122 54.7471 78.9122 54.8191 78.9122 54.8911C79.1462 54.9171 79.7402 55.1741 79.9102 54.8911C80.0122 54.8701 80.0362 54.7831 80.1582 54.7831C81.4202 55.0641 81.8552 54.9671 83.2812 54.7831C83.8002 57.3201 81.8102 59.2691 81.6562 60.6651C81.6462 60.7581 81.6962 60.7691 81.7822 60.7731C83.5652 62.0491 86.0322 62.7291 87.7752 64.0431C85.8532 66.5831 83.7012 68.9151 80.4102 70.2531C79.0812 68.5791 78.0562 66.6431 76.7902 64.9141C76.7502 64.9141 76.7062 64.9141 76.6662 64.9141C76.5212 64.6881 76.7232 64.5051 76.2892 64.3701C76.4722 64.1301 76.9612 64.1541 77.0402 63.8261C75.5202 64.4991 72.6582 66.0991 70.0522 65.4591C69.9202 65.0651 70.3332 64.1961 69.8022 64.1511C67.6102 64.1421 66.0332 63.5921 64.6832 62.8441C65.1432 62.2271 66.0972 61.4641 65.9322 60.6661C64.8302 60.0671 63.9542 59.2701 63.1882 58.3771C63.1882 58.3051 63.1882 58.2341 63.1882 58.1601C63.1632 58.0671 63.2362 58.0581 63.3112 58.0501C63.4172 58.3711 63.6252 57.9081 63.9362 58.0501C63.9812 57.8671 63.8382 57.8461 63.6862 57.8331C63.7652 57.0221 62.8592 56.1701 63.0632 54.8921C63.1772 54.5951 63.4522 55.0451 63.8122 54.8921C64.1702 54.8811 64.6272 54.9521 64.8082 54.7841C64.8932 54.7841 64.9752 54.7841 65.0582 54.7841C65.5162 54.9001 66.3802 55.1001 66.8072 54.8921C67.5962 54.8921 68.3862 54.8921 69.1742 54.8921C69.0352 55.3151 68.4002 55.3021 68.1802 55.6551C67.2502 56.0411 66.3232 56.4301 65.5582 56.9631C64.8992 57.1121 64.3362 57.3471 64.0602 57.8341C64.6912 57.6581 65.1432 57.3281 65.6832 57.0711C66.3632 56.7581 67.0202 56.4231 67.6802 56.0921C68.2672 56.0201 68.6842 55.2271 69.3012 55.5471C68.7392 56.5811 67.9582 57.4241 67.4302 58.4881C67.1012 58.6711 67.0032 59.0581 66.8072 59.3591C66.5352 59.7391 66.2512 60.1121 66.0562 60.5591C66.5032 60.5561 66.8942 59.6391 67.1802 59.1401C67.3382 58.9531 67.6032 58.8581 67.5532 58.4881C68.3162 57.7001 68.8722 56.7331 69.4282 55.7631C69.5702 55.7491 69.7182 55.5691 69.8012 55.7631C70.6372 57.6961 68.9482 62.3361 70.0512 63.9341C70.1312 61.1411 69.8842 58.0511 70.1752 55.4351C70.9742 56.5051 71.9722 58.1821 72.9202 59.4661C73.6572 60.4781 73.9732 61.4391 74.7912 62.1931C74.8472 62.4691 74.9682 62.6921 75.1692 62.8441C75.4422 63.2591 75.6342 63.7441 76.0392 64.0431C76.2142 63.6351 75.5112 63.0561 75.2912 62.6261C75.2142 62.3301 75.0442 62.1171 74.7912 61.9731C74.4772 61.1821 73.5802 60.1871 73.0442 59.2501C72.2872 58.0221 71.1792 56.5211 70.6742 55.4351C71.4742 55.4281 71.6422 55.9731 72.2962 56.0911C73.0542 56.4471 73.7182 56.8861 74.5442 57.1811C76.5322 58.2391 78.5102 59.3101 80.6572 60.2281C79.8032 61.6651 78.4132 62.6261 77.1632 63.7151C78.7172 63.0021 79.7392 61.8231 80.6572 60.5571C80.9212 60.3191 81.0122 60.6111 81.4102 60.5571C81.2932 60.3641 81.1742 60.1781 80.7852 60.2271C78.9312 59.0131 76.7142 58.1151 74.6682 57.0681C73.8812 56.6311 73.1332 56.1571 72.1732 55.8711C71.8702 55.4451 71.1282 55.4001 70.7992 55.0001C70.8822 55.0001 70.9642 55.0001 71.0482 55.0001C73.3592 54.7651 76.1512 54.9461 78.6602 54.8891C76.5322 54.3891 73.3442 54.8121 70.7992 54.6711C71.8292 53.6821 74.3142 53.0191 75.6652 51.9471C75.7092 51.9491 75.7502 51.9491 75.7922 51.9491Z" fill="white"/>
<path fill-rule="evenodd" clip-rule="evenodd" d="M75.292 62.625C75.512 63.055 76.215 63.633 76.04 64.042C75.635 63.743 75.443 63.257 75.17 62.843C75.146 62.716 75.196 62.648 75.292 62.625Z" fill="white"/>
<path fill-rule="evenodd" clip-rule="evenodd" d="M74.792 61.9727C75.045 62.1167 75.215 62.3297 75.292 62.6257C75.196 62.6487 75.146 62.7167 75.17 62.8427C74.969 62.6907 74.848 62.4677 74.792 62.1917C74.974 62.1417 74.78 62.0947 74.792 61.9727Z" fill="#68DAFF"/>
<path fill-rule="evenodd" clip-rule="evenodd" d="M73.0449 59.25C73.5809 60.188 74.4779 61.183 74.7919 61.973C74.7799 62.095 74.9739 62.141 74.7919 62.193C73.9739 61.439 73.6579 60.478 72.9209 59.466C72.9489 59.382 72.9239 59.251 73.0449 59.25Z" fill="white"/>
<path fill-rule="evenodd" clip-rule="evenodd" d="M74.5448 57.181C73.7188 56.886 73.0548 56.448 72.2968 56.091C72.2968 55.979 72.1988 55.959 72.1738 55.873C73.1338 56.159 73.8818 56.633 74.6688 57.07C74.5628 57.049 74.5518 57.111 74.5448 57.181Z" fill="white"/>
<path fill-rule="evenodd" clip-rule="evenodd" d="M74.6689 57.0683C76.7149 58.1153 78.9329 59.0123 80.7859 60.2273C80.7419 60.2273 80.6999 60.2273 80.6579 60.2273C78.5109 59.3093 76.5329 58.2373 74.5449 57.1803C74.5519 57.1103 74.5629 57.0483 74.6689 57.0683Z" fill="white"/>
<path opacity="0.5" fill-rule="evenodd" clip-rule="evenodd" d="M80.6581 60.2289C80.7001 60.2289 80.7421 60.2289 80.7861 60.2289C81.1751 60.1789 81.2941 60.3649 81.4111 60.5589C81.0141 60.6129 80.9221 60.3209 80.6581 60.5589C79.7401 61.8249 78.7181 63.0029 77.1641 63.7169C78.4141 62.6269 79.8041 61.6659 80.6581 60.2289Z" fill="white"/>
<path fill-rule="evenodd" clip-rule="evenodd" d="M70.7998 54.6732C73.3448 54.8142 76.5328 54.3902 78.6608 54.8912C76.1508 54.9482 73.3588 54.7672 71.0488 55.0022C71.0188 54.8442 70.8428 54.8172 70.7998 54.6732Z" fill="white"/>
<path fill-rule="evenodd" clip-rule="evenodd" d="M63.1878 58.1602C63.1878 58.2352 63.1878 58.3052 63.1878 58.3772C60.8698 59.3692 58.5348 60.9252 56.3218 61.6462C58.4428 60.3382 60.7928 59.2312 63.1878 58.1602Z" fill="white"/>
<path fill-rule="evenodd" clip-rule="evenodd" d="M69.3022 55.5452C69.5932 55.3242 69.5892 55.5882 69.4292 55.7612C68.8732 56.7312 68.3172 57.6992 67.5542 58.4862C67.5142 58.4862 67.4702 58.4862 67.4312 58.4862C67.9592 57.4222 68.7402 56.5792 69.3022 55.5452Z" fill="white"/>
<path fill-rule="evenodd" clip-rule="evenodd" d="M66.8081 59.3577C66.9841 59.3317 67.0181 59.1777 67.1811 59.1387C66.8951 59.6377 66.5041 60.5547 66.0571 60.5577C66.2521 60.1107 66.5351 59.7377 66.8081 59.3577Z" fill="white"/>
<path opacity="0.5" fill-rule="evenodd" clip-rule="evenodd" d="M70.0518 65.4572C72.6578 66.0972 75.5208 64.4972 77.0398 63.8242C76.9608 64.1532 76.4718 64.1282 76.2888 64.3682C76.7228 64.5032 76.5208 64.6862 76.6658 64.9122C74.7958 65.7502 72.8088 66.4822 69.9248 66.4392C70.3518 66.0702 69.8638 65.7462 70.0518 65.4572Z" fill="white"/>
<path fill-rule="evenodd" clip-rule="evenodd" d="M79.9101 54.8903C79.7401 55.1733 79.1461 54.9163 78.9121 54.8903C78.9121 54.8183 78.9121 54.7463 78.9121 54.6723C79.2281 54.7643 79.9861 54.4593 79.9101 54.8903Z" fill="white"/>
<path fill-rule="evenodd" clip-rule="evenodd" d="M63.687 57.832C63.839 57.846 63.982 57.866 63.937 58.049C63.626 57.907 63.418 58.37 63.312 58.049C63.404 57.947 63.539 57.885 63.687 57.832Z" fill="white"/>
<path d="M69.8121 54.9141L32.5151 72.9811" stroke="#FF9800" stroke-width="0.5"/>
<path d="M41.5488 96.854L70.0228 54.916" stroke="#FF9800" stroke-width="0.5"/>
<path d="M69.812 54.9141L70.393 100.881" stroke="#FF9800" stroke-width="0.5"/>
<path d="M69.5659 54.7324L90.1709 84.5834" stroke="#FF9800" stroke-width="0.5"/>
<path d="M69.5659 54.7324L95.6639 67.1854" stroke="#FF9800" stroke-width="0.5"/>
<path d="M69.812 54.9141L98.135 55.0971" stroke="#FF9800" stroke-width="0.5"/>
<path d="M69.9351 55.2826L101.34 39.3496" stroke="#FF9800" stroke-width="0.5"/>
<path d="M70.0229 54.9167L82.7529 34.6797" stroke="#FF9800" stroke-width="0.5"/>
<path d="M70.0231 54.9166L64.8071 52.3516" stroke="#FF9800" stroke-width="0.5"/>
<path d="M70.023 54.9155L67.187 50.5195" stroke="#FF9800" stroke-width="0.5"/>
</svg>
