<svg width="130" height="130" viewBox="0 0 130 130" fill="none" xmlns="http://www.w3.org/2000/svg">
<path d="M65 128.998C100.346 128.998 129 100.344 129 64.998C129 29.6518 100.346 0.998047 65 0.998047C29.6538 0.998047 1 29.6518 1 64.998C1 100.344 29.6538 128.998 65 128.998Z" fill="#FF9800"/>
<path d="M44.0013 86.2438C45.1246 86.2438 46.0353 85.3331 46.0353 84.2098C46.0353 83.0864 45.1246 82.1758 44.0013 82.1758C42.8779 82.1758 41.9673 83.0864 41.9673 84.2098C41.9673 85.3331 42.8779 86.2438 44.0013 86.2438Z" fill="white"/>
<path d="M48.119 76.6364C49.2423 76.6364 50.153 75.7257 50.153 74.6024C50.153 73.479 49.2423 72.5684 48.119 72.5684C46.9956 72.5684 46.085 73.479 46.085 74.6024C46.085 75.7257 46.9956 76.6364 48.119 76.6364Z" fill="white"/>
<path d="M58.931 87.2614C60.0543 87.2614 60.965 86.3507 60.965 85.2274C60.965 84.104 60.0543 83.1934 58.931 83.1934C57.8076 83.1934 56.897 84.104 56.897 85.2274C56.897 86.3507 57.8076 87.2614 58.931 87.2614Z" fill="white"/>
<path d="M61.2191 70.6364C62.3424 70.6364 63.2531 69.7257 63.2531 68.6024C63.2531 67.479 62.3424 66.5684 61.2191 66.5684C60.0957 66.5684 59.1851 67.479 59.1851 68.6024C59.1851 69.7257 60.0957 70.6364 61.2191 70.6364Z" fill="white"/>
<path d="M69.1512 78.109C70.274 78.109 71.1842 77.1988 71.1842 76.076C71.1842 74.9532 70.274 74.043 69.1512 74.043C68.0284 74.043 67.1182 74.9532 67.1182 76.076C67.1182 77.1988 68.0284 78.109 69.1512 78.109Z" fill="white"/>
<path d="M91.775 82.6316C91.775 83.7556 90.863 84.6676 89.741 84.6676C88.617 84.6676 87.708 83.7556 87.708 82.6316C87.708 81.5106 88.617 80.5996 89.741 80.5996C90.863 80.5996 91.775 81.5106 91.775 82.6316Z" fill="white"/>
<path d="M69.4559 58.4332C70.5792 58.4332 71.4899 57.5226 71.4899 56.3992C71.4899 55.2759 70.5792 54.3652 69.4559 54.3652C68.3325 54.3652 67.4219 55.2759 67.4219 56.3992C67.4219 57.5226 68.3325 58.4332 69.4559 58.4332Z" fill="white"/>
<path d="M55.575 54.0114C56.6984 54.0114 57.609 53.1007 57.609 51.9774C57.609 50.854 56.6984 49.9434 55.575 49.9434C54.4517 49.9434 53.541 50.854 53.541 51.9774C53.541 53.1007 54.4517 54.0114 55.575 54.0114Z" fill="white"/>
<path d="M77.388 65.9078C78.5114 65.9078 79.422 64.9972 79.422 63.8738C79.422 62.7505 78.5114 61.8398 77.388 61.8398C76.2647 61.8398 75.354 62.7505 75.354 63.8738C75.354 64.9972 76.2647 65.9078 77.388 65.9078Z" fill="white"/>
<path d="M70.3709 65.6032C71.4943 65.6032 72.4049 64.6925 72.4049 63.5692C72.4049 62.4458 71.4943 61.5352 70.3709 61.5352C69.2476 61.5352 68.3369 62.4458 68.3369 63.5692C68.3369 64.6925 69.2476 65.6032 70.3709 65.6032Z" fill="white"/>
<path d="M54.5081 65.9078C55.6315 65.9078 56.5421 64.9972 56.5421 63.8738C56.5421 62.7505 55.6315 61.8398 54.5081 61.8398C53.3848 61.8398 52.4741 62.7505 52.4741 63.8738C52.4741 64.9972 53.3848 65.9078 54.5081 65.9078Z" fill="white"/>
<path d="M60.303 78.2614C61.4264 78.2614 62.337 77.3507 62.337 76.2274C62.337 75.104 61.4264 74.1934 60.303 74.1934C59.1797 74.1934 58.269 75.104 58.269 76.2274C58.269 77.3507 59.1797 78.2614 60.303 78.2614Z" fill="white"/>
<path d="M82.7239 45.0133C83.8473 45.0133 84.7579 44.1027 84.7579 42.9793C84.7579 41.856 83.8473 40.9453 82.7239 40.9453C81.6006 40.9453 80.6899 41.856 80.6899 42.9793C80.6899 44.1027 81.6006 45.0133 82.7239 45.0133Z" fill="white"/>
<path d="M89.1312 56.4508C90.2545 56.4508 91.1652 55.5402 91.1652 54.4168C91.1652 53.2935 90.2545 52.3828 89.1312 52.3828C88.0078 52.3828 87.0972 53.2935 87.0972 54.4168C87.0972 55.5402 88.0078 56.4508 89.1312 56.4508Z" fill="white"/>
<path d="M79.0643 54.1637C80.1876 54.1637 81.0983 53.2531 81.0983 52.1297C81.0983 51.0064 80.1876 50.0957 79.0643 50.0957C77.9409 50.0957 77.0303 51.0064 77.0303 52.1297C77.0303 53.2531 77.9409 54.1637 79.0643 54.1637Z" fill="white"/>
<path d="M94.47 46.0797C95.5934 46.0797 96.504 45.1691 96.504 44.0457C96.504 42.9224 95.5934 42.0117 94.47 42.0117C93.3467 42.0117 92.436 42.9224 92.436 44.0457C92.436 45.1691 93.3467 46.0797 94.47 46.0797Z" fill="white"/>
<path d="M89.888 37.9977C91.0114 37.9977 91.922 37.087 91.922 35.9637C91.922 34.8403 91.0114 33.9297 89.888 33.9297C88.7647 33.9297 87.854 34.8403 87.854 35.9637C87.854 37.087 88.7647 37.9977 89.888 37.9977Z" fill="white"/>
<path d="M31.4771 32.6055V96.0575H99.8081" stroke="white" stroke-width="3" stroke-linecap="round"/>
</svg>
