<svg width="130" height="130" viewBox="0 0 130 130" fill="none" xmlns="http://www.w3.org/2000/svg">
<path d="M65 128.998C100.346 128.998 129 100.344 129 64.998C129 29.6518 100.346 0.998047 65 0.998047C29.6538 0.998047 1 29.6518 1 64.998C1 100.344 29.6538 128.998 65 128.998Z" fill="#FF9800"/>
<path d="M50.1372 43.1797H22.5352V59.6667H50.1372V43.1797Z" fill="white"/>
<path d="M80.581 43.1797H70.23V59.6497H80.581V43.1797Z" fill="white"/>
<path d="M70.026 43.7305H50.543V59.1085H70.026V43.7305Z" fill="#FF9800" stroke="white"/>
<path d="M107.167 43.7305H80.1724V59.1085H107.167V43.7305Z" stroke="white"/>
<path d="M80.2812 48.565L84.1872 43.791" stroke="white"/>
<path d="M80.1802 52.9065L87.6882 43.7285" stroke="white"/>
<path d="M80.1802 57.249L91.0892 43.916" stroke="white"/>
<path d="M82.6152 58.8605L94.8952 43.8535" stroke="white"/>
<path d="M86.3711 58.8605L98.6501 43.8535" stroke="white"/>
<path d="M90.022 58.8605L102.302 43.8535" stroke="white"/>
<path d="M93.8789 58.8605L106.158 43.8535" stroke="white"/>
<path d="M97.7334 59.2322L107.172 47.6992" stroke="white"/>
<path d="M102.3 58.8607L107.425 52.5977" stroke="white"/>
<path d="M38.5692 70.3281H22.5352V86.8331H38.5692V70.3281Z" fill="white"/>
<path d="M94.2803 70.3281H61.4023V86.8151H94.2803V70.3281Z" fill="white"/>
<path d="M61.8071 70.8926H38.9751V86.2676H61.8071V70.8926Z" fill="#FF9800" stroke="white"/>
<path d="M107.167 70.8926H80.1724V86.2676H107.167V70.8926Z" stroke="white"/>
<path d="M80.2812 75.7261L84.1872 70.9531" stroke="white"/>
<path d="M80.1802 80.0657L87.6882 70.8867" stroke="white"/>
<path d="M80.1802 84.4072L91.0892 71.0742" stroke="white"/>
<path d="M82.6152 86.0216L94.8952 71.0156" stroke="white"/>
<path d="M86.3711 86.0216L98.6501 71.0156" stroke="white"/>
<path d="M90.022 86.0216L102.302 71.0156" stroke="white"/>
<path d="M93.8789 86.0216L106.158 71.0156" stroke="white"/>
<path d="M97.7334 86.3934L107.172 74.8594" stroke="white"/>
<path d="M102.3 86.0208L107.425 79.7578" stroke="white"/>
</svg>
