<svg width="130" height="130" viewBox="0 0 130 130" fill="none" xmlns="http://www.w3.org/2000/svg">
<path d="M65 128.998C100.346 128.998 129 100.344 129 64.998C129 29.6518 100.346 0.998047 65 0.998047C29.6538 0.998047 1 29.6518 1 64.998C1 100.344 29.6538 128.998 65 128.998Z" fill="#FF9800"/>
<path opacity="0.4" fill-rule="evenodd" clip-rule="evenodd" d="M101.657 45.8053C101.775 45.6013 102.465 45.6013 102.584 45.8053C102.276 45.8053 101.966 45.8053 101.657 45.8053Z" fill="white"/>
<path fill-rule="evenodd" clip-rule="evenodd" d="M40.043 58.3125C40.352 58.3125 40.661 58.3125 40.968 58.3125C40.851 58.5165 40.16 58.5165 40.043 58.3125Z" fill="white"/>
<path opacity="0.4" fill-rule="evenodd" clip-rule="evenodd" d="M25.9019 59.1725C26.1579 58.9685 26.9939 58.9685 27.2499 59.1725C26.7989 59.1725 26.3509 59.1725 25.9019 59.1725Z" fill="white"/>
<path fill-rule="evenodd" clip-rule="evenodd" d="M97.1128 59.4176C97.2558 59.1366 97.7538 59.3726 98.0388 59.2946C97.8948 59.5756 97.3958 59.3396 97.1128 59.4176Z" fill="white"/>
<path fill-rule="evenodd" clip-rule="evenodd" d="M37.1812 60.0296C37.4362 59.7456 38.0492 59.9866 38.4432 59.9076C38.1892 60.1896 37.5762 59.9506 37.1812 60.0296Z" fill="white"/>
<path fill-rule="evenodd" clip-rule="evenodd" d="M40.21 60.029C40.383 59.747 40.909 59.985 41.222 59.907C41.051 60.188 40.523 59.951 40.21 60.029Z" fill="white"/>
<path fill-rule="evenodd" clip-rule="evenodd" d="M103.34 60.1534C103.34 60.1114 103.34 60.0704 103.34 60.0304C103.103 59.9294 103.123 60.2034 102.92 60.1534C101.747 59.9094 103.931 59.6594 103.677 60.1534C103.565 60.1534 103.452 60.1534 103.34 60.1534Z" fill="white"/>
<path fill-rule="evenodd" clip-rule="evenodd" d="M38.6118 60.1529C38.9498 59.8679 39.6488 60.1109 40.1258 60.0299C39.7888 60.3139 39.0898 60.0719 38.6118 60.1529Z" fill="white"/>
<path opacity="0.4" fill-rule="evenodd" clip-rule="evenodd" d="M61.5898 60.7648C61.7898 60.5628 62.5698 60.5628 62.7688 60.7648C62.3778 60.7648 61.9848 60.7648 61.5898 60.7648Z" fill="white"/>
<path fill-rule="evenodd" clip-rule="evenodd" d="M61.4229 60.7656C61.4789 60.7656 61.5349 60.7656 61.5899 60.7656C61.9849 60.7656 62.3779 60.7656 62.7689 60.7656C62.8249 60.7656 62.8799 60.7656 62.9379 60.7656C62.6259 60.9706 61.7339 60.9706 61.4229 60.7656Z" fill="white"/>
<path opacity="0.4" fill-rule="evenodd" clip-rule="evenodd" d="M110.074 63.0961C109.838 62.8221 109.368 62.2471 109.486 61.8691C109.725 62.2151 109.93 62.6121 110.074 63.0961Z" fill="white"/>
<path fill-rule="evenodd" clip-rule="evenodd" d="M77.1641 67.7565C77.6411 67.5525 78.7051 67.5525 79.1841 67.7565C78.5111 67.7565 77.8351 67.7565 77.1641 67.7565Z" fill="white"/>
<path fill-rule="evenodd" clip-rule="evenodd" d="M65.7979 72.2928C65.9709 72.0108 66.4989 72.2488 66.8099 72.1698C66.6389 72.4508 66.1099 72.2138 65.7979 72.2928Z" fill="white"/>
<path opacity="0.4" fill-rule="evenodd" clip-rule="evenodd" d="M110.664 65.7939C110.802 66.2489 109.845 66.8229 109.653 67.3879C109.622 67.4819 109.813 68.4509 109.486 67.7559C109.116 68.0739 109.595 68.0339 109.486 68.2459C109.354 68.4999 109.011 68.2579 109.401 68.4909C108.595 70.4279 107.758 73.4329 106.792 76.4629C105.741 79.7509 104.639 84.8629 101.573 84.4319C100.088 84.2249 99.0649 82.8839 97.5329 82.4709C99.7239 82.5959 102.386 83.6819 103.93 81.7359C105.702 79.4999 106.588 75.0199 107.884 71.9249C106.201 74.7369 105.626 80.5279 102.583 80.9999C100.808 81.2739 99.4069 79.6519 97.9529 79.4049C95.5749 78.9999 93.3549 81.1499 91.3869 82.3469C91.5919 81.8919 90.7359 82.5729 90.6299 82.8389C89.0599 84.0259 87.7869 85.6459 86.5879 87.3759C86.8189 86.8529 87.2009 86.5499 87.4309 86.0249C87.0869 86.4239 86.7789 86.8739 86.5069 87.3759C85.7469 88.5599 84.9229 89.6459 83.7279 90.1949C83.6989 89.8389 82.8529 90.2699 82.5489 90.3189C79.7649 88.9819 78.6599 85.1939 76.9909 82.2239C77.4919 83.7429 78.4809 86.0979 79.5179 88.4779C80.3949 90.4889 81.4689 93.3229 82.8849 93.6279C84.0259 93.8739 84.9639 92.7269 85.8309 91.6659C85.7269 91.9239 85.5879 92.1269 85.4119 92.2789C86.3029 91.5339 87.2679 89.8369 88.1029 88.5989C87.3239 89.5499 86.6919 90.7139 85.9149 91.6649C86.7949 90.2899 87.6829 88.9279 88.6929 87.7419C88.5889 87.9969 88.4489 88.2029 88.2729 88.3549C88.4559 88.3709 88.9099 87.7319 89.1119 87.3739C91.1679 85.4189 93.5259 83.9089 96.1839 82.8369C93.0509 84.9749 89.3409 88.4679 86.7559 92.1549C85.6669 93.7079 83.8059 96.7549 81.9599 94.7309C80.9179 93.5899 80.0959 91.5379 79.3489 89.7029C78.6019 87.8659 77.8259 85.9539 77.0769 84.1839C75.4079 80.2379 73.3159 77.4639 71.6039 74.4959C70.3169 73.9209 69.5479 72.4789 68.3219 72.5339C67.2089 72.5829 65.9859 74.8389 65.0399 76.5799C63.8479 78.7779 62.8909 81.0109 61.5879 82.4669C60.2689 83.9429 58.0509 86.2299 56.3699 86.5139C52.9559 87.0919 52.0589 81.6599 50.8159 78.0519C50.0989 75.9749 48.3609 70.2189 46.6069 72.1659C45.1049 73.8349 44.3839 78.1319 43.4919 81.4849C43.0769 83.0439 42.5289 84.8359 42.0619 86.2689C41.3189 88.5429 40.2799 91.6949 38.5249 89.3319C37.5759 88.0529 36.9499 85.6369 36.1699 84.1829C36.3559 83.8709 36.1909 83.7689 35.8319 83.3239C35.9569 83.0929 35.6719 82.5109 35.4959 82.0979C34.7939 80.4509 33.6669 78.2129 32.5509 77.1939C32.4849 77.1339 32.3889 77.2949 32.2979 77.1939C32.1589 77.0409 32.4079 76.9539 31.7939 76.9479C30.0319 76.9359 28.3799 78.2889 26.6579 77.9289C24.7069 77.5229 23.2399 74.5759 21.9449 72.5329C20.5919 70.3959 19.3369 68.4819 17.3159 67.1369C17.3159 66.5639 17.3159 65.9919 17.3159 65.4209C21.1639 64.8519 22.3379 60.3909 25.7339 59.1659C26.5509 59.2439 27.2669 59.7159 27.9219 59.2879C28.0419 59.2779 28.1599 59.2679 28.1749 59.4109C27.9759 59.4089 27.9259 59.6219 27.6699 59.5339C30.1129 61.1819 32.2799 62.8229 34.2359 66.1549C35.0609 67.5619 35.7779 69.2109 36.5919 70.8159C37.4409 72.4899 39.1299 76.1049 40.9679 74.9849C43.1199 73.6729 44.1499 69.3589 46.0179 67.5049C46.2639 67.5729 45.8889 67.6959 45.9339 67.8719C48.7049 63.9939 50.9679 72.1059 53.6779 72.6549C55.8859 73.1009 57.4729 69.3319 58.7289 67.3819C59.6129 66.0099 60.3949 64.6389 61.8419 64.0709C62.1579 63.9459 62.4879 63.7209 62.8519 63.9479C62.9289 63.1599 67.4219 63.7999 68.2419 64.1929C68.5179 64.3269 68.7689 64.6559 68.8309 64.8059C68.8199 64.3109 68.1639 63.9809 67.8199 63.8249C67.6649 63.3949 67.2759 63.3129 67.1459 62.8439C66.6209 61.9749 66.0589 61.1579 65.4619 60.3909C64.0719 59.0659 63.1689 55.8899 61.0009 55.8549C58.2079 55.8089 56.5279 60.8039 53.5939 61.1269C51.6609 61.3399 49.6989 59.6219 47.4489 60.0229C44.4309 60.5629 43.1559 64.9289 40.4629 65.1739C38.8919 65.3159 37.5899 63.7869 36.5049 62.5989C35.5049 61.5009 34.4599 60.3229 33.3079 59.4109C33.4939 59.1699 34.1569 59.6959 34.3179 59.1659C36.2449 58.9089 38.0269 58.4369 40.0419 58.3079C40.1589 58.5109 40.8499 58.5109 40.9669 58.3079C42.7919 58.5379 44.9699 59.4189 46.7759 58.5539C44.3789 56.5279 43.3679 52.4809 41.4729 49.7239C43.4259 51.7849 44.2369 56.5699 46.7759 58.1849C47.0409 58.1259 46.9669 58.5619 47.2799 58.4299C47.2859 58.2409 47.4549 58.0779 47.7009 57.9389C48.0289 58.0069 48.5699 57.3239 48.7969 56.8349C48.6239 56.8719 48.6319 57.1669 48.4599 57.2039C48.6289 56.7559 48.9589 56.5399 49.2179 56.2219C51.5959 52.3319 52.9889 46.0119 57.8039 45.9229C58.7839 45.9039 59.6489 46.4379 60.4119 46.5349C60.7549 46.7549 60.7569 46.9959 60.9179 47.2709C60.6029 47.2279 59.9359 47.3029 60.0749 47.5159C60.4209 47.3809 60.8159 47.3249 61.0869 47.3929C62.2109 47.6779 62.2159 48.9809 62.8529 49.1099C62.8019 49.5359 62.5009 48.4219 62.5189 49.1099C63.4939 50.4669 64.2729 52.1119 65.1269 53.6479C64.9789 53.4159 64.8669 53.8149 64.7909 53.4009C65.6459 55.3389 66.5679 58.5309 68.2429 60.6369C70.1389 63.0279 73.5969 66.7169 75.5639 62.4759C76.0709 61.6149 76.8759 59.8989 76.7419 58.9199C78.6919 51.4559 79.5949 42.4729 82.0459 35.7429C80.1509 39.1619 79.2699 44.5779 77.8359 49.5999C76.4879 54.3289 74.4689 60.5569 70.0089 59.9009C69.1339 59.7719 68.1179 59.2479 67.5689 58.5519C67.4099 58.3539 67.0589 57.9309 67.2329 57.6929C68.9609 61.2069 72.9779 59.5409 74.7229 57.0809C78.2249 52.1399 79.1489 40.3559 81.9639 35.4979C82.2789 35.0719 83.6899 33.8279 84.4869 35.2529C85.0289 36.2629 86.0159 37.2769 86.1699 38.4409C87.3719 40.1229 88.1909 43.0169 89.6199 44.8169C90.6269 46.0849 91.8279 47.1429 93.0719 48.2499C94.2449 49.2959 95.6589 50.6029 97.0269 50.8259C99.7859 51.2729 102.061 47.6219 104.268 50.2129C106.559 52.9039 107.443 58.4719 109.402 61.6169C109.454 61.6229 109.503 61.6359 109.487 61.7389C108.812 61.1659 108.524 59.9859 108.137 59.0419C107.048 56.3679 105.841 52.1169 104.098 50.2129C101.782 47.6779 99.9699 51.5029 96.9439 50.9479C95.5259 50.6889 94.1239 49.3809 92.9049 48.2499C90.2309 45.7749 87.9889 43.1459 86.4219 39.0529C87.9459 43.8589 90.1319 47.5799 92.9049 50.5799C94.2299 52.0169 95.7759 53.6349 97.4499 54.5029C99.2489 55.4369 101.302 55.1219 103.341 56.3419C103.318 56.5089 103.13 56.4449 103.003 56.4649C103.156 56.6199 103.787 56.7069 103.847 56.5879C106.388 58.4449 107.969 61.6999 110.413 63.6999C110.856 64.0589 110.425 63.6679 110.413 64.0689C111.058 64.4329 111.618 64.5579 112.18 64.8039M89.9589 47.1539C90.0309 46.7969 89.4199 46.3879 89.2829 45.9289C89.2109 46.2859 89.8229 46.6939 89.9589 47.1539ZM59.6549 46.4179C54.7109 44.9019 52.2549 49.6659 50.8179 53.6539C52.8789 49.9539 55.4869 47.0499 59.6549 46.4179ZM84.3179 38.5699C84.4069 38.7479 84.5179 38.9869 84.6539 39.1829C85.6179 40.5889 84.0909 37.9119 83.7279 37.9559C83.6109 37.9469 83.4069 37.9839 83.5599 38.0789C83.9059 38.1089 84.0039 38.4969 84.3179 38.5699ZM86.0019 41.6369C85.8579 41.0039 85.2059 39.8779 85.1599 39.9189C85.4009 40.4039 85.9729 41.6519 86.0019 41.6369ZM81.2029 41.3899C81.2189 40.8789 81.6619 40.3489 81.5389 40.0409C81.4709 40.4759 81.0409 41.0249 81.2029 41.3899ZM80.1089 44.8239C79.7359 46.5939 80.3369 44.9029 80.1919 44.7009C80.1879 44.7769 80.1819 44.8479 80.1089 44.8239ZM89.2829 49.2379C88.7799 48.2889 88.0119 46.4399 87.7689 45.9279C88.1079 47.1149 88.9629 48.8379 89.2829 49.2379ZM96.5219 64.0769C99.2609 64.4599 100.468 61.5759 102.414 60.3969C100.431 61.2179 98.8579 63.1279 96.9429 62.7279C95.2109 62.3659 93.8369 60.3969 92.4809 58.6809C90.1739 55.7599 88.5169 53.5009 86.6729 50.0979C85.8779 48.6279 84.6319 46.2769 83.3919 46.2959C82.2649 46.3129 81.5059 48.5509 81.0329 49.9739C79.5759 54.3859 78.5469 59.0299 77.3309 63.3409C77.2819 63.5159 77.0279 64.0619 77.2469 64.1989C77.1129 64.9419 78.3949 61.3219 77.9219 62.1149C79.3279 57.9939 80.2219 53.1209 82.3819 50.0979C82.2099 50.5399 81.8829 50.7589 81.7089 51.2009C81.9549 50.9209 82.5989 50.0029 82.5499 50.0979C82.5219 50.0979 82.4939 50.0979 82.4659 50.0979C82.5239 49.8549 82.6889 49.7699 82.8869 49.7289C82.4889 50.1229 83.3189 49.7969 83.5609 49.8519C85.3239 50.2529 86.5279 53.5899 87.6849 55.6159C88.9349 57.8039 90.3989 59.0029 91.5559 60.6439C89.1969 58.9319 87.2619 61.8079 85.9169 63.4639C86.3019 62.7069 85.2229 64.0509 85.0749 64.4449C83.7259 66.4429 81.7959 67.5979 79.1829 67.7569C78.7039 67.5529 77.6399 67.5529 77.1629 67.7569C76.8779 67.6779 76.3799 67.9139 76.2369 67.6339C76.9399 67.3449 75.8139 67.7029 75.7309 67.3889C75.7019 67.2769 77.2199 65.3519 76.7399 65.5489C76.6239 65.8559 76.5019 65.8399 76.4029 65.9169C76.4699 65.9439 76.5019 66.0209 76.4879 66.1619C76.1609 66.4109 75.9609 66.9319 75.3949 67.7569C74.0049 69.6719 71.6159 67.8679 70.6809 66.5299C70.4639 66.1469 70.1369 65.9299 69.8359 65.6719C69.6229 65.5379 70.2219 66.1149 70.3419 66.2849C70.2179 66.3059 70.0329 66.2409 70.0059 66.4069C69.6849 66.2219 69.2039 66.2699 68.9119 66.0399C68.9589 66.0399 69.0079 65.9399 68.9119 65.9169C68.5429 66.0569 68.6359 65.9159 68.3219 65.7949C67.1689 65.8449 68.3929 65.8429 68.6589 66.1619C68.6789 66.0659 68.7289 66.0199 68.8289 66.0399C70.2839 67.2519 71.4239 68.7179 72.7849 70.4539C73.9619 71.9619 75.2649 73.5369 76.1509 75.1129C77.1959 76.9799 78.0939 79.4329 79.0109 81.4899C79.8119 83.2789 80.9799 86.8299 82.7149 86.7629C84.2859 86.7039 85.7849 82.7259 86.5859 80.8779C87.5839 78.5739 88.5569 75.4589 90.2889 74.6229C92.2509 73.6779 94.9079 75.9639 96.4349 74.4999C96.4459 74.8489 95.8209 74.9019 96.0959 75.2349C96.2089 74.8259 96.5899 74.8079 96.6859 74.3769C98.1529 72.8439 99.1439 70.2469 100.306 67.6329C101.716 64.4639 103.16 60.4809 106.368 61.2559C105.467 60.8949 104.821 60.1569 103.674 60.1529C103.928 59.6589 101.744 59.9089 102.917 60.1529C103.12 60.2029 103.1 59.9289 103.337 60.0299C103.337 60.0699 103.337 60.1119 103.337 60.1529C100.741 60.9879 99.6519 64.6759 96.4359 64.1989C96.4889 64.1919 96.5379 64.1809 96.5219 64.0769ZM58.7289 48.6259C58.7919 48.5609 59.1779 48.1639 59.1489 48.1349C58.6369 48.4739 58.1529 49.2179 58.7289 48.6259ZM78.8479 50.5879C78.9489 50.6609 79.3579 48.9199 79.1839 48.9929C79.0989 49.5659 78.9309 50.0149 78.8479 50.5879ZM55.6989 52.7949C56.4049 51.4099 57.7079 50.2439 58.2239 48.9929C57.4859 50.3289 56.1969 51.5169 55.6989 52.7949ZM91.3879 52.5489C90.8269 51.6039 89.8359 49.9939 89.4529 49.6069C90.0519 50.4969 91.0059 52.1599 91.3879 52.5489ZM89.5359 53.1629C89.2899 52.6839 88.5639 51.6639 88.5269 51.6909C88.7729 52.1689 89.4999 53.1889 89.5359 53.1629ZM77.8349 55.3699C77.9829 54.6299 78.4719 53.1289 78.3429 52.7959C78.2339 53.5949 77.7329 55.0789 77.8349 55.3699ZM95.4299 58.1899C94.3829 57.0599 93.2769 55.4899 92.3989 54.1439C92.1079 53.6989 91.7499 52.8729 91.5559 53.0399C92.7599 54.7229 94.2589 57.2769 95.4299 58.1899ZM53.1739 54.8799C52.8039 55.1459 52.1309 55.4789 52.2469 55.7379C52.8459 55.1309 54.2079 54.3529 54.4359 54.0219C54.0819 54.1669 53.5989 54.5739 53.1739 54.8799ZM96.8579 59.1719C96.7619 59.0829 96.2679 58.7599 96.2699 58.9269C96.5449 59.1699 97.1309 59.4189 96.8579 59.1719ZM98.0389 59.2939C97.7539 59.3719 97.2559 59.1359 97.1129 59.4169C97.3959 59.3389 97.8949 59.5749 98.0389 59.2939ZM35.4129 59.5399C34.9679 59.6919 34.5519 59.1639 34.2359 59.5399C34.6189 59.4329 35.4089 59.8929 35.4129 59.5399ZM38.4429 59.9079C38.0489 59.9869 37.4359 59.7459 37.1809 60.0299C37.5759 59.9509 38.1889 60.1899 38.4429 59.9079ZM41.2219 59.9079C40.9089 59.9859 40.3839 59.7479 40.2099 60.0299C40.5229 59.9519 41.0509 60.1889 41.2219 59.9079ZM40.1259 60.0299C39.6479 60.1109 38.9499 59.8679 38.6119 60.1529C39.0899 60.0719 39.7889 60.3139 40.1259 60.0299ZM22.3669 62.2379C22.8439 61.8579 22.8579 61.8979 23.1239 62.1149C23.0779 62.1139 23.0279 62.2149 23.1239 62.2379C23.2729 61.9089 23.4519 62.1209 23.2919 61.7469C23.2749 61.8849 23.1989 61.9379 23.1239 61.9929C22.9129 61.7779 23.0659 61.7899 22.9569 61.5019C22.8659 61.4959 22.7439 61.5589 22.8719 61.6249C23.0459 61.7669 22.1679 62.0589 22.3669 62.2379ZM30.1939 63.3409C30.2149 63.1109 30.3329 63.4109 30.3629 63.2179C30.1099 63.1819 30.2069 62.7029 30.3629 62.6049C30.3579 62.7349 30.4029 62.9149 30.4469 62.7269C30.4289 62.5899 30.3539 62.5369 30.2779 62.4819C30.1339 62.7869 30.0779 63.2119 30.1939 63.3409ZM30.9529 63.9539C31.0089 63.9539 31.0659 63.9539 31.1209 63.9539C31.1209 63.8309 31.1889 63.8079 31.2039 63.7079C30.9179 63.7989 31.0649 63.2569 30.8679 63.2179C30.9489 63.4469 30.6159 63.6279 30.8679 63.7079C30.8849 63.6139 30.8699 63.4659 30.9519 63.4629C30.9449 63.7989 31.0919 63.7099 30.9529 63.9539ZM41.2219 79.6499C39.2169 81.7059 37.7179 77.4839 36.6759 75.1119C35.7449 72.9989 34.8849 70.6429 33.8979 68.9819C32.1889 66.0989 28.7839 63.9529 25.3129 64.3209C23.1459 64.5509 21.8769 66.1429 19.6739 66.7749C21.3299 66.8419 22.3069 66.7389 23.7989 66.8959C27.3619 67.2759 32.0859 70.3479 33.9819 73.8879C34.9249 75.6459 35.6289 77.8789 36.5919 80.1399C37.2279 81.6319 38.5429 85.3549 40.1269 85.0449C40.9519 84.8839 41.6119 83.1139 42.0639 81.9789C43.6329 78.0279 44.4749 73.6119 46.3569 70.5749C46.3569 70.5349 46.3569 70.4949 46.3569 70.4529C46.5129 70.5689 46.6379 70.0869 46.6919 70.4529C45.5949 71.8619 46.9559 70.1149 47.3669 70.0859C46.7429 70.1449 46.5879 70.1339 46.2739 70.5749C44.5899 72.6209 43.6939 75.8139 42.2319 78.1789C41.8599 78.6189 41.5239 79.1089 41.2219 79.6499ZM43.8289 73.8889C43.8289 73.8189 43.7609 73.7479 43.7469 73.8889C43.9499 74.1239 44.1179 73.5669 44.2499 73.6419C44.0069 73.5739 44.3799 73.4509 44.3339 73.2739C44.2589 73.2069 43.9649 72.9049 44.1659 73.1519C44.1659 73.2749 44.2339 73.2979 44.2489 73.3969C44.0559 73.4789 44.0249 73.8039 43.8289 73.8889ZM42.7359 76.8309C42.8169 76.6849 43.1819 75.9849 43.1569 75.8489C42.9739 74.8759 42.9739 76.8719 42.8219 76.0949C42.7729 76.4249 42.7439 76.6779 42.7359 76.8309ZM42.0629 77.8119C42.0629 77.8799 42.1309 77.9499 42.1469 77.8119C41.9889 77.7809 42.1949 77.6099 42.0629 77.5659C41.7499 78.1429 41.5579 78.7189 42.0629 78.1789C41.9529 78.1779 41.9559 77.8389 42.0629 77.8119ZM38.8639 79.0369C38.8899 78.7499 39.1239 78.7639 39.2009 78.5469C38.7149 78.5529 39.5259 78.2879 39.2009 78.1789C39.1949 78.2539 39.1869 78.3239 39.1149 78.3019C39.0969 78.2069 39.1129 78.0599 39.0319 78.0559C38.9639 79.3859 38.8689 78.1509 38.4429 78.1789C38.4889 78.1789 38.5389 78.0789 38.4429 78.0559C38.4239 78.2849 38.3039 77.9879 38.2749 78.1789C38.4919 78.1909 38.3959 78.6579 38.6119 78.6699C38.6249 78.5249 38.5959 78.3209 38.6959 78.3019C38.7899 78.5859 38.6769 78.6299 38.8639 78.9139C38.8179 78.9139 38.7689 79.0139 38.8639 79.0369ZM31.7939 66.1609C31.7429 66.1539 31.6949 66.1429 31.7099 66.0389C31.7769 66.0109 31.8759 66.0359 31.8779 65.9159C31.7829 65.8889 31.7479 65.7799 31.7099 65.6709C31.8619 65.5299 31.4729 65.7459 31.5409 65.4269C31.5239 65.5729 31.4479 65.5009 31.3739 65.4269C31.4069 65.6369 31.2499 65.7399 31.3739 65.7939C31.3779 65.7189 31.3869 65.6479 31.4589 65.6709C31.5329 65.7059 31.8869 65.9159 31.6269 66.0389C31.6269 65.9709 31.5569 65.8999 31.5409 66.0389C31.6619 65.9739 31.7479 66.5169 31.7939 66.1609ZM31.6259 64.6889C32.1009 64.6979 31.8039 65.2879 31.8779 65.1809C31.9969 65.1509 32.0199 64.9789 32.1299 64.9359C31.8739 65.1479 32.3589 65.4079 32.1299 65.1809C32.1299 65.0569 32.1989 65.0349 32.2149 64.9359C32.0889 64.7919 31.8689 64.7839 31.7929 64.5669C31.8399 64.5679 31.8889 64.4679 31.7929 64.4439C31.7919 64.6069 31.6479 64.5569 31.6259 64.6889ZM30.1939 64.9359C30.1289 64.9079 30.0279 64.9319 30.0269 64.8119C30.1449 64.8219 30.3469 64.7849 30.1939 64.6889C29.9509 64.9559 29.7099 64.4669 29.6049 64.9359C29.8519 64.6179 30.0189 65.2529 30.1939 64.9359ZM104.434 64.6889C103.484 65.2979 103.463 65.3689 104.604 64.8119C104.667 64.7849 104.771 64.8099 104.771 64.6889C104.661 64.6889 104.548 64.6889 104.434 64.6889ZM32.3849 66.0389C32.1919 66.3169 31.8929 65.7799 32.0469 66.0389C32.2089 66.2919 32.3119 66.6339 32.4679 66.8959C32.4349 66.6859 32.5919 66.5819 32.4679 66.5289C32.4639 66.6039 32.4559 66.6739 32.3849 66.6519C32.4439 66.3169 32.2169 66.4049 32.2169 66.1609C32.4409 65.9789 32.6199 66.2999 32.4679 65.9159C32.6209 65.8809 33.0059 66.3099 32.8039 66.0389C32.8029 65.8759 32.6579 65.9259 32.6359 65.7939C32.6859 65.7869 32.7339 65.7759 32.7189 65.6709C32.4859 65.9059 32.2259 65.7119 32.3849 66.0389ZM18.8309 66.8959C19.0409 66.7379 19.1809 67.2559 19.2509 66.8959C18.7349 66.6839 19.6949 66.9349 19.3369 66.7749C19.2889 66.5189 18.7909 66.6209 18.8309 66.8959ZM63.8619 69.5949C63.5999 69.5989 64.4339 70.0179 64.1999 69.5949C63.9319 69.9169 64.1359 69.4309 64.2839 69.3499C64.0189 69.2119 64.0609 69.3859 63.8619 69.2279C63.8289 69.4019 63.7609 69.4339 63.8619 69.5949ZM63.7799 70.4529C63.6139 70.5129 63.3469 70.0309 63.5269 70.3299C63.7849 70.4999 63.1859 71.0579 63.4429 70.8219C63.5689 70.6369 63.7979 70.6019 63.8619 70.3299C63.7059 70.3029 63.9119 70.1299 63.7799 70.0859C63.7469 70.2609 63.6779 70.2919 63.7799 70.4529ZM48.3759 70.9439C48.6319 71.5269 49.2109 72.2349 49.2169 72.7839C49.3389 73.0549 49.4219 72.6299 49.4689 72.9049C49.4779 73.0439 49.3469 73.0959 49.4689 73.1509C49.7319 72.5859 48.4359 71.0279 48.3759 70.9439ZM62.9379 71.3119C63.0319 71.3369 63.0699 71.4469 63.1059 71.5569C63.0589 71.5559 63.0089 71.6559 63.1059 71.6799C63.3089 71.4349 63.2499 70.7799 63.1899 70.9439C63.2759 71.2929 62.8399 71.1849 62.9379 71.3119ZM66.8099 72.1699C66.4989 72.2489 65.9719 72.0109 65.7979 72.2929C66.1099 72.2139 66.6389 72.4509 66.8099 72.1699ZM62.0109 73.7649C61.9599 73.7579 61.9129 73.7469 61.9279 73.6419C62.1869 73.3659 62.4119 73.0389 62.6009 72.6619C62.6869 72.4049 62.2059 73.2619 62.0109 73.3969C61.7049 74.1359 60.7589 74.5959 60.6649 75.2359C61.0539 74.6979 61.6789 73.9919 62.0109 73.7649ZM54.0989 81.1209C52.6339 80.0269 51.8739 77.9049 50.9019 76.0949C51.2109 77.3409 51.7159 78.3119 52.2469 79.5289C52.6749 80.5079 53.2429 82.0789 53.9319 82.4709C56.3759 83.8619 58.5719 77.7089 59.6549 76.5839C57.9869 78.3649 57.0689 81.2389 54.0989 81.1209ZM55.4459 75.8489C55.1449 75.5369 55.9069 75.8279 55.6149 75.7269C55.3319 75.6789 55.8789 75.0309 55.6149 75.3589C55.3129 75.2949 55.1879 76.1169 55.4459 75.8489ZM53.1739 75.8489C52.6039 76.1309 53.2989 75.9589 53.3429 75.8489C53.1509 75.7139 52.7249 75.2869 52.5849 75.4809C52.6669 75.7679 53.0419 75.6309 53.1739 75.8489ZM74.8069 76.8309C74.5209 77.0719 74.7239 77.0719 74.8919 76.8309C75.0369 77.0399 74.7669 77.3119 75.1429 77.3209C75.1869 76.9379 74.5929 76.4229 74.7219 76.7069C74.7719 76.7129 74.8209 76.7259 74.8069 76.8309ZM41.3889 77.6879C41.5029 77.6709 41.7029 78.1009 41.7259 77.8119C41.7459 77.6899 41.8209 77.3379 42.0629 77.4429C42.1599 77.3949 42.1599 76.8469 42.0629 77.1989C42.0389 77.4889 41.8389 77.0569 41.7259 77.0759C41.7099 77.4199 41.4529 77.4099 41.3889 77.6879ZM92.9039 77.6879C92.9659 77.7169 93.0689 77.6929 93.0709 77.8119C92.8789 77.9799 92.7559 77.4959 92.7339 77.8119C92.8909 77.8409 92.6849 78.0149 92.8189 78.0559C92.8419 77.8659 93.0039 77.9719 93.0709 78.0559C93.1779 77.7489 93.0289 77.6719 93.1549 77.5659C93.2759 77.5009 93.3609 78.0449 93.4099 77.6879C93.3439 77.6629 93.3089 77.5859 93.3229 77.4429C93.1139 77.4249 92.9769 77.5059 92.9039 77.6879ZM75.8979 80.1409C75.9059 80.2699 76.0079 80.2379 75.9829 80.0179C75.6259 79.5019 75.0779 78.6679 74.9739 78.1789C74.7699 78.2619 74.6029 77.7899 74.4689 77.9339C75.0109 78.5769 75.4769 79.3259 75.8979 80.1409ZM91.6389 79.5279C91.8159 79.2989 91.9579 79.2099 92.0609 79.1599C92.0169 78.9899 92.3009 78.7969 91.8939 78.7929C92.1379 78.9319 91.3839 79.7599 91.6389 79.5279ZM89.9589 80.8779C89.7799 80.8419 90.0799 80.5489 89.8719 80.3859C89.9379 80.3599 90.0389 80.3829 90.0409 80.2639C89.5749 80.1609 89.7379 81.1819 89.9589 80.8779ZM88.0209 84.1879C88.2699 83.8999 89.5659 82.0449 89.1989 82.4709C88.9159 82.8009 88.7939 83.0489 88.4419 83.5749C88.0839 84.1079 87.7949 84.4529 88.0209 84.1879ZM87.7699 84.0639C88.9979 82.5359 87.7249 83.5719 87.7699 84.3109C87.4719 84.2439 87.5639 84.7439 87.2619 84.6779C87.2619 84.6089 87.1959 84.5379 87.1799 84.6779C87.2909 84.6589 87.4919 85.0899 87.5169 84.7999C87.2529 84.5379 88.0769 84.4189 87.7699 84.0639ZM77.7519 82.4709C77.4549 82.5389 78.0479 82.8409 77.7519 82.5929C78.2219 82.7669 78.2419 82.9299 77.7519 82.2259C77.7989 82.2259 77.8479 82.1259 77.7519 82.1029C77.5849 82.3549 77.5849 82.2179 77.7519 82.4709ZM80.6979 87.7449C80.6239 87.7779 80.3299 88.0759 80.5299 88.1119C80.5069 87.7759 80.9259 88.4849 80.6979 88.1119C80.5279 87.8609 80.7359 87.8709 80.7819 87.6209C80.6059 87.5099 80.4079 87.4309 80.2769 87.2539C80.2579 87.3489 80.2749 87.4949 80.1919 87.4979C80.1719 87.3099 80.0539 87.4799 80.0249 87.6209C80.1649 87.6859 80.4549 87.8359 80.2769 87.4979C80.3329 87.4979 80.3869 87.4979 80.4439 87.4979C80.3729 88.0699 80.6639 87.3309 80.6979 87.7449ZM80.7819 87.9889C80.9499 88.0249 80.9499 87.8229 81.0329 87.7449C80.7709 88.4269 82.2029 88.5029 81.2029 88.2339C81.3819 87.9769 81.0929 87.7729 80.9499 87.6209C80.9299 87.7969 80.8119 87.8269 80.7819 87.9889Z" fill="white"/>
<path opacity="0.4" fill-rule="evenodd" clip-rule="evenodd" d="M86.5078 37.4668C87.1028 38.2358 87.6628 39.0508 88.1888 39.9198C87.5938 39.1538 87.0318 38.3358 86.5078 37.4668Z" fill="white"/>
<path opacity="0.4" fill-rule="evenodd" clip-rule="evenodd" d="M22.7871 56.2287C23.1451 55.6047 23.5381 55.0347 23.9661 54.5117C23.6091 55.1367 23.2161 55.7087 22.7871 56.2287Z" fill="white"/>
<path opacity="0.4" fill-rule="evenodd" clip-rule="evenodd" d="M20.4312 59.9086C20.6762 59.4486 20.9562 59.0386 21.2722 58.6816C21.0272 59.1426 20.7462 59.5506 20.4312 59.9086Z" fill="white"/>
<path fill-rule="evenodd" clip-rule="evenodd" d="M84.4858 35.2598C85.2588 35.8498 85.8538 36.7008 86.5068 37.4668C87.0308 38.3368 87.5928 39.1538 88.1878 39.9198C89.2918 41.3268 90.8348 42.8108 92.3978 44.3358C93.8128 45.7158 95.6558 47.5898 97.3638 47.6478C99.0688 47.7038 99.9728 46.1308 101.657 45.8088C101.966 45.8088 102.276 45.8088 102.584 45.8088C104.815 46.6438 105.696 50.5618 106.623 53.4108C107.602 56.4228 108.453 59.2798 109.401 61.6278C107.442 58.4818 106.558 52.9148 104.267 50.2238C102.06 47.6328 99.7848 51.2838 97.0258 50.8368C95.6578 50.6138 94.2438 49.3068 93.0708 48.2608C91.8268 47.1538 90.6258 46.0958 89.6188 44.8278C88.1898 43.0268 87.3708 40.1338 86.1688 38.4518C86.0158 37.2838 85.0278 36.2698 84.4858 35.2598Z" fill="white"/>
<path fill-rule="evenodd" clip-rule="evenodd" d="M103.34 56.3515C101.301 55.1315 99.2479 55.4465 97.4489 54.5125C95.7749 53.6435 94.2289 52.0255 92.9039 50.5895C90.1309 47.5895 87.9449 43.8685 86.4209 39.0625C87.9879 43.1555 90.2309 45.7845 92.9039 48.2595C94.1229 49.3895 95.5249 50.6975 96.9429 50.9575C99.9689 51.5125 101.781 47.6875 104.097 50.2225C105.84 52.1265 107.047 56.3775 108.136 59.0515C108.523 59.9955 108.811 61.1755 109.486 61.7485C109.486 61.7905 109.486 61.8305 109.486 61.8715C109.368 62.2495 109.838 62.8245 110.074 63.0985C110.132 63.3825 110.354 63.4265 110.412 63.7105C107.968 61.7105 106.387 58.4555 103.846 56.5985C103.671 56.5265 103.605 56.2935 103.34 56.3515Z" fill="white"/>
<path fill-rule="evenodd" clip-rule="evenodd" d="M89.2827 45.9297C89.4197 46.3887 90.0307 46.7977 89.9587 47.1547C89.8227 46.6947 89.2107 46.2867 89.2827 45.9297Z" fill="white"/>
<path fill-rule="evenodd" clip-rule="evenodd" d="M103.34 56.3509C103.606 56.2929 103.671 56.5269 103.846 56.5969C103.786 56.7159 103.156 56.6289 103.002 56.4739C103.129 56.4529 103.316 56.5169 103.34 56.3509Z" fill="white"/>
<path fill-rule="evenodd" clip-rule="evenodd" d="M91.3881 82.3478C93.3571 81.1508 95.5761 78.9998 97.9541 79.4058C99.4081 79.6528 100.808 81.2748 102.584 81.0008C105.627 80.5278 106.202 74.7378 107.885 71.9258C106.589 75.0208 105.703 79.4998 103.931 81.7368C102.386 83.6828 99.7251 82.5968 97.5341 82.4718C96.9441 82.3918 96.5961 82.6608 96.1871 82.8408C93.5291 83.9128 91.1701 85.4228 89.1151 87.3778C88.8531 87.3178 88.8931 87.7068 88.6961 87.7458C87.6851 88.9318 86.7981 90.2938 85.9181 91.6688C85.8891 91.6688 85.8631 91.6688 85.8341 91.6688C84.9671 92.7298 84.0281 93.8768 82.8881 93.6308C81.4721 93.3248 80.3981 90.4908 79.5211 88.4808C78.4841 86.1008 77.4951 83.7458 76.9941 82.2268C78.6631 85.1968 79.7671 88.9848 82.5521 90.3218C82.9381 90.2678 83.4801 90.4438 83.7311 90.1978C84.9261 89.6478 85.7511 88.5618 86.5101 87.3788C86.5351 87.3788 86.5661 87.3788 86.5911 87.3788C87.7901 85.6488 89.0631 84.0278 90.6331 82.8418C90.9421 82.7628 91.1231 82.4938 91.3881 82.3478Z" fill="white"/>
<path fill-rule="evenodd" clip-rule="evenodd" d="M90.6309 82.8402C90.7359 82.5732 91.5929 81.8932 91.3879 82.3482C91.1229 82.4942 90.9419 82.7632 90.6309 82.8402Z" fill="white"/>
<path fill-rule="evenodd" clip-rule="evenodd" d="M86.5078 87.3764C86.7788 86.8744 87.0878 86.4254 87.4318 86.0254C87.2028 86.5494 86.8208 86.8524 86.5888 87.3764C86.5628 87.3764 86.5328 87.3764 86.5078 87.3764Z" fill="white"/>
<path fill-rule="evenodd" clip-rule="evenodd" d="M85.9171 91.6676C86.6941 90.7166 87.3261 89.5526 88.1051 88.6016C87.2701 89.8386 86.3041 91.5366 85.4141 92.2816C85.5901 92.1296 85.7281 91.9266 85.8331 91.6686C85.8621 91.6676 85.8881 91.6676 85.9171 91.6676Z" fill="white"/>
<path fill-rule="evenodd" clip-rule="evenodd" d="M89.1139 87.3774C88.9119 87.7354 88.4579 88.3744 88.2749 88.3584C88.4509 88.2064 88.5899 88.0004 88.6949 87.7454C88.8929 87.7064 88.8529 87.3174 89.1139 87.3774Z" fill="white"/>
<path fill-rule="evenodd" clip-rule="evenodd" d="M67.8199 63.83C68.1639 63.986 68.8199 64.316 68.8309 64.811C68.7689 64.662 68.5189 64.332 68.2419 64.198C67.4229 63.804 62.9299 63.165 62.8519 63.953C62.4889 63.726 62.1589 63.951 61.8419 64.076C60.3949 64.644 59.6129 66.014 58.7289 67.387C57.4729 69.337 55.8849 73.107 53.6779 72.66C50.9679 72.111 48.7049 63.999 45.9339 67.877C45.8889 67.701 46.2639 67.578 46.0179 67.51C44.1489 69.364 43.1199 73.678 40.9679 74.99C39.1289 76.11 37.4399 72.495 36.5919 70.821C35.7789 69.216 35.0609 67.567 34.2359 66.16C32.2799 62.827 30.1119 61.187 27.6699 59.539C27.9259 59.627 27.9769 59.414 28.1749 59.416C28.2019 59.416 28.2309 59.416 28.2599 59.416C28.2399 59.592 28.0089 59.459 28.0059 59.662C32.4469 62.172 34.3069 66 36.9289 71.066C37.6989 72.555 38.9809 75.183 40.2099 75.112C42.8859 74.961 44.2899 67.882 46.6909 66.775C49.6749 65.398 51.3639 73.031 54.3519 72.538C55.8769 72.286 57.1959 69.616 58.1389 68.123C59.3459 66.22 60.4049 64.634 61.8429 63.708C63.7269 63.134 65.0939 63.544 67.5679 63.708C67.7049 63.674 67.7119 63.823 67.8199 63.83Z" fill="white"/>
<path fill-rule="evenodd" clip-rule="evenodd" d="M33.3098 59.4176C34.4618 60.3296 35.5068 61.5076 36.5068 62.6056C37.5918 63.7936 38.8928 65.3226 40.4648 65.1806C43.1578 64.9356 44.4328 60.5696 47.4508 60.0296C49.7008 59.6276 51.6628 61.3456 53.5958 61.1336C56.5298 60.8106 58.2088 55.8156 61.0028 55.8616C63.1698 55.8966 64.0738 59.0726 65.4638 60.3976C65.4808 60.4976 65.5499 60.5206 65.5499 60.6446C65.9909 61.3906 66.4688 62.0846 66.9788 62.7286C67.0478 62.7516 67.0629 62.8516 67.1479 62.8516C67.2779 63.3206 67.6668 63.4026 67.8218 63.8326C67.7138 63.8256 67.7068 63.6766 67.5688 63.7096C66.0948 62.6266 64.7788 61.3186 62.9398 60.7656C62.8818 60.7656 62.8268 60.7656 62.7708 60.7656C62.5718 60.5636 61.7918 60.5636 61.5918 60.7656C61.5368 60.7656 61.4808 60.7656 61.4248 60.7656C61.0318 60.9316 60.6348 61.0876 60.4128 61.5026C59.1178 62.6396 58.2418 64.3886 57.2998 66.0396C56.8718 66.5606 56.4788 67.1326 56.1218 67.7566C56.0518 67.7796 56.0368 67.8786 55.9538 67.8786C55.6408 68.3236 55.2288 68.6206 54.8578 68.9826C54.4728 68.9916 54.2868 69.2946 53.8478 69.2276C53.3998 69.0196 52.9468 68.8246 52.5858 68.4916C52.4188 68.4906 52.4788 68.1576 52.2478 68.2466C52.1268 67.8926 51.8438 67.7726 51.6608 67.5116C51.1508 66.9856 50.7908 66.2416 50.2288 65.7946C49.9238 65.1756 49.4738 64.7696 49.0508 64.3226C48.8838 64.3216 48.9428 63.9886 48.7138 64.0776C48.3518 63.4116 47.1038 63.0356 46.4418 63.5866C45.7618 63.8646 45.3378 64.5146 44.8418 65.0586C44.3588 65.6606 43.9088 66.3156 43.4948 67.0206C43.4198 67.0746 43.3438 67.1266 43.3278 67.2646C43.2558 67.2426 43.2478 67.3116 43.2438 67.3876C42.4518 68.1976 41.8528 69.2856 40.8858 69.8386C39.8338 70.2766 38.8828 69.5966 38.2768 68.9826C37.6128 68.3966 37.1518 67.5126 36.5088 66.8966C35.9828 66.0286 35.4228 65.2106 34.8258 64.4446C34.5108 64.2486 34.4518 63.6826 34.0698 63.5866C34.0208 63.4096 33.9378 63.2886 33.8148 63.2186C33.6058 63.0776 33.5348 62.7306 33.2258 62.7276C33.1588 62.4166 32.8808 62.4146 32.7218 62.2376C32.4008 62.0496 32.1628 61.7436 31.7968 61.6246C31.4968 61.2426 31.1238 60.9696 30.7008 60.7646C30.4908 60.6636 30.3718 60.4296 30.1128 60.3966C29.5908 59.9326 28.9448 59.6476 28.2618 59.4166C28.2328 59.4166 28.2038 59.4166 28.1768 59.4166C28.1618 59.2736 28.0438 59.2836 27.9238 59.2936C27.7218 59.2206 27.5408 59.1176 27.2528 59.1716C26.9968 58.9676 26.1608 58.9676 25.9048 59.1716C25.8488 59.1716 25.7948 59.1716 25.7368 59.1716C22.3408 60.3966 21.1668 64.8576 17.3188 65.4266C17.3188 65.0166 17.3188 64.6076 17.3188 64.1986C19.4138 63.5596 20.7188 61.9626 22.3698 60.2746C23.4218 59.1976 24.6868 57.8366 25.8218 57.5776C28.4568 56.9746 30.2578 59.2066 32.8918 59.2936C33.1268 59.1936 33.1058 59.4686 33.3098 59.4176Z" fill="white"/>
<path fill-rule="evenodd" clip-rule="evenodd" d="M66.9779 62.7275C66.5339 61.9815 66.0599 61.2875 65.5489 60.6435C65.5489 60.5195 65.4799 60.4965 65.4629 60.3965C66.0599 61.1645 66.6219 61.9805 67.1469 62.8495C67.0619 62.8495 67.0469 62.7505 66.9779 62.7275Z" fill="white"/>
<path fill-rule="evenodd" clip-rule="evenodd" d="M23.9659 54.5113C25.0389 53.4443 25.5459 52.4073 26.6589 52.1813C28.6239 51.7853 30.7269 53.8453 32.3849 53.1623C33.8379 52.5633 35.1489 48.7003 36.0879 46.2953C36.7079 44.7063 38.2379 39.8753 39.7909 39.9183C40.8319 39.9483 41.6309 42.3753 42.0639 43.7203C43.6999 48.7993 44.4619 54.5573 46.7769 58.1903C44.2379 56.5753 43.4269 51.7903 41.4739 49.7293C43.3689 52.4863 44.3789 56.5333 46.7769 58.5593C44.9719 59.4243 42.7929 58.5443 40.9679 58.3133C40.6599 58.3133 40.3509 58.3133 40.0429 58.3133C38.0279 58.4423 36.2469 58.9143 34.3189 59.1713C33.8409 59.1713 33.3649 59.1713 32.8879 59.1713C30.4379 58.8613 28.4289 57.0643 25.8179 57.4543C23.4229 57.8123 21.6359 60.0743 19.7559 61.1333C21.4819 59.6343 23.8809 54.4553 26.6579 53.8993C28.5949 53.5103 30.1259 54.6563 31.9609 54.5113C35.0489 54.2693 36.0169 50.0803 38.5259 48.6263C39.7359 47.9253 40.6039 48.3923 41.3049 49.4833C41.1629 48.8373 40.4589 48.1883 39.7889 48.1353C36.8049 47.8953 35.3909 54.2523 31.7089 54.3893C30.2189 54.4443 29.0369 53.6453 27.5839 53.6543C24.0609 53.6713 22.3539 58.4663 20.0919 60.3973C20.1679 60.1823 20.2819 60.0183 20.4299 59.9083C20.7439 59.5503 21.0259 59.1423 21.2709 58.6813C21.7499 57.8273 22.3559 57.1563 22.7849 56.2283C23.2159 55.7083 23.6089 55.1363 23.9659 54.5113Z" fill="white"/>
<path fill-rule="evenodd" clip-rule="evenodd" d="M48.4597 57.2108C48.6327 57.1738 48.6247 56.8788 48.7967 56.8418C48.5697 57.3308 48.0287 58.0128 47.7007 57.9458C47.9987 57.7658 48.2117 57.4618 48.4597 57.2108Z" fill="white"/>
<path fill-rule="evenodd" clip-rule="evenodd" d="M49.2178 56.2279C49.9678 54.5599 50.8008 52.1319 51.6598 49.6069C52.4228 47.3579 53.2468 44.7759 54.5208 43.9649C56.7938 42.5199 58.7598 45.2779 60.4118 46.5409C59.6488 46.4439 58.7838 45.9099 57.8038 45.9289C52.9888 46.0179 51.5958 52.3379 49.2178 56.2279Z" fill="white"/>
<path fill-rule="evenodd" clip-rule="evenodd" d="M50.8179 53.6533C52.2559 49.6653 54.7119 44.9013 59.6549 46.4173C55.4869 47.0493 52.8789 49.9533 50.8179 53.6533Z" fill="white"/>
<path fill-rule="evenodd" clip-rule="evenodd" d="M75.563 62.4819C73.596 66.7229 70.138 63.0339 68.242 60.6429C66.567 58.5379 65.645 55.3459 64.79 53.4069C64.866 53.8199 64.978 53.4209 65.126 53.6539C66.074 55.1229 66.763 57.2879 68.324 57.5769C70.324 57.9489 71.678 55.2979 72.787 53.6539C74.085 51.7219 75.202 49.8549 76.153 48.0119C78.415 43.6329 79.618 38.6029 81.963 35.5039C79.148 40.3619 78.224 52.1459 74.722 57.0869C72.977 59.5469 68.959 61.2129 67.232 57.6989C67.058 57.9369 67.409 58.3609 67.568 58.5579C68.118 59.2529 69.133 59.7769 70.008 59.9069C74.468 60.5629 76.487 54.3359 77.835 49.6059C79.269 44.5849 80.15 39.1679 82.045 35.7489C79.594 42.4779 78.691 51.4619 76.741 58.9259C76.4 60.1869 76.004 61.3699 75.563 62.4819ZM64.958 53.6539C65.532 55.0679 66.31 56.8339 67.062 57.5769C66.263 56.4139 65.688 54.9199 64.958 53.6539Z" fill="white"/>
<path fill-rule="evenodd" clip-rule="evenodd" d="M76.741 58.9277C76.875 59.9067 76.07 61.6217 75.563 62.4837C76.004 61.3707 76.4 60.1877 76.741 58.9277Z" fill="white"/>
<path opacity="0.4" fill-rule="evenodd" clip-rule="evenodd" d="M67.062 57.5773C66.31 56.8343 65.532 55.0673 64.958 53.6543C65.688 54.9193 66.263 56.4133 67.062 57.5773Z" fill="white"/>
<path fill-rule="evenodd" clip-rule="evenodd" d="M83.5611 38.0794C83.4081 37.9844 83.6121 37.9474 83.7291 37.9564C84.0911 37.9124 85.6191 40.5894 84.6551 39.1834C84.5191 38.9874 84.4081 38.7484 84.3191 38.5704C84.0041 38.4964 83.9061 38.1084 83.5611 38.0794Z" fill="white"/>
<path fill-rule="evenodd" clip-rule="evenodd" d="M85.1602 39.9171C85.2062 39.8761 85.8582 41.0021 86.0022 41.6351C85.9732 41.6511 85.4012 40.4031 85.1602 39.9171Z" fill="white"/>
<path opacity="0.4" fill-rule="evenodd" clip-rule="evenodd" d="M20.0929 60.3975C22.3549 58.4675 24.0619 53.6715 27.5849 53.6545C29.0379 53.6455 30.2199 54.4445 31.7099 54.3895C35.3919 54.2525 36.8059 47.8955 39.7899 48.1355C40.4599 48.1885 41.1639 48.8385 41.3059 49.4835C40.6049 48.3925 39.7369 47.9245 38.5269 48.6265C36.0179 50.0805 35.0499 54.2705 31.9619 54.5115C30.1269 54.6565 28.5959 53.5105 26.6589 53.8995C23.8819 54.4555 21.4829 59.6355 19.7569 61.1335C21.6359 60.0745 23.4239 57.8125 25.8189 57.4545C28.4289 57.0645 30.4389 58.8625 32.8889 59.1715C32.8889 59.2115 32.8889 59.2545 32.8889 59.2935C30.2549 59.2065 28.4539 56.9745 25.8189 57.5775C24.6839 57.8365 23.4199 59.1985 22.3669 60.2745C20.7159 61.9625 19.4109 63.5605 17.3159 64.1985C17.3159 63.6265 17.3159 63.0535 17.3159 62.4815C18.8489 61.9155 19.2619 61.5495 20.0929 60.3975Z" fill="white"/>
<path fill-rule="evenodd" clip-rule="evenodd" d="M81.5387 40.041C81.6617 40.35 81.2187 40.879 81.2027 41.39C81.0407 41.025 81.4707 40.476 81.5387 40.041Z" fill="white"/>
<path fill-rule="evenodd" clip-rule="evenodd" d="M80.1919 44.7012C80.3369 44.9032 79.7359 46.5942 80.1089 44.8242C80.1819 44.8482 80.1879 44.7772 80.1919 44.7012Z" fill="white"/>
<path fill-rule="evenodd" clip-rule="evenodd" d="M87.77 45.9297C88.012 46.4417 88.781 48.2897 89.284 49.2397C88.963 48.8387 88.108 47.1157 87.77 45.9297Z" fill="white"/>
<path fill-rule="evenodd" clip-rule="evenodd" d="M77.2469 64.198C77.0279 64.061 77.2819 63.515 77.3309 63.34C78.5469 59.029 79.5759 54.385 81.0329 49.973C81.5069 48.55 82.2649 46.311 83.3919 46.295C84.6319 46.276 85.8779 48.628 86.6729 50.097C88.5169 53.499 90.1739 55.758 92.4809 58.68C93.8359 60.396 95.2099 62.365 96.9429 62.727C98.8579 63.128 100.43 61.217 102.414 60.396C100.469 61.575 99.2619 64.459 96.5219 64.076C95.8809 63.825 95.4179 63.315 94.8379 62.972C94.7169 62.618 94.4329 62.5 94.2499 62.237C93.5219 61.496 92.9699 60.505 92.2289 59.784C91.9839 59.323 91.7019 58.914 91.3869 58.558C90.8839 57.98 90.4859 57.256 89.8709 56.84C89.7499 56.486 89.4679 56.367 89.2819 56.105C88.9929 55.83 88.8079 55.405 88.5259 55.125C88.4879 55.015 88.4519 54.904 88.3559 54.879C88.2359 54.81 88.1509 54.688 88.1039 54.51C87.4069 53.396 86.6809 52.334 85.9159 51.322C85.4389 50.746 84.9879 50.141 84.3169 49.85C84.3129 49.731 84.2139 49.755 84.1469 49.727C83.8849 49.532 83.1469 49.532 82.8849 49.727C82.6869 49.768 82.5219 49.852 82.4639 50.096C82.4349 50.096 82.4079 50.096 82.3799 50.096C80.2199 53.119 79.3259 57.992 77.9199 62.113C77.7079 62.823 77.4129 63.42 77.2469 64.198Z" fill="white"/>
<path fill-rule="evenodd" clip-rule="evenodd" d="M77.2467 64.1983C77.4127 63.4203 77.7077 62.8233 77.9217 62.1143C78.3957 61.3213 77.1127 64.9413 77.2467 64.1983Z" fill="white"/>
<path fill-rule="evenodd" clip-rule="evenodd" d="M82.466 50.0987C82.494 50.0987 82.522 50.0987 82.55 50.0987C82.599 50.0037 81.955 50.9217 81.709 51.2017C81.883 50.7597 82.21 50.5407 82.382 50.0987C82.41 50.0987 82.437 50.0987 82.466 50.0987Z" fill="white"/>
<path fill-rule="evenodd" clip-rule="evenodd" d="M82.8871 49.7283C83.1491 49.5333 83.8871 49.5333 84.1491 49.7283C84.1291 49.8603 83.9831 49.8113 83.9811 49.9733C86.1521 51.6663 87.3831 55.0853 89.1151 57.4533C90.4971 59.3413 92.2171 60.7723 93.8291 62.6043C92.9701 62.1003 92.4111 61.1543 91.5571 60.6423C90.4001 59.0013 88.9361 57.8023 87.6861 55.6143C86.5291 53.5893 85.3251 50.2523 83.5621 49.8503C83.3181 49.7963 82.4881 50.1233 82.8871 49.7283Z" fill="white"/>
<path fill-rule="evenodd" clip-rule="evenodd" d="M85.0747 64.4446C85.2217 64.0506 86.3017 62.7066 85.9167 63.4636C85.6537 63.7746 85.4027 64.1056 85.1597 64.4446C85.1317 64.4446 85.1037 64.4446 85.0747 64.4446Z" fill="white"/>
<path fill-rule="evenodd" clip-rule="evenodd" d="M75.396 67.7553C75.961 66.9303 76.162 66.4093 76.489 66.1603C76.503 66.0183 76.471 65.9423 76.404 65.9153C76.503 65.8383 76.625 65.8533 76.741 65.5473C77.221 65.3503 75.703 67.2753 75.732 67.3873C75.815 67.7013 76.941 67.3433 76.238 67.6323C75.913 67.6073 75.616 67.6273 75.396 67.7553Z" fill="white"/>
<path fill-rule="evenodd" clip-rule="evenodd" d="M70.0079 66.4054C70.0349 66.2394 70.2199 66.3034 70.3439 66.2834C70.2239 66.1134 69.6249 65.5364 69.8379 65.6704C70.1389 65.9294 70.4659 66.1464 70.6829 66.5284C70.3639 66.6224 70.2789 66.3804 70.0079 66.4054Z" fill="white"/>
<path fill-rule="evenodd" clip-rule="evenodd" d="M68.8311 66.0389C68.8581 66.0389 68.8881 66.0389 68.9141 66.0389C69.2061 66.2689 69.6861 66.2219 70.0081 66.4059C70.2791 66.3809 70.3641 66.6229 70.6831 66.5289C71.6181 67.8669 74.0071 69.6709 75.3971 67.7559C75.6171 67.6279 75.9141 67.6089 76.2391 67.6329C76.3821 67.9129 76.8801 67.6769 77.1651 67.7559C77.8361 67.7559 78.5121 67.7559 79.1851 67.7559C81.7971 67.5979 83.7281 66.4429 85.0771 64.4439C85.1061 64.4439 85.1341 64.4439 85.1621 64.4439C85.4051 64.1049 85.6561 63.7739 85.9191 63.4629C87.2641 61.8069 89.1981 58.9309 91.5581 60.6429C92.4121 61.1549 92.9711 62.1009 93.8301 62.6049C93.9481 62.9619 94.2931 62.9949 94.5051 63.2179C95.1051 63.6099 95.5821 64.1819 96.4411 64.1989C99.6581 64.6759 100.747 60.9879 103.342 60.1529C103.454 60.1529 103.568 60.1529 103.679 60.1529C104.826 60.1569 105.472 60.8949 106.373 61.2559C103.165 60.4809 101.722 64.4639 100.311 67.6329C99.1491 70.2469 98.1581 72.8439 96.6911 74.3769C96.5581 74.3429 96.5481 74.4929 96.4401 74.4999C94.9131 75.9639 92.2551 73.6779 90.2941 74.6229C88.5621 75.4589 87.5891 78.5739 86.5911 80.8779C85.7901 82.7259 84.2911 86.7039 82.7201 86.7629C80.9851 86.8289 79.8171 83.2789 79.0161 81.4899C78.0991 79.4329 77.2011 76.9799 76.1561 75.1129C75.2701 73.5369 73.9671 71.9619 72.7901 70.4539C71.4261 68.7169 70.2861 67.2509 68.8311 66.0389Z" fill="white"/>
<path fill-rule="evenodd" clip-rule="evenodd" d="M68.8308 66.038C68.7308 66.018 68.6808 66.064 68.6608 66.16C68.3948 65.841 67.1708 65.843 68.3238 65.793C68.6368 65.914 68.5448 66.055 68.9138 65.915C69.0098 65.938 68.9608 66.038 68.9138 66.038C68.8878 66.038 68.8578 66.038 68.8308 66.038Z" fill="white"/>
<path fill-rule="evenodd" clip-rule="evenodd" d="M96.4378 74.4991C96.5458 74.4921 96.5558 74.3421 96.6888 74.3761C96.5928 74.8081 96.2118 74.8251 96.0988 75.2341C95.8238 74.9011 96.4488 74.8481 96.4378 74.4991Z" fill="white"/>
<path opacity="0.4" fill-rule="evenodd" clip-rule="evenodd" d="M94.839 62.9735C94.421 62.4835 94.714 63.1235 95.007 63.2195C94.866 63.7235 94.604 62.7745 94.503 63.2195C94.291 62.9965 93.946 62.9635 93.828 62.6065C92.216 60.7745 90.496 59.3435 89.114 57.4555C87.383 55.0865 86.151 51.6685 83.98 49.9755C83.982 49.8145 84.128 49.8635 84.148 49.7305C84.215 49.7585 84.314 49.7335 84.318 49.8535C85.73 50.8625 87.134 53.5965 88.357 54.8815C88.453 54.9065 88.489 55.0175 88.527 55.1275C88.041 54.9735 90.041 57.3335 89.283 56.1075C89.469 56.3695 89.751 56.4885 89.872 56.8425C89.798 56.7875 89.723 56.7345 89.704 56.5975C90.608 57.7285 91.911 59.6275 93.071 61.1345C93.476 61.6635 94.968 63.3085 94.251 62.2385C94.434 62.5005 94.718 62.6195 94.839 62.9735Z" fill="white"/>
<path opacity="0.4" fill-rule="evenodd" clip-rule="evenodd" d="M92.2287 59.7846C91.9127 59.4276 91.6317 59.0176 91.3867 58.5586C91.7017 58.9156 91.9837 59.3236 92.2287 59.7846Z" fill="white"/>
<path opacity="0.4" fill-rule="evenodd" clip-rule="evenodd" d="M85.917 51.3242C86.683 52.3362 87.408 53.3982 88.105 54.5122C87.343 53.5002 86.612 52.4382 85.917 51.3242Z" fill="white"/>
<path fill-rule="evenodd" clip-rule="evenodd" d="M59.1501 48.1348C59.1791 48.1638 58.7931 48.5598 58.7301 48.6258C58.1531 49.2178 58.6371 48.4738 59.1501 48.1348Z" fill="white"/>
<path fill-rule="evenodd" clip-rule="evenodd" d="M79.1841 48.9925C79.3581 48.9195 78.9491 50.6605 78.8481 50.5875C78.9311 50.0145 79.0991 49.5655 79.1841 48.9925Z" fill="white"/>
<path fill-rule="evenodd" clip-rule="evenodd" d="M58.2237 48.9922C57.7077 50.2432 56.4037 51.4092 55.6987 52.7942C56.1967 51.5162 57.4857 50.3282 58.2237 48.9922Z" fill="white"/>
<path fill-rule="evenodd" clip-rule="evenodd" d="M89.4531 49.6074C89.8361 49.9944 90.8271 51.6044 91.3881 52.5494C91.0061 52.1604 90.0521 50.4974 89.4531 49.6074Z" fill="white"/>
<path fill-rule="evenodd" clip-rule="evenodd" d="M84.3179 49.8516C84.9889 50.1426 85.4399 50.7476 85.9169 51.3236C86.6119 52.4386 87.3429 53.5006 88.1049 54.5116C88.1519 54.6886 88.2369 54.8106 88.3569 54.8806C87.1349 53.5946 85.7299 50.8606 84.3179 49.8516Z" fill="white"/>
<path fill-rule="evenodd" clip-rule="evenodd" d="M89.2828 56.1064C90.0408 57.3314 88.0408 54.9724 88.5268 55.1264C88.8098 55.4064 88.9938 55.8324 89.2828 56.1064Z" fill="white"/>
<path fill-rule="evenodd" clip-rule="evenodd" d="M94.2511 62.2387C94.9691 63.3087 93.4771 61.6637 93.0711 61.1347C91.9111 59.6287 90.6081 57.7287 89.7041 56.5977C89.7231 56.7347 89.7981 56.7877 89.8721 56.8427C90.4861 57.2587 90.8851 57.9827 91.3881 58.5607C91.6331 59.0197 91.9131 59.4297 92.2301 59.7867C92.9711 60.5057 93.5231 61.4977 94.2511 62.2387Z" fill="white"/>
<path fill-rule="evenodd" clip-rule="evenodd" d="M94.5029 63.2178C94.6039 62.7728 94.8659 63.7218 95.0069 63.2178C94.7139 63.1218 94.4209 62.4818 94.8389 62.9718C95.4189 63.3148 95.8819 63.8248 96.5229 64.0758C96.5389 64.1798 96.4899 64.1908 96.4389 64.1978C95.5799 64.1828 95.1029 63.6098 94.5029 63.2178Z" fill="white"/>
<path fill-rule="evenodd" clip-rule="evenodd" d="M88.5269 51.6919C88.5639 51.6659 89.2899 52.6849 89.5359 53.1639C89.4999 53.1899 88.7729 52.1699 88.5269 51.6919Z" fill="white"/>
<path fill-rule="evenodd" clip-rule="evenodd" d="M78.3429 52.7949C78.4719 53.1279 77.9839 54.6289 77.8349 55.3689C77.7329 55.0789 78.2339 53.5949 78.3429 52.7949Z" fill="white"/>
<path fill-rule="evenodd" clip-rule="evenodd" d="M91.5562 53.0417C91.7492 52.8737 92.1082 53.6997 92.3992 54.1457C93.2772 55.4917 94.3832 57.0627 95.4302 58.1917C94.2592 57.2777 92.7602 54.7237 91.5562 53.0417Z" fill="white"/>
<path fill-rule="evenodd" clip-rule="evenodd" d="M54.4368 54.0215C54.2078 54.3535 52.8468 55.1305 52.2478 55.7375C52.1308 55.4785 52.8048 55.1455 53.1748 54.8795C53.5988 54.5745 54.0818 54.1675 54.4368 54.0215Z" fill="white"/>
<path opacity="0.4" fill-rule="evenodd" clip-rule="evenodd" d="M65.5479 60.6445C66.0589 61.2885 66.5329 61.9825 66.9769 62.7285C66.4679 62.0845 65.9889 61.3905 65.5479 60.6445Z" fill="white"/>
<path opacity="0.4" fill-rule="evenodd" clip-rule="evenodd" d="M28.2599 59.416C28.9429 59.647 29.5879 59.932 30.1109 60.396C30.0599 60.641 30.7239 60.889 30.9529 61.132C31.1629 61.08 30.8119 60.868 30.6989 60.887C30.6989 60.845 30.6989 60.805 30.6989 60.763C31.1209 60.968 31.4939 61.241 31.7949 61.623C31.7269 61.6 31.7109 61.5 31.6269 61.5C31.8239 61.824 32.8389 62.643 32.7199 62.236C32.8789 62.413 33.1579 62.415 33.2239 62.726C33.0999 62.663 33.0139 62.546 32.8879 62.481C33.1929 62.938 33.6409 63.183 33.9819 63.585C33.9519 63.423 33.8349 63.393 33.8129 63.217C33.9359 63.286 34.0189 63.408 34.0679 63.585C34.6509 64.572 35.3689 65.368 36.0029 66.283C35.6599 65.597 35.1669 65.129 34.8239 64.443C35.4209 65.209 35.9809 66.027 36.5069 66.895C36.3119 66.813 36.2839 66.488 36.0879 66.405C36.5909 67.057 37.9569 69.254 38.2759 69.103C38.2839 69.098 38.2689 68.992 38.2759 68.981C38.8819 69.595 39.8329 70.276 40.8849 69.837C41.7769 69.745 42.8019 68.134 43.2429 67.386C43.2469 67.31 43.2549 67.24 43.3269 67.263C44.3299 66.069 45.4529 64.395 46.4409 63.584C47.1029 63.033 48.3509 63.41 48.7129 64.075C48.5899 64.012 48.5019 63.892 48.3769 63.829C48.5839 64.222 48.9679 64.357 49.2179 64.687C49.1819 64.58 49.1439 64.468 49.0499 64.442C49.0499 64.401 49.0499 64.361 49.0499 64.319C49.4729 64.766 49.9229 65.172 50.2279 65.791C50.3669 66.157 52.4319 68.835 51.6599 67.508C51.8439 67.77 52.1259 67.889 52.2469 68.243C52.1729 68.189 52.0969 68.135 52.0799 67.998C51.9039 68.262 52.4889 68.458 52.5839 68.733C52.7059 68.678 52.5739 68.625 52.5839 68.488C52.9449 68.821 53.3979 69.016 53.8459 69.224C53.7619 69.224 53.6769 69.224 53.5939 69.224C53.9079 69.552 54.9659 69.267 54.8559 68.979C55.2269 68.617 55.6389 68.32 55.9519 67.875C55.9269 68.125 55.7239 68.115 55.6979 68.365C56.2439 67.813 56.7069 67.136 57.1289 66.403C56.7439 66.781 56.5049 67.376 56.1199 67.753C56.4759 67.129 56.8699 66.557 57.2979 66.036C57.2819 66.135 57.2139 66.158 57.2139 66.281C58.2579 64.655 59.2229 62.911 60.4109 61.499C60.6329 61.083 61.0299 60.928 61.4229 60.762C61.7339 60.967 62.6259 60.967 62.9379 60.762C64.7769 61.315 66.0929 62.622 67.5669 63.706C65.0939 63.542 63.7269 63.132 61.8419 63.706C60.4039 64.631 59.3449 66.217 58.1379 68.121C57.1949 69.614 55.8769 72.284 54.3509 72.536C51.3629 73.029 49.6739 65.396 46.6899 66.773C44.2889 67.879 42.8839 74.959 40.2089 75.11C38.9799 75.181 37.6979 72.553 36.9279 71.064C34.3059 65.999 32.4459 62.17 28.0049 59.66C28.0079 59.459 28.2399 59.592 28.2599 59.416Z" fill="white"/>
<path opacity="0.4" fill-rule="evenodd" clip-rule="evenodd" d="M43.4941 67.0206C43.9081 66.3156 44.3571 65.6606 44.8411 65.0586C44.4271 65.7626 43.9781 66.4166 43.4941 67.0206Z" fill="white"/>
<path fill-rule="evenodd" clip-rule="evenodd" d="M96.271 58.9261C96.269 58.7591 96.763 59.0821 96.859 59.1711C97.131 59.4181 96.545 59.1691 96.271 58.9261Z" fill="white"/>
<path fill-rule="evenodd" clip-rule="evenodd" d="M30.1101 60.3965C30.3691 60.4295 30.4881 60.6635 30.6981 60.7645C30.6981 60.8065 30.6981 60.8475 30.6981 60.8885C30.8111 60.8695 31.1621 61.0805 30.9521 61.1335C30.7231 60.8895 30.0601 60.6415 30.1101 60.3965Z" fill="white"/>
<path fill-rule="evenodd" clip-rule="evenodd" d="M32.72 62.238C32.839 62.645 31.824 61.826 31.627 61.502C31.71 61.502 31.727 61.601 31.795 61.625C32.161 61.744 32.399 62.049 32.72 62.238Z" fill="white"/>
<path fill-rule="evenodd" clip-rule="evenodd" d="M33.8127 63.2184C33.8337 63.3934 33.9517 63.4244 33.9817 63.5864C33.6407 63.1844 33.1927 62.9394 32.8877 62.4824C33.0127 62.5474 33.0997 62.6644 33.2237 62.7274C33.5327 62.7304 33.6037 63.0774 33.8127 63.2184Z" fill="white"/>
<path fill-rule="evenodd" clip-rule="evenodd" d="M34.0679 63.5859C34.4499 63.6819 34.5089 64.2489 34.8239 64.4439C35.1669 65.1299 35.6599 65.5979 36.0029 66.2839C35.3689 65.3689 34.6509 64.5729 34.0679 63.5859Z" fill="white"/>
<path fill-rule="evenodd" clip-rule="evenodd" d="M38.2749 68.9823C38.2679 68.9933 38.2829 69.0992 38.2749 69.1042C37.9569 69.2542 36.5909 67.0583 36.0869 66.4062C36.2829 66.4892 36.3109 66.8143 36.5059 66.8963C37.1499 67.5133 37.6109 68.3963 38.2749 68.9823Z" fill="white"/>
<path fill-rule="evenodd" clip-rule="evenodd" d="M40.8838 69.8397C41.8508 69.2867 42.4498 68.1977 43.2418 67.3887C42.8008 68.1367 41.7748 69.7477 40.8838 69.8397Z" fill="white"/>
<path fill-rule="evenodd" clip-rule="evenodd" d="M43.4941 67.0219C43.9781 66.4179 44.4281 65.7639 44.8411 65.0599C45.3371 64.5159 45.7612 63.8659 46.4412 63.5879C45.4532 64.3989 44.3301 66.0719 43.3271 67.2669C43.3431 67.1279 43.4191 67.0749 43.4941 67.0219Z" fill="white"/>
<path fill-rule="evenodd" clip-rule="evenodd" d="M49.05 64.322C49.05 64.364 49.05 64.404 49.05 64.445C49.144 64.471 49.182 64.582 49.218 64.69C48.968 64.36 48.584 64.225 48.377 63.832C48.502 63.895 48.59 64.015 48.713 64.078C48.942 63.988 48.883 64.321 49.05 64.322Z" fill="white"/>
<path fill-rule="evenodd" clip-rule="evenodd" d="M50.228 65.793C50.79 66.24 51.15 66.983 51.66 67.51C52.431 68.837 50.367 66.159 50.228 65.793Z" fill="white"/>
<path fill-rule="evenodd" clip-rule="evenodd" d="M52.585 68.49C52.575 68.627 52.707 68.68 52.585 68.735C52.489 68.46 51.904 68.263 52.081 68C52.098 68.137 52.173 68.191 52.248 68.245C52.478 68.156 52.418 68.489 52.585 68.49Z" fill="white"/>
<path fill-rule="evenodd" clip-rule="evenodd" d="M53.8467 69.2274C54.2847 69.2934 54.4717 68.9914 54.8567 68.9824C54.9657 69.2704 53.9087 69.5554 53.5947 69.2274C53.6777 69.2274 53.7627 69.2274 53.8467 69.2274Z" fill="white"/>
<path fill-rule="evenodd" clip-rule="evenodd" d="M56.1207 67.7562C56.5057 67.3792 56.7447 66.7842 57.1297 66.4062C56.7077 67.1392 56.2457 67.8162 55.6987 68.3682C55.7247 68.1182 55.9277 68.1283 55.9527 67.8783C56.0357 67.8783 56.0507 67.7792 56.1207 67.7562Z" fill="white"/>
<path fill-rule="evenodd" clip-rule="evenodd" d="M57.2979 66.039C58.2399 64.388 59.1159 62.639 60.4109 61.502C59.2229 62.915 58.2579 64.658 57.2139 66.284C57.2139 66.161 57.2819 66.138 57.2979 66.039Z" fill="white"/>
<path fill-rule="evenodd" clip-rule="evenodd" d="M34.2358 59.5404C34.5518 59.1644 34.9678 59.6924 35.4128 59.5404C35.4088 59.8934 34.6188 59.4334 34.2358 59.5404Z" fill="white"/>
<path fill-rule="evenodd" clip-rule="evenodd" d="M22.8719 61.6252C22.7439 61.5592 22.8659 61.4972 22.9569 61.5022C23.0659 61.7902 22.9129 61.7772 23.1239 61.9932C23.1989 61.9382 23.2749 61.8852 23.2919 61.7472C23.4519 62.1222 23.2729 61.9102 23.1239 62.2382C23.0279 62.2152 23.0779 62.1142 23.1239 62.1152C22.8579 61.8972 22.8429 61.8582 22.3669 62.2382C22.1679 62.0592 23.0459 61.7672 22.8719 61.6252Z" fill="white"/>
<path fill-rule="evenodd" clip-rule="evenodd" d="M30.2777 62.4824C30.3537 62.5374 30.4287 62.5904 30.4467 62.7274C30.4027 62.9154 30.3577 62.7354 30.3627 62.6054C30.2067 62.7034 30.1097 63.1824 30.3627 63.2184C30.3327 63.4114 30.2157 63.1114 30.1937 63.3414C30.0777 63.2124 30.1337 62.7874 30.2777 62.4824Z" fill="white"/>
<path fill-rule="evenodd" clip-rule="evenodd" d="M30.953 63.4638C30.871 63.4668 30.886 63.6148 30.869 63.7088C30.617 63.6288 30.95 63.4468 30.869 63.2188C31.066 63.2587 30.919 63.8008 31.205 63.7088C31.189 63.8078 31.122 63.8318 31.122 63.9548C31.066 63.9548 31.01 63.9548 30.954 63.9548C31.092 63.7108 30.945 63.7998 30.953 63.4638Z" fill="white"/>
<path fill-rule="evenodd" clip-rule="evenodd" d="M42.2318 78.1786C43.6938 75.8146 44.5888 72.6206 46.2738 70.5746C46.2988 70.5746 46.3278 70.5746 46.3568 70.5746C44.4748 73.6116 43.6328 78.0276 42.0638 81.9786C41.6118 83.1146 40.9518 84.8836 40.1268 85.0446C38.5428 85.3546 37.2278 81.6316 36.5918 80.1396C35.6288 77.8786 34.9248 75.6456 33.9818 73.8876C32.0858 70.3476 27.3618 67.2756 23.7988 66.8956C22.3068 66.7386 21.3298 66.8416 19.6738 66.7746C21.8768 66.1426 23.1458 64.5516 25.3128 64.3206C28.7848 63.9516 32.1888 66.0986 33.8978 68.9816C34.8848 70.6426 35.7448 72.9986 36.6758 75.1116C37.7178 77.4836 39.2168 81.7056 41.2218 79.6496C41.2888 79.6266 41.3048 79.5266 41.3888 79.5276C41.7118 79.2606 41.9168 78.8226 42.1468 78.4236C42.1618 78.3246 42.2318 78.3016 42.2318 78.1786Z" fill="white"/>
<path fill-rule="evenodd" clip-rule="evenodd" d="M46.2729 70.5749C46.5869 70.1339 46.743 70.1439 47.366 70.0859C46.955 70.1149 45.595 71.8619 46.691 70.4529C46.637 70.0869 46.5119 70.5689 46.3559 70.4529C46.3559 70.4949 46.3559 70.5349 46.3559 70.5749C46.3279 70.5749 46.2989 70.5749 46.2729 70.5749Z" fill="white"/>
<path fill-rule="evenodd" clip-rule="evenodd" d="M44.25 73.3953C44.234 73.2963 44.167 73.2733 44.167 73.1503C43.966 72.9033 44.26 73.2053 44.335 73.2723C44.38 73.4493 44.008 73.5723 44.251 73.6403C44.119 73.5653 43.951 74.1223 43.748 73.8873C43.762 73.7463 43.83 73.8173 43.83 73.8873C44.025 73.8033 44.056 73.4783 44.25 73.3953Z" fill="white"/>
<path fill-rule="evenodd" clip-rule="evenodd" d="M42.8218 76.0957C42.9738 76.8727 42.9738 74.8767 43.1568 75.8497C43.1818 75.9867 42.8168 76.6857 42.7358 76.8317C42.7438 76.6787 42.7728 76.4257 42.8218 76.0957Z" fill="white"/>
<path fill-rule="evenodd" clip-rule="evenodd" d="M42.0628 78.1794C41.5578 78.7194 41.7498 78.1434 42.0628 77.5664C42.1948 77.6104 41.9888 77.7814 42.1468 77.8124C42.1308 77.9504 42.0628 77.8804 42.0628 77.8124C41.9558 77.8394 41.9528 78.1784 42.0628 78.1794Z" fill="white"/>
<path fill-rule="evenodd" clip-rule="evenodd" d="M41.2217 79.6497C41.5237 79.1087 41.8597 78.6187 42.2317 78.1777C42.2317 78.3007 42.1617 78.3237 42.1477 78.4237C41.8607 78.7387 41.6077 79.1087 41.3897 79.5277C41.3057 79.5267 41.2887 79.6267 41.2217 79.6497Z" fill="white"/>
<path fill-rule="evenodd" clip-rule="evenodd" d="M38.8639 78.9146C38.6769 78.6306 38.7899 78.5866 38.6959 78.3026C38.5959 78.3226 38.6249 78.5266 38.6119 78.6706C38.3949 78.6586 38.4919 78.1916 38.2749 78.1796C38.3039 77.9886 38.4239 78.2856 38.4429 78.0566C38.5389 78.0796 38.4889 78.1796 38.4429 78.1796C38.8689 78.1516 38.9639 79.3866 39.0319 78.0566C39.1139 78.0606 39.0969 78.2076 39.1149 78.3026C39.1869 78.3236 39.1949 78.2546 39.2009 78.1796C39.5259 78.2886 38.7149 78.5536 39.2009 78.5476C39.1239 78.7646 38.8899 78.7506 38.8639 79.0376C38.7689 79.0146 38.8179 78.9146 38.8639 78.9146Z" fill="white"/>
<path fill-rule="evenodd" clip-rule="evenodd" d="M31.5412 66.0397C31.5572 65.9007 31.6272 65.9717 31.6272 66.0397C31.8862 65.9167 31.5332 65.7067 31.4592 65.6717C31.3872 65.6487 31.3782 65.7197 31.3742 65.7947C31.2502 65.7407 31.4072 65.6377 31.3742 65.4277C31.4482 65.5017 31.5252 65.5737 31.5412 65.4277C31.4732 65.7467 31.8632 65.5317 31.7102 65.6717C31.7482 65.7807 31.7832 65.8897 31.8782 65.9167C31.8762 66.0367 31.7762 66.0117 31.7102 66.0397C31.6962 66.1437 31.7442 66.1547 31.7942 66.1617C31.7482 66.5177 31.6622 65.9747 31.5412 66.0397Z" fill="white"/>
<path opacity="0.4" fill-rule="evenodd" clip-rule="evenodd" d="M41.3892 79.5278C41.6072 79.1088 41.8602 78.7398 42.1472 78.4238C41.9172 78.8228 41.7122 79.2618 41.3892 79.5278Z" fill="white"/>
<path fill-rule="evenodd" clip-rule="evenodd" d="M31.794 64.4434C31.89 64.4664 31.841 64.5674 31.794 64.5664C31.87 64.7824 32.089 64.7914 32.216 64.9354C32.2 65.0344 32.131 65.0564 32.131 65.1804C32.36 65.4074 31.875 65.1474 32.131 64.9354C32.021 64.9784 31.997 65.1504 31.879 65.1804C31.805 65.2874 32.102 64.6984 31.627 64.6884C31.648 64.5564 31.792 64.6064 31.794 64.4434Z" fill="white"/>
<path fill-rule="evenodd" clip-rule="evenodd" d="M29.605 64.9364C29.71 64.4674 29.951 64.9565 30.194 64.6895C30.347 64.7855 30.144 64.8224 30.027 64.8124C30.029 64.9314 30.129 64.9084 30.194 64.9364C30.019 65.2534 29.852 64.6184 29.605 64.9364Z" fill="white"/>
<path fill-rule="evenodd" clip-rule="evenodd" d="M104.771 64.6895C104.771 64.8105 104.667 64.7854 104.604 64.8124C103.463 65.3694 103.484 65.2985 104.434 64.6895C104.548 64.6895 104.661 64.6895 104.771 64.6895Z" fill="white"/>
<path fill-rule="evenodd" clip-rule="evenodd" d="M32.7198 65.6719C32.7348 65.7769 32.6868 65.7879 32.6368 65.7949C32.6578 65.9269 32.8038 65.8769 32.8048 66.0399C33.0068 66.3109 32.6208 65.8819 32.4688 65.9169C32.6208 66.3009 32.4418 65.9799 32.2178 66.1619C32.2178 66.4059 32.4448 66.3179 32.3858 66.6529C32.4568 66.6739 32.4648 66.6049 32.4688 66.5299C32.5928 66.5829 32.4358 66.6869 32.4688 66.8969C32.3118 66.6339 32.2098 66.2929 32.0478 66.0399C31.8938 65.7809 32.1938 66.3179 32.3858 66.0399C32.2258 65.7129 32.4858 65.9069 32.7198 65.6719Z" fill="white"/>
<path fill-rule="evenodd" clip-rule="evenodd" d="M19.3369 66.7742C19.6949 66.9342 18.7349 66.6832 19.2509 66.8952C19.1799 67.2552 19.0409 66.7372 18.8309 66.8952C18.7909 66.6202 19.2889 66.5182 19.3369 66.7742Z" fill="white"/>
<path fill-rule="evenodd" clip-rule="evenodd" d="M63.8618 69.2285C64.0618 69.3865 64.0187 69.2125 64.2837 69.3505C64.1357 69.4315 63.9317 69.9175 64.1997 69.5955C64.4337 70.0185 63.5998 69.5995 63.8618 69.5955C63.7608 69.4345 63.8288 69.4025 63.8618 69.2285Z" fill="white"/>
<path fill-rule="evenodd" clip-rule="evenodd" d="M63.78 70.0859C63.912 70.1299 63.706 70.3029 63.862 70.3299C63.798 70.6019 63.569 70.6379 63.443 70.8219C63.186 71.0569 63.785 70.4999 63.527 70.3299C63.347 70.0309 63.615 70.5129 63.78 70.4529C63.678 70.2919 63.747 70.2609 63.78 70.0859Z" fill="white"/>
<path fill-rule="evenodd" clip-rule="evenodd" d="M49.47 73.1504C49.348 73.0954 49.479 73.0434 49.47 72.9044C49.423 72.6294 49.34 73.0544 49.218 72.7834C49.212 72.2344 48.633 71.5264 48.377 70.9434C48.436 71.0274 49.732 72.5854 49.47 73.1504Z" fill="white"/>
<path fill-rule="evenodd" clip-rule="evenodd" d="M63.1898 70.944C63.2498 70.78 63.3088 71.435 63.1058 71.68C63.0088 71.656 63.0588 71.556 63.1058 71.557C63.0698 71.447 63.0318 71.337 62.9378 71.312C62.8398 71.185 63.2758 71.293 63.1898 70.944Z" fill="white"/>
<path fill-rule="evenodd" clip-rule="evenodd" d="M60.665 75.2351C60.759 74.5951 61.705 74.1351 62.011 73.3961C62.206 73.2601 62.687 72.4041 62.601 72.6611C62.412 73.0391 62.187 73.3651 61.928 73.6411C61.913 73.7461 61.961 73.7571 62.011 73.7641C61.679 73.9921 61.054 74.6981 60.665 75.2351Z" fill="white"/>
<path fill-rule="evenodd" clip-rule="evenodd" d="M59.6549 76.5847C58.5719 77.7097 56.3759 83.8617 53.9319 82.4717C53.2429 82.0787 52.6749 80.5087 52.2469 79.5297C51.7159 78.3127 51.2109 77.3417 50.9019 76.0957C51.8749 77.9067 52.6339 80.0287 54.0989 81.1217C57.0689 81.2397 57.9869 78.3657 59.6549 76.5847Z" fill="white"/>
<path fill-rule="evenodd" clip-rule="evenodd" d="M55.6147 75.3579C55.8787 75.0299 55.3317 75.6779 55.6147 75.7259C55.9067 75.8279 55.1447 75.5369 55.4457 75.8479C55.1877 76.1169 55.3127 75.2949 55.6147 75.3579Z" fill="white"/>
<path fill-rule="evenodd" clip-rule="evenodd" d="M52.585 75.4794C52.725 75.2854 53.15 75.7124 53.343 75.8474C53.3 75.9574 52.604 76.1294 53.174 75.8474C53.042 75.6304 52.667 75.7674 52.585 75.4794Z" fill="white"/>
<path fill-rule="evenodd" clip-rule="evenodd" d="M74.7218 76.707C74.5928 76.423 75.1868 76.938 75.1428 77.321C74.7668 77.312 75.0368 77.04 74.8918 76.831C74.7238 77.072 74.5208 77.072 74.8068 76.831C74.8208 76.726 74.7718 76.713 74.7218 76.707Z" fill="white"/>
<path fill-rule="evenodd" clip-rule="evenodd" d="M41.7271 77.0748C41.8401 77.0558 42.0391 77.4878 42.0641 77.1978C42.1611 76.8458 42.1611 77.3938 42.0641 77.4418C41.8221 77.3378 41.7471 77.6888 41.7271 77.8108C41.7041 78.0998 41.5031 77.6698 41.3901 77.6868C41.4531 77.4098 41.7101 77.4198 41.7271 77.0748Z" fill="white"/>
<path fill-rule="evenodd" clip-rule="evenodd" d="M93.3229 77.4417C93.3089 77.5857 93.3439 77.6617 93.4099 77.6867C93.3609 78.0427 93.2759 77.4987 93.1549 77.5647C93.0289 77.6707 93.1779 77.7487 93.0709 78.0547C93.0039 77.9707 92.8419 77.8647 92.8189 78.0547C92.6849 78.0137 92.8909 77.8397 92.7339 77.8107C92.7549 77.4947 92.8789 77.9787 93.0709 77.8107C93.0689 77.6917 92.9659 77.7157 92.9039 77.6867C92.9769 77.5057 93.1139 77.4247 93.3229 77.4417Z" fill="white"/>
<path fill-rule="evenodd" clip-rule="evenodd" d="M74.4697 77.9338C74.6037 77.7898 74.7707 78.2618 74.9747 78.1788C75.0787 78.6678 75.6257 79.5018 75.9837 80.0178C76.0087 80.2378 75.9067 80.2698 75.8987 80.1408C75.4767 79.3258 75.0107 78.5768 74.4697 77.9338Z" fill="white"/>
<path fill-rule="evenodd" clip-rule="evenodd" d="M91.8939 78.793C92.3009 78.797 92.0169 78.99 92.0609 79.16C91.9579 79.21 91.8159 79.3 91.6389 79.528C91.3839 79.76 92.1379 78.932 91.8939 78.793Z" fill="white"/>
<path fill-rule="evenodd" clip-rule="evenodd" d="M90.0407 80.2632C90.0387 80.3822 89.9377 80.3592 89.8717 80.3852C90.0797 80.5482 89.7797 80.8412 89.9587 80.8772C89.7377 81.1812 89.5747 80.1602 90.0407 80.2632Z" fill="white"/>
<path fill-rule="evenodd" clip-rule="evenodd" d="M88.4418 83.5754C88.7938 83.0494 88.9158 82.8014 89.1988 82.4714C89.5658 82.0454 88.2698 83.9005 88.0208 84.1885C87.7948 84.4535 88.0838 84.1084 88.4418 83.5754Z" fill="white"/>
<path fill-rule="evenodd" clip-rule="evenodd" d="M87.5167 84.8016C87.4917 85.0916 87.2907 84.6606 87.1797 84.6796C87.1957 84.5396 87.2617 84.6106 87.2617 84.6796C87.5637 84.7446 87.4717 84.2446 87.7697 84.3126C87.7247 83.5736 88.9977 82.5376 87.7697 84.0656C88.0767 84.4196 87.2527 84.5386 87.5167 84.8016Z" fill="white"/>
<path fill-rule="evenodd" clip-rule="evenodd" d="M77.7517 82.1035C77.8477 82.1265 77.7987 82.2265 77.7517 82.2265C78.2417 82.9305 78.2217 82.7675 77.7517 82.5935C78.0477 82.8415 77.4547 82.5395 77.7517 82.4715C77.5847 82.2185 77.5847 82.3555 77.7517 82.1035Z" fill="white"/>
<path fill-rule="evenodd" clip-rule="evenodd" d="M80.4439 87.4979C80.3869 87.4979 80.3329 87.4979 80.2769 87.4979C80.4549 87.8359 80.1649 87.6859 80.0249 87.6209C80.0539 87.4799 80.1719 87.3099 80.1919 87.4979C80.2749 87.4949 80.2579 87.3489 80.2769 87.2539C80.4079 87.4309 80.6059 87.5099 80.7819 87.6209C80.7359 87.8709 80.5279 87.8609 80.6979 88.1119C80.9269 88.4849 80.5069 87.7759 80.5299 88.1119C80.3299 88.0759 80.6239 87.7779 80.6979 87.7449C80.6639 87.3309 80.3729 88.0699 80.4439 87.4979Z" fill="white"/>
<path fill-rule="evenodd" clip-rule="evenodd" d="M80.9497 87.6211C81.0927 87.7731 81.3817 87.9771 81.2027 88.2341C82.2027 88.5031 80.7707 88.4261 81.0327 87.7451C80.9497 87.8231 80.9497 88.0251 80.7817 87.9891C80.8117 87.8271 80.9297 87.7971 80.9497 87.6211Z" fill="white"/>
<path fill-rule="evenodd" clip-rule="evenodd" d="M27.2499 59.1713C27.5379 59.1173 27.7199 59.2203 27.9209 59.2933C27.2669 59.7213 26.5499 59.2493 25.7329 59.1713C25.7909 59.1713 25.8449 59.1713 25.9009 59.1713C26.3509 59.1713 26.7989 59.1713 27.2499 59.1713Z" fill="white"/>
<path fill-rule="evenodd" clip-rule="evenodd" d="M33.3102 59.4169C33.1062 59.4679 33.1272 59.1929 32.8892 59.2939C32.8892 59.2539 32.8892 59.2119 32.8892 59.1719C33.3662 59.1719 33.8432 59.1719 34.3202 59.1719C34.1582 59.7019 33.4962 59.1759 33.3102 59.4169Z" fill="white"/>
<path fill-rule="evenodd" clip-rule="evenodd" d="M83.7288 90.1963C83.4778 90.4423 82.9358 90.2663 82.5498 90.3203C82.8538 90.2713 83.6988 89.8403 83.7288 90.1963Z" fill="white"/>
</svg>
