<svg width="130" height="130" viewBox="0 0 130 130" fill="none" xmlns="http://www.w3.org/2000/svg">
<path d="M65 128.998C100.346 128.998 129 100.344 129 64.998C129 29.6518 100.346 0.998047 65 0.998047C29.6538 0.998047 1 29.6518 1 64.998C1 100.344 29.6538 128.998 65 128.998Z" fill="#FF9800"/>
<path d="M50.6786 34.4805H31.2236V53.0325H50.6786V34.4805Z" fill="white"/>
<path d="M98.776 34.4805H80.582V56.7435H98.776V34.4805Z" fill="white"/>
<path d="M98.776 58.7832H80.582V63.0512H98.776V58.7832Z" fill="white"/>
<path d="M92.291 79.7461H80.582V95.5161H92.291V79.7461Z" fill="white"/>
<path d="M85.086 64.9062H80.582V77.7063H85.086V64.9062Z" fill="white"/>
<path d="M91.9304 64.9062H87.0654V77.7063H91.9304V64.9062Z" fill="white"/>
<path d="M98.4145 64.9062H94.2705V77.7063H98.4145V64.9062Z" fill="white"/>
<path d="M98.4145 88.7441H94.2705V95.3291H98.4145V88.7441Z" fill="white"/>
<path d="M98.4145 80.0254H94.2705V86.6104H98.4145V80.0254Z" fill="white"/>
<path d="M78.4198 34.4805H52.8408V63.0495H78.4198V34.4805Z" fill="white"/>
<path d="M67.2518 64.9043H52.8408V82.5273H67.2518V64.9043Z" fill="white"/>
<path d="M78.4207 64.9043H69.0537V82.5273H78.4207V64.9043Z" fill="white"/>
<path d="M78.4207 91.0605H69.0537V95.3276H78.4207V91.0605Z" fill="white"/>
<path d="M78.4207 84.7539H69.0537V89.3919H78.4207V84.7539Z" fill="white"/>
<path d="M59.6868 84.4766H52.8408V95.2366H59.6868V84.4766Z" fill="white"/>
<path d="M67.252 84.4766H61.667V95.2366H67.252V84.4766Z" fill="white"/>
<path d="M39.8696 76.7773H31.2236V95.3293H39.8696V76.7773Z" fill="white"/>
<path d="M50.6786 55.3047H31.2236V63.8377H50.6786V55.3047Z" fill="white"/>
<path d="M39.8696 66.0176H31.2236V74.5516H39.8696V66.0176Z" fill="white"/>
<path d="M51.0386 66.1113H42.3926V74.6443H51.0386V66.1113Z" fill="white"/>
<path d="M51.0386 90.3203H42.3926V95.3293H51.0386V90.3203Z" fill="white"/>
<path d="M51.0386 76.916H42.3926V88.046H51.0386V76.916Z" fill="white"/>
</svg>
