<svg width="130" height="130" viewBox="0 0 130 130" fill="none" xmlns="http://www.w3.org/2000/svg">
<path d="M65 128.998C100.346 128.998 129 100.344 129 64.998C129 29.6518 100.346 0.998047 65 0.998047C29.6538 0.998047 1 29.6518 1 64.998C1 100.344 29.6538 128.998 65 128.998Z" fill="#0277BD"/>
<path d="M32.4321 60.5723H26.1821V82.2773H32.4321V60.5723Z" fill="white"/>
<path d="M41.354 64.9121H35.105V82.2751H41.354V64.9121Z" fill="white"/>
<path d="M94.896 60.5996H88.646V82.2756H94.896V60.5996Z" fill="white"/>
<path d="M103.817 66.0254H97.5693V82.2754H103.817V66.0254Z" fill="white"/>
<path d="M50.2783 54.0605H44.0283V82.2755H50.2783V54.0605Z" fill="white"/>
<path d="M85.9721 45.9902H79.7241V82.2752H85.9721V45.9902Z" fill="white"/>
<path d="M59.2021 34.3027H52.9521V82.2757H59.2021V34.3027Z" fill="white"/>
<path d="M77.0503 30.6855H70.8003V82.2755H77.0503V30.6855Z" fill="white"/>
<path d="M68.125 20.1113H61.875V82.2753H68.125V20.1113Z" fill="white"/>
<path d="M26.1821 94.5234H102.438" stroke="white" stroke-width="2" stroke-miterlimit="10"/>
<path d="M97.7992 100.249L96.8442 99.2238L101.9 94.5238L96.8442 89.8238L97.7992 88.7988L103.956 94.5238L97.7992 100.249Z" fill="white"/>
</svg>
