<svg width="130" height="130" viewBox="0 0 130 130" fill="none" xmlns="http://www.w3.org/2000/svg">
<path d="M65 128.998C100.346 128.998 129 100.344 129 64.998C129 29.6518 100.346 0.998047 65 0.998047C29.6538 0.998047 1 29.6518 1 64.998C1 100.344 29.6538 128.998 65 128.998Z" fill="#0277BD"/>
<path d="M65.0002 107.434C88.4071 107.434 107.382 88.4589 107.382 65.0519C107.382 41.645 88.4071 22.6699 65.0002 22.6699C41.5932 22.6699 22.6182 41.645 22.6182 65.0519C22.6182 88.4589 41.5932 107.434 65.0002 107.434Z" stroke="white"/>
<path d="M68.1407 57.4498V60.6816H67.7493V57.8601H67.7304L66.9413 58.384V57.9863L67.7493 57.4498H68.1407Z" fill="white"/>
<path d="M67.0045 55.3828V55.0988L68.0712 53.931C68.1964 53.7942 68.2995 53.6754 68.3805 53.5744C68.4615 53.4723 68.5215 53.3766 68.5604 53.2872C68.6004 53.1967 68.6204 53.102 68.6204 53.0031C68.6204 52.8895 68.593 52.7911 68.5383 52.708C68.4847 52.6249 68.411 52.5607 68.3174 52.5155C68.2238 52.4703 68.1186 52.4476 68.0018 52.4476C67.8777 52.4476 67.7693 52.4734 67.6767 52.525C67.5852 52.5755 67.5142 52.6465 67.4637 52.738C67.4142 52.8295 67.3895 52.9368 67.3895 53.0599H67.0171C67.0171 52.8706 67.0608 52.7043 67.1481 52.5613C67.2354 52.4182 67.3543 52.3067 67.5047 52.2267C67.6562 52.1467 67.8261 52.1068 68.0144 52.1068C68.2038 52.1068 68.3716 52.1467 68.5178 52.2267C68.6641 52.3067 68.7787 52.4145 68.8618 52.5502C68.9449 52.6859 68.9865 52.8369 68.9865 53.0031C68.9865 53.122 68.9649 53.2382 68.9218 53.3519C68.8797 53.4644 68.8061 53.5901 68.7009 53.729C68.5967 53.8668 68.4521 54.0352 68.2669 54.234L67.541 55.0104V55.0356H69.0433V55.3828H67.0045Z" fill="white"/>
<path d="M68.0965 50.1301C67.8882 50.1301 67.7025 50.0944 67.5394 50.0228C67.3774 49.9513 67.2485 49.8519 67.1528 49.7246C67.0581 49.5962 67.0066 49.4474 66.9982 49.278H67.3958C67.4042 49.3821 67.44 49.4721 67.5031 49.5478C67.5663 49.6225 67.6488 49.6804 67.7509 49.7214C67.8529 49.7624 67.966 49.783 68.0902 49.783C68.229 49.783 68.3521 49.7588 68.4594 49.7104C68.5667 49.662 68.6509 49.5946 68.7119 49.5084C68.7729 49.4221 68.8035 49.3222 68.8035 49.2085C68.8035 49.0897 68.774 48.985 68.7151 48.8945C68.6562 48.803 68.5699 48.7314 68.4563 48.6799C68.3427 48.6283 68.2038 48.6026 68.0397 48.6026H67.7809V48.2554H68.0397C68.168 48.2554 68.2806 48.2322 68.3774 48.186C68.4752 48.1397 68.5515 48.0744 68.6062 47.9903C68.662 47.9061 68.6898 47.8072 68.6898 47.6936C68.6898 47.5842 68.6656 47.489 68.6172 47.408C68.5688 47.327 68.5005 47.2639 68.4121 47.2186C68.3248 47.1734 68.2217 47.1508 68.1028 47.1508C67.9913 47.1508 67.8861 47.1713 67.7872 47.2123C67.6893 47.2523 67.6094 47.3107 67.5473 47.3875C67.4852 47.4632 67.4516 47.5547 67.4463 47.662H67.0676C67.0739 47.4927 67.1249 47.3443 67.2207 47.217C67.3164 47.0887 67.4416 46.9887 67.5962 46.9172C67.7519 46.8457 67.9229 46.8099 68.1091 46.8099C68.309 46.8099 68.4805 46.8504 68.6236 46.9314C68.7666 47.0114 68.8766 47.1171 68.9534 47.2486C69.0302 47.3801 69.0686 47.5221 69.0686 47.6747C69.0686 47.8567 69.0207 48.0118 68.925 48.1402C68.8303 48.2685 68.7014 48.3574 68.5383 48.4069V48.4321C68.7424 48.4658 68.9018 48.5526 69.0165 48.6925C69.1312 48.8314 69.1885 49.0034 69.1885 49.2085C69.1885 49.3842 69.1406 49.542 69.0449 49.682C68.9502 49.8208 68.8208 49.9302 68.6567 50.0102C68.4926 50.0901 68.3058 50.1301 68.0965 50.1301Z" fill="white"/>
<path d="M66.9287 44.1243V43.8024L68.349 41.5553H68.5825V42.0539H68.4247L67.3516 43.7519V43.7772H69.2642V44.1243H66.9287ZM68.45 44.7871V44.0265V43.8766V41.5553H68.8224V44.7871H68.45Z" fill="white"/>
<path d="M68.0144 39.5344C67.8293 39.5344 67.6625 39.4976 67.5142 39.424C67.3658 39.3503 67.247 39.2493 67.1575 39.121C67.0681 38.9926 67.0192 38.8464 67.0108 38.6823H67.3895C67.4042 38.8285 67.4705 38.9495 67.5883 39.0452C67.7072 39.1399 67.8493 39.1872 68.0144 39.1872C68.147 39.1872 68.2648 39.1562 68.3679 39.0941C68.4721 39.0321 68.5536 38.9469 68.6125 38.8385C68.6725 38.7291 68.7025 38.6055 68.7025 38.4677C68.7025 38.3267 68.6714 38.201 68.6094 38.0905C68.5483 37.979 68.4642 37.8911 68.3569 37.827C68.2496 37.7628 68.127 37.7302 67.9892 37.7291C67.8903 37.7281 67.7888 37.7433 67.6846 37.7749C67.5805 37.8054 67.4947 37.8449 67.4274 37.8932L67.0613 37.8491L67.257 36.2584H68.936V36.6056H67.5852L67.4716 37.5587H67.4905C67.5568 37.5061 67.6399 37.4624 67.7398 37.4277C67.8398 37.393 67.9439 37.3756 68.0523 37.3756C68.2501 37.3756 68.4263 37.423 68.5809 37.5177C68.7366 37.6113 68.8587 37.7396 68.9471 37.9027C69.0365 38.0658 69.0812 38.252 69.0812 38.4613C69.0812 38.6675 69.0349 38.8516 68.9423 39.0137C68.8508 39.1746 68.7245 39.3019 68.5636 39.3956C68.4026 39.4881 68.2196 39.5344 68.0144 39.5344Z" fill="white"/>
<path d="M68.0775 34.2356C67.945 34.2335 67.8124 34.2082 67.6799 34.1598C67.5473 34.1115 67.4263 34.0299 67.3169 33.9152C67.2075 33.7995 67.1197 33.6433 67.0534 33.4466C66.9871 33.2488 66.954 33.0005 66.954 32.7017C66.954 32.4156 66.9808 32.162 67.0345 31.9411C67.0881 31.7191 67.166 31.5324 67.268 31.3809C67.3701 31.2283 67.4931 31.1126 67.6373 31.0337C67.7824 30.9548 67.946 30.9154 68.128 30.9154C68.309 30.9154 68.47 30.9517 68.6109 31.0243C68.753 31.0958 68.8687 31.1957 68.9581 31.3241C69.0475 31.4524 69.1054 31.6002 69.1317 31.7675H68.7466C68.7109 31.6223 68.6414 31.5019 68.5383 31.4061C68.4352 31.3104 68.2985 31.2625 68.128 31.2625C67.8777 31.2625 67.6804 31.3714 67.5363 31.5892C67.3932 31.807 67.3211 32.1126 67.3201 32.506H67.3453C67.4042 32.4166 67.4742 32.3403 67.5552 32.2772C67.6373 32.2131 67.7277 32.1636 67.8266 32.1289C67.9255 32.0942 68.0302 32.0768 68.1407 32.0768C68.3258 32.0768 68.4952 32.1231 68.6488 32.2157C68.8024 32.3072 68.9255 32.434 69.0181 32.596C69.1106 32.757 69.1569 32.9416 69.1569 33.1499C69.1569 33.3498 69.1122 33.5328 69.0228 33.6991C68.9334 33.8642 68.8077 33.9957 68.6456 34.0936C68.4847 34.1904 68.2953 34.2377 68.0775 34.2356ZM68.0775 33.8884C68.2101 33.8884 68.329 33.8553 68.4342 33.789C68.5404 33.7227 68.6241 33.6338 68.6851 33.5223C68.7472 33.4108 68.7782 33.2867 68.7782 33.1499C68.7782 33.0163 68.7482 32.8948 68.6883 32.7854C68.6293 32.6749 68.5478 32.5871 68.4437 32.5218C68.3406 32.4566 68.2227 32.424 68.0902 32.424C67.9902 32.424 67.8971 32.444 67.8109 32.484C67.7246 32.5229 67.6488 32.5765 67.5836 32.6449C67.5194 32.7133 67.4689 32.7917 67.4321 32.88C67.3953 32.9674 67.3769 33.0594 67.3769 33.1562C67.3769 33.2846 67.4069 33.4045 67.4668 33.516C67.5279 33.6275 67.611 33.7175 67.7162 33.7858C67.8224 33.8542 67.9429 33.8884 68.0775 33.8884Z" fill="white"/>
<path d="M67.1055 28.8945L68.551 26.0351V26.0098H66.8845V25.6627H68.9549V26.0288L67.5158 28.8945H67.1055Z" fill="white"/>
<path d="M65.165 65.1261V22.7441" stroke="white" stroke-width="0.5"/>
<path d="M64.105 59.8301H66.225" stroke="white" stroke-width="0.5"/>
<path d="M64.105 54.5312H66.225" stroke="white" stroke-width="0.5"/>
<path d="M64.105 49.2344H66.225" stroke="white" stroke-width="0.5"/>
<path d="M64.105 43.9355H66.225" stroke="white" stroke-width="0.5"/>
<path d="M64.105 38.6387H66.225" stroke="white" stroke-width="0.5"/>
<path d="M64.105 33.3418H66.225" stroke="white" stroke-width="0.5"/>
<path d="M64.105 28.043H66.225" stroke="white" stroke-width="0.5"/>
<path d="M64.9991 102.305C85.5734 102.305 102.252 85.6261 102.252 65.0518C102.252 44.4776 85.5734 27.7988 64.9991 27.7988C44.4248 27.7988 27.7461 44.4776 27.7461 65.0518C27.7461 85.6261 44.4248 102.305 64.9991 102.305Z" stroke="white" stroke-width="0.25"/>
<path d="M65.0003 96.6402C82.5071 96.6402 96.6993 82.4481 96.6993 64.9412C96.6993 47.4343 82.5071 33.2422 65.0003 33.2422C47.4934 33.2422 33.3013 47.4343 33.3013 64.9412C33.3013 82.4481 47.4934 96.6402 65.0003 96.6402Z" stroke="white" stroke-width="0.25"/>
<path d="M65.0003 91.6442C79.7469 91.6442 91.7013 79.6897 91.7013 64.9432C91.7013 50.1966 79.7469 38.2422 65.0003 38.2422C50.2538 38.2422 38.2993 50.1966 38.2993 64.9432C38.2993 79.6897 50.2538 91.6442 65.0003 91.6442Z" stroke="white" stroke-width="0.25"/>
<path d="M64.9993 86.3043C76.8 86.3043 86.3663 76.738 86.3663 64.9373C86.3663 53.1366 76.8 43.5703 64.9993 43.5703C53.1987 43.5703 43.6323 53.1366 43.6323 64.9373C43.6323 76.738 53.1987 86.3043 64.9993 86.3043Z" stroke="white" stroke-width="0.25"/>
<path d="M64.9992 80.8636C73.7932 80.8636 80.9222 73.7346 80.9222 64.9406C80.9222 56.1465 73.7932 49.0176 64.9992 49.0176C56.2051 49.0176 49.0762 56.1465 49.0762 64.9406C49.0762 73.7346 56.2051 80.8636 64.9992 80.8636Z" stroke="white" stroke-width="0.25"/>
<path d="M64.999 75.6455C70.9709 75.6455 75.812 70.8044 75.812 64.8325C75.812 58.8607 70.9709 54.0195 64.999 54.0195C59.0272 54.0195 54.186 58.8607 54.186 64.8325C54.186 70.8044 59.0272 75.6455 64.999 75.6455Z" stroke="white" stroke-width="0.25"/>
<path d="M64.999 70.2753C67.9438 70.2753 70.331 67.8881 70.331 64.9433C70.331 61.9985 67.9438 59.6113 64.999 59.6113C62.0542 59.6113 59.667 61.9985 59.667 64.9433C59.667 67.8881 62.0542 70.2753 64.999 70.2753Z" stroke="white" stroke-width="0.25"/>
<path d="M65.165 65.1261L98.103 38.4551" stroke="white" stroke-width="0.5"/>
<path d="M68.6152 60.9707L69.9492 62.6187" stroke="white" stroke-width="0.5"/>
<path d="M72.7324 57.6387L74.0664 59.2857" stroke="white" stroke-width="0.5"/>
<path d="M76.8491 54.3027L78.1831 55.9507" stroke="white" stroke-width="0.5"/>
<path d="M80.9663 50.9688L82.3003 52.6157" stroke="white" stroke-width="0.5"/>
<path d="M85.0845 47.6348L86.4175 49.2828" stroke="white" stroke-width="0.5"/>
<path d="M89.2002 44.3027L90.5322 45.9497" stroke="white" stroke-width="0.5"/>
<path d="M93.3174 40.9668L94.6514 42.6138" stroke="white" stroke-width="0.5"/>
<path d="M65.165 65.127L106.621 73.942" stroke="white" stroke-width="0.5"/>
<path d="M70.566 65.1934L70.126 67.2674" stroke="white" stroke-width="0.5"/>
<path d="M75.7501 66.2949L75.3081 68.3679" stroke="white" stroke-width="0.5"/>
<path d="M80.9302 67.3965L80.4912 69.4695" stroke="white" stroke-width="0.5"/>
<path d="M86.1129 68.498L85.6729 70.569" stroke="white" stroke-width="0.5"/>
<path d="M91.296 69.5996L90.854 71.6716" stroke="white" stroke-width="0.5"/>
<path d="M96.4781 70.6992L96.0371 72.7732" stroke="white" stroke-width="0.5"/>
<path d="M101.658 71.8027L101.22 73.8757" stroke="white" stroke-width="0.5"/>
<path d="M65.165 65.127L83.743 103.224" stroke="white" stroke-width="0.5"/>
<path d="M68.4401 69.4258L66.5361 70.3558" stroke="white" stroke-width="0.5"/>
<path d="M70.761 74.1895L68.855 75.1184" stroke="white" stroke-width="0.5"/>
<path d="M73.0852 78.9512L71.1802 79.8812" stroke="white" stroke-width="0.5"/>
<path d="M75.407 83.7109L73.502 84.6409" stroke="white" stroke-width="0.5"/>
<path d="M77.7292 88.4727L75.8252 89.4017" stroke="white" stroke-width="0.5"/>
<path d="M80.052 93.2344L78.147 94.1654" stroke="white" stroke-width="0.5"/>
<path d="M82.3742 97.9961L80.4692 98.9241" stroke="white" stroke-width="0.5"/>
<path d="M65.1654 65.127L47.2544 103.54" stroke="white" stroke-width="0.5"/>
<path d="M63.8863 70.3784L61.9663 69.4824" stroke="white" stroke-width="0.5"/>
<path d="M61.647 75.1792L59.7271 74.2852" stroke="white" stroke-width="0.5"/>
<path d="M59.4083 79.9789L57.4873 79.0859" stroke="white" stroke-width="0.5"/>
<path d="M57.17 84.7817L55.249 83.8887" stroke="white" stroke-width="0.5"/>
<path d="M54.9313 89.5815L53.0103 88.6875" stroke="white" stroke-width="0.5"/>
<path d="M52.691 94.3882L50.771 93.4902" stroke="white" stroke-width="0.5"/>
<path d="M50.4532 99.189L48.5322 98.293" stroke="white" stroke-width="0.5"/>
<path d="M65.1651 65.127L23.8701 74.663" stroke="white" stroke-width="0.5"/>
<path d="M60.2421 67.3541L59.7651 65.2891" stroke="white" stroke-width="0.5"/>
<path d="M55.0801 68.5445L54.6021 66.4805" stroke="white" stroke-width="0.5"/>
<path d="M49.9179 69.7368L49.4419 67.6738" stroke="white" stroke-width="0.5"/>
<path d="M44.7548 70.9273L44.2788 68.8633" stroke="white" stroke-width="0.5"/>
<path d="M39.5932 72.1207L39.1172 70.0547" stroke="white" stroke-width="0.5"/>
<path d="M34.4311 73.3101L33.9551 71.2461" stroke="white" stroke-width="0.5"/>
<path d="M29.27 74.5035L28.792 72.4375" stroke="white" stroke-width="0.5"/>
<path d="M65.1651 65.1271L31.7681 39.0371" stroke="white" stroke-width="0.5"/>
<path d="M60.3369 62.7012L61.6429 61.0332" stroke="white" stroke-width="0.5"/>
<path d="M56.1631 59.4435L57.4691 57.7715" stroke="white" stroke-width="0.5"/>
<path d="M51.9883 56.1817L53.2933 54.5117" stroke="white" stroke-width="0.5"/>
<path d="M47.813 52.918L49.119 51.248" stroke="white" stroke-width="0.5"/>
<path d="M43.6392 49.6573L44.9442 47.9883" stroke="white" stroke-width="0.5"/>
<path d="M39.4648 46.3936L40.7688 44.7246" stroke="white" stroke-width="0.5"/>
<path d="M35.2891 43.1329L36.5941 41.4629" stroke="white" stroke-width="0.5"/>
<path opacity="0.6" d="M24.103 74.8001L40.098 45.9161L64.984 54.9521L95.794 40.2871L95.35 71.9841L78.907 93.7611L60.836 75.5391L24.103 74.8001Z" fill="white"/>
</svg>
