<svg width="130" height="130" viewBox="0 0 130 130" fill="none" xmlns="http://www.w3.org/2000/svg">
<path d="M65 129C100.346 129 129 100.346 129 65C129 29.6538 100.346 1 65 1C29.6538 1 1 29.6538 1 65C1 100.346 29.6538 129 65 129Z" fill="#0277BD"/>
<path d="M69.6333 68.7021C75.5118 68.7021 80.2773 63.9366 80.2773 58.0581C80.2773 52.1795 75.5118 47.4141 69.6333 47.4141C63.7547 47.4141 58.9893 52.1795 58.9893 58.0581C58.9893 63.9366 63.7547 68.7021 69.6333 68.7021Z" fill="white"/>
<path d="M47.4213 82.8367C50.6974 82.8367 53.3533 80.1808 53.3533 76.9047C53.3533 73.6285 50.6974 70.9727 47.4213 70.9727C44.1451 70.9727 41.4893 73.6285 41.4893 76.9047C41.4893 80.1808 44.1451 82.8367 47.4213 82.8367Z" fill="white"/>
<path d="M89.7737 78.5727C92.6781 78.5727 95.0326 76.2182 95.0326 73.3137C95.0326 70.4092 92.6781 68.0547 89.7737 68.0547C86.8692 68.0547 84.5146 70.4092 84.5146 73.3137C84.5146 76.2182 86.8692 78.5727 89.7737 78.5727Z" fill="white"/>
<path d="M91.7929 45.5896C93.9534 45.5896 95.7049 43.8382 95.7049 41.6776C95.7049 39.5171 93.9534 37.7656 91.7929 37.7656C89.6323 37.7656 87.8809 39.5171 87.8809 41.6776C87.8809 43.8382 89.6323 45.5896 91.7929 45.5896Z" fill="white"/>
<path d="M29.874 32.9277V94.8477H102.353" stroke="white" stroke-width="3" stroke-linecap="round"/>
</svg>
