<svg width="130" height="130" viewBox="0 0 130 130" fill="none" xmlns="http://www.w3.org/2000/svg">
<path d="M65 129C100.346 129 129 100.346 129 65C129 29.6538 100.346 1 65 1C29.6538 1 1 29.6538 1 65C1 100.346 29.6538 129 65 129Z" fill="#0277BD"/>
<path d="M98.6002 33.9008C97.5002 33.9008 96.6002 34.8008 96.6002 35.9008V42.4008L67.2002 42.0008V35.9008C67.2002 34.8008 66.3002 33.9008 65.2002 33.9008C64.1002 33.9008 63.2002 34.8008 63.2002 35.9008V42.4008L49.0002 44.9008L33.7002 37.8008V35.8008C33.7002 34.7008 32.8002 33.8008 31.7002 33.8008C30.6002 33.8008 29.7002 34.7008 29.7002 35.8008V94.1008C29.7002 95.2008 30.6002 96.1008 31.7002 96.1008C32.8002 96.1008 33.7002 95.2008 33.7002 94.1008V91.4008L63.2002 90.2008V94.1008C63.2002 95.2008 64.1002 96.1008 65.2002 96.1008C66.3002 96.1008 67.2002 95.2008 67.2002 94.1008V88.2008L71.9002 83.9008L96.6002 92.1008V94.2008C96.6002 95.3008 97.5002 96.2008 98.6002 96.2008C99.7002 96.2008 100.6 95.3008 100.6 94.2008V35.9008C100.6 34.8008 99.7002 33.9008 98.6002 33.9008ZM33.7002 48.5008L48.9002 45.7008L63.2002 52.3008V55.4008L33.7002 54.0008V48.5008ZM63.2002 73.5008L48.4002 66.9008L63.2002 61.4008V73.5008ZM67.2002 56.2008L96.7002 53.9008V60.3008L91.0002 65.5008L67.2002 60.2008V56.2008ZM96.6002 61.3008V66.7008L91.8002 65.6008L96.6002 61.3008ZM96.6002 53.1008L67.1002 55.4008V52.7008L96.6002 48.5008V53.1008ZM63.2002 56.2008V60.6008L47.5002 66.5008L33.8002 60.3008V54.8008L63.2002 56.2008ZM33.7002 61.2008L46.4002 66.9008L33.7002 71.7008V61.2008ZM33.7002 72.4008L47.4002 67.3008L63.2002 74.4008V80.9008L33.7002 82.0008V72.4008ZM67.2002 75.3008L79.0002 76.4008L71.7002 83.1008L67.2002 81.6008V75.3008ZM67.2002 74.5008V60.9008L90.3002 66.1008L79.8002 75.7008L67.2002 74.5008ZM91.2002 66.3008L96.7002 67.5008V77.2008L80.9002 75.8008L91.2002 66.3008ZM96.6002 43.1008V47.8008L67.2002 52.0008V42.7008L96.6002 43.1008ZM63.2002 43.1008V51.5008L50.2002 45.5008L63.2002 43.1008ZM47.7002 45.2008L33.7002 47.7008V38.7008L47.7002 45.2008ZM33.7002 90.7008V82.8008L63.2002 81.6008V89.5008L33.7002 90.7008ZM67.2002 87.2008V82.3008L71.1002 83.6008L67.2002 87.2008ZM72.5002 83.3008L80.0002 76.4008L96.6002 78.0008V91.3008L72.5002 83.3008Z" fill="white"/>
</svg>
