<svg width="130" height="130" viewBox="0 0 130 130" fill="none" xmlns="http://www.w3.org/2000/svg">
<g clip-path="url(#clip0_1183_778)">
<path d="M129.618 65.0005C129.618 100.689 100.682 129.618 65.0005 129.618C29.3185 129.618 0.382812 100.689 0.382812 65.0005C0.382812 29.3116 29.3185 0.382812 65.0005 0.382812C100.682 0.382812 129.618 29.3116 129.618 65.0005Z" fill="#0277BD"/>
<path d="M38.6807 86.4114C38.6807 88.5236 40.3921 90.235 42.5042 90.235H91.0003C93.1124 90.235 94.8238 88.5236 94.8238 86.4114V37.9153C94.8238 35.8032 93.1124 34.0918 91.0003 34.0918H42.5042C40.3921 34.0918 38.6807 35.8032 38.6807 37.9153V86.4114Z" fill="white"/>
<path d="M32.7852 91.4933C32.7852 94.1331 34.9256 96.2735 37.5653 96.2735H67.8829V61.1758H32.7852V91.4933Z" fill="#0277BD"/>
<path d="M32.9453 92.291C32.9453 94.4032 34.6567 96.1146 36.7688 96.1146H61.0169V68.043H32.9453V92.291Z" fill="white"/>
</g>
<defs>
<clipPath id="clip0_1183_778">
<rect width="130" height="130" fill="white"/>
</clipPath>
</defs>
</svg>
