<svg width="130" height="130" viewBox="0 0 130 130" fill="none" xmlns="http://www.w3.org/2000/svg">
<path d="M65 128.998C100.346 128.998 129 100.344 129 64.998C129 29.6518 100.346 0.998047 65 0.998047C29.6538 0.998047 1 29.6518 1 64.998C1 100.344 29.6538 128.998 65 128.998Z" fill="#0277BD"/>
<path d="M27.6268 79.5621C30.3374 79.5621 32.5347 77.3647 32.5347 74.6541C32.5347 71.9435 30.3374 69.7461 27.6268 69.7461C24.9161 69.7461 22.7188 71.9435 22.7188 74.6541C22.7188 77.3647 24.9161 79.5621 27.6268 79.5621Z" fill="white"/>
<path d="M59.3978 57.6082C63.2495 57.6082 66.3718 54.4858 66.3718 50.6342C66.3718 46.7825 63.2495 43.6602 59.3978 43.6602C55.5462 43.6602 52.4238 46.7825 52.4238 50.6342C52.4238 54.4858 55.5462 57.6082 59.3978 57.6082Z" fill="white"/>
<path d="M88.5844 86.2801C91.723 86.2801 94.2674 83.7357 94.2674 80.5971C94.2674 77.4584 91.723 74.9141 88.5844 74.9141C85.4457 74.9141 82.9014 77.4584 82.9014 80.5971C82.9014 83.7357 85.4457 86.2801 88.5844 86.2801Z" fill="white"/>
<path d="M91.4256 57.0914C93.4226 57.0914 95.0416 55.4724 95.0416 53.4754C95.0416 51.4783 93.4226 49.8594 91.4256 49.8594C89.4285 49.8594 87.8096 51.4783 87.8096 53.4754C87.8096 55.4724 89.4285 57.0914 91.4256 57.0914Z" fill="white"/>
<path d="M46.741 81.1129C48.7381 81.1129 50.357 79.4939 50.357 77.4969C50.357 75.4998 48.7381 73.8809 46.741 73.8809C44.7439 73.8809 43.125 75.4998 43.125 77.4969C43.125 79.4939 44.7439 81.1129 46.741 81.1129Z" fill="white"/>
<path d="M28.4018 58.6414C30.1138 58.6414 31.5018 57.2535 31.5018 55.5414C31.5018 53.8293 30.1138 52.4414 28.4018 52.4414C26.6897 52.4414 25.3018 53.8293 25.3018 55.5414C25.3018 57.2535 26.6897 58.6414 28.4018 58.6414Z" fill="white"/>
<path d="M66.6296 40.0425C68.6262 40.0425 70.2447 38.424 70.2447 36.4275C70.2447 34.431 68.6262 32.8125 66.6296 32.8125C64.6331 32.8125 63.0146 34.431 63.0146 36.4275C63.0146 38.424 64.6331 40.0425 66.6296 40.0425Z" fill="white"/>
<path d="M67.9209 78.789C69.3474 78.789 70.5039 77.6326 70.5039 76.206C70.5039 74.7795 69.3474 73.623 67.9209 73.623C66.4943 73.623 65.3379 74.7795 65.3379 76.206C65.3379 77.6326 66.4943 78.789 67.9209 78.789Z" fill="white"/>
<path d="M105.891 79.8198C107.888 79.8198 109.506 78.2014 109.506 76.2048C109.506 74.2083 107.888 72.5898 105.891 72.5898C103.895 72.5898 102.276 74.2083 102.276 76.2048C102.276 78.2014 103.895 79.8198 105.891 79.8198Z" fill="white"/>
<path d="M81.3525 65.0976C82.7791 65.0976 83.9355 63.9412 83.9355 62.5146C83.9355 61.0881 82.7791 59.9316 81.3525 59.9316C79.926 59.9316 78.7695 61.0881 78.7695 62.5146C78.7695 63.9412 79.926 65.0976 81.3525 65.0976Z" fill="white"/>
<path d="M29.4355 73.6218L59.3975 50.6328" stroke="white"/>
<path d="M58.8818 51.4082L88.5848 80.5962" stroke="white"/>
<path d="M88.585 80.5966L91.427 53.4746" stroke="white"/>
<path d="M88.585 80.5961L106.667 76.2051" stroke="white"/>
<path d="M91.4265 53.4746L81.3535 62.5146" stroke="white"/>
<path d="M59.3975 50.6337L66.6305 36.4277" stroke="white"/>
<path d="M27.627 74.654L28.402 55.541" stroke="white"/>
<path d="M27.627 74.6543L46.742 77.4963" stroke="white"/>
<path d="M46.7422 77.4961L67.9212 76.2051" stroke="white"/>
<path d="M55.7822 92.7363C57.2088 92.7363 58.3652 91.5799 58.3652 90.1533C58.3652 88.7268 57.2088 87.5703 55.7822 87.5703C54.3557 87.5703 53.1992 88.7268 53.1992 90.1533C53.1992 91.5799 54.3557 92.7363 55.7822 92.7363Z" fill="white"/>
<path d="M82.1277 46.5229C82.9959 46.5229 83.6997 45.8191 83.6997 44.9509C83.6997 44.0827 82.9959 43.3789 82.1277 43.3789C81.2595 43.3789 80.5557 44.0827 80.5557 44.9509C80.5557 45.8191 81.2595 46.5229 82.1277 46.5229Z" fill="white"/>
<path d="M43.642 43.4012C44.6405 43.4012 45.45 42.5917 45.45 41.5932C45.45 40.5946 44.6405 39.7852 43.642 39.7852C42.6435 39.7852 41.834 40.5946 41.834 41.5932C41.834 42.5917 42.6435 43.4012 43.642 43.4012Z" fill="white"/>
<path d="M43.6426 41.5918L59.3976 50.6328" stroke="white"/>
<path d="M91.4269 53.4752L82.1289 44.9512" stroke="white"/>
<path d="M46.7422 77.4961L55.7822 90.1531" stroke="white"/>
</svg>
